<?xml version="1.0" encoding="UTF-8" standalone="no"?>
<!DOCTYPE svg PUBLIC "-//W3C//DTD SVG 1.1//EN"
 "http://www.w3.org/Graphics/SVG/1.1/DTD/svg11.dtd">
<!-- Generated by graphviz version 2.43.0 (0)
 -->
<!-- Title: G Pages: 1 -->
<svg width="603pt" height="802pt"
 viewBox="0.00 0.00 603.00 802.00" xmlns="http://www.w3.org/2000/svg" xmlns:xlink="http://www.w3.org/1999/xlink">
<g id="graph0" class="graph" transform="scale(1 1) rotate(0) translate(4 798)">
<title>G</title>
<polygon fill="white" stroke="transparent" points="-4,4 -4,-798 599,-798 599,4 -4,4"/>
<!-- TRUSTABLE&#45;SOFTWARE -->
<g id="node1" class="node">
<title>TRUSTABLE&#45;SOFTWARE</title>
<g id="a_node1"><a xlink:href="https://score-json.github.io/json/main/_images/custom_TRUSTABLE-SOFTWARE_graph.svg" xlink:title="TRUSTABLE&#45;SOFTWARE: This\nrelease of JSON&#45;Library\nalso reffered in the\ndocumentation as nlohmann/json\nlibrary is Trustable.\n" target="_top">
<polygon fill="none" stroke="black" points="410.5,-794 162.5,-794 162.5,-711 410.5,-711 410.5,-794"/>
<text text-anchor="middle" x="286.5" y="-778.8" font-family="Open Sans" font-size="14.00">TRUSTABLE&#45;SOFTWARE: This</text>
<text text-anchor="middle" x="286.5" y="-763.8" font-family="Open Sans" font-size="14.00">release of JSON&#45;Library</text>
<text text-anchor="middle" x="286.5" y="-748.8" font-family="Open Sans" font-size="14.00">also reffered in the</text>
<text text-anchor="middle" x="286.5" y="-733.8" font-family="Open Sans" font-size="14.00">documentation as nlohmann/json</text>
<text text-anchor="middle" x="286.5" y="-718.8" font-family="Open Sans" font-size="14.00">library is Trustable.</text>
</a>
</g>
</g>
<!-- TT&#45;CHANGES -->
<g id="node6" class="node">
<title>TT&#45;CHANGES</title>
<g id="a_node6"><a xlink:href="https://score-json.github.io/json/main/_images/custom_TT-CHANGES_graph.svg" xlink:title="TT&#45;CHANGES: nlohmann/json\nlibrary is actively maintained,\nwith regular updates\nto dependencies, and\nchanges are verified\nto prevent regressions.\n" target="_top">
<polygon fill="none" stroke="black" points="397.5,-567 175.5,-567 175.5,-469 397.5,-469 397.5,-567"/>
<text text-anchor="middle" x="286.5" y="-551.8" font-family="Open Sans" font-size="14.00">TT&#45;CHANGES: nlohmann/json</text>
<text text-anchor="middle" x="286.5" y="-536.8" font-family="Open Sans" font-size="14.00">library is actively maintained,</text>
<text text-anchor="middle" x="286.5" y="-521.8" font-family="Open Sans" font-size="14.00">with regular updates</text>
<text text-anchor="middle" x="286.5" y="-506.8" font-family="Open Sans" font-size="14.00">to dependencies, and</text>
<text text-anchor="middle" x="286.5" y="-491.8" font-family="Open Sans" font-size="14.00">changes are verified</text>
<text text-anchor="middle" x="286.5" y="-476.8" font-family="Open Sans" font-size="14.00">to prevent regressions.</text>
</a>
</g>
</g>
<!-- TRUSTABLE&#45;SOFTWARE&#45;&gt;TT&#45;CHANGES -->
<g id="edge1" class="edge">
<title>TRUSTABLE&#45;SOFTWARE&#45;&gt;TT&#45;CHANGES</title>
<path fill="none" stroke="black" d="M286.5,-710.74C286.5,-673.88 286.5,-619.18 286.5,-577.63"/>
<polygon fill="black" stroke="black" points="290,-577.37 286.5,-567.37 283,-577.37 290,-577.37"/>
</g>
<!-- JLS&#45;06 -->
<g id="node2" class="node">
<title>JLS&#45;06</title>
<g id="a_node2"><a xlink:href="https://score-json.github.io/json/main/generated/JLS.html#jls-06" xlink:title="JLS&#45;06: Changes to the\ncode (main branch) are\napplied only after code\nreview and passing of\nall pipelines. " target="_top">
<polygon fill="none" stroke="black" points="179,-83 0,-83 0,0 179,0 179,-83"/>
<text text-anchor="middle" x="89.5" y="-67.8" font-family="Open Sans" font-size="14.00">JLS&#45;06: Changes to the</text>
<text text-anchor="middle" x="89.5" y="-52.8" font-family="Open Sans" font-size="14.00">code (main branch) are</text>
<text text-anchor="middle" x="89.5" y="-37.8" font-family="Open Sans" font-size="14.00">applied only after code</text>
<text text-anchor="middle" x="89.5" y="-22.8" font-family="Open Sans" font-size="14.00">review and passing of</text>
<text text-anchor="middle" x="89.5" y="-7.8" font-family="Open Sans" font-size="14.00">all pipelines. </text>
</a>
</g>
</g>
<!-- JLS&#45;07 -->
<g id="node3" class="node">
<title>JLS&#45;07</title>
<g id="a_node3"><a xlink:href="https://score-json.github.io/json/main/generated/JLS.html#jls-07" xlink:title="JLS&#45;07: Main branch is\nprotected, i.e. no direct\ncommits are possible.\n" target="_top">
<polygon fill="none" stroke="black" points="375.5,-68 197.5,-68 197.5,-15 375.5,-15 375.5,-68"/>
<text text-anchor="middle" x="286.5" y="-52.8" font-family="Open Sans" font-size="14.00">JLS&#45;07: Main branch is</text>
<text text-anchor="middle" x="286.5" y="-37.8" font-family="Open Sans" font-size="14.00">protected, i.e. no direct</text>
<text text-anchor="middle" x="286.5" y="-22.8" font-family="Open Sans" font-size="14.00">commits are possible.</text>
</a>
</g>
</g>
<!-- JLS&#45;12 -->
<g id="node4" class="node">
<title>JLS&#45;12</title>
<g id="a_node4"><a xlink:href="https://score-json.github.io/json/main/generated/JLS.html#jls-12" xlink:title="JLS&#45;12: The S&#45;Core change\nprocess management is\nfollowed. " target="_top">
<polygon fill="none" stroke="black" points="595,-68 394,-68 394,-15 595,-15 595,-68"/>
<text text-anchor="middle" x="494.5" y="-52.8" font-family="Open Sans" font-size="14.00">JLS&#45;12: The S&#45;Core change</text>
<text text-anchor="middle" x="494.5" y="-37.8" font-family="Open Sans" font-size="14.00">process management is</text>
<text text-anchor="middle" x="494.5" y="-22.8" font-family="Open Sans" font-size="14.00">followed. </text>
</a>
</g>
</g>
<!-- TA&#45;UPDATES -->
<g id="node5" class="node">
<title>TA&#45;UPDATES</title>
<g id="a_node5"><a xlink:href="https://score-json.github.io/json/main/_images/custom_TA-UPDATES_graph.svg" xlink:title="TA&#45;UPDATES: nlohmann/json\nlibrary components, configurations\nand tools are updated\nunder specified change\nand configuration management\ncontrols. " target="_top">
<polygon fill="none" stroke="black" points="416.5,-325 156.5,-325 156.5,-227 416.5,-227 416.5,-325"/>
<text text-anchor="middle" x="286.5" y="-309.8" font-family="Open Sans" font-size="14.00">TA&#45;UPDATES: nlohmann/json</text>
<text text-anchor="middle" x="286.5" y="-294.8" font-family="Open Sans" font-size="14.00">library components, configurations</text>
<text text-anchor="middle" x="286.5" y="-279.8" font-family="Open Sans" font-size="14.00">and tools are updated</text>
<text text-anchor="middle" x="286.5" y="-264.8" font-family="Open Sans" font-size="14.00">under specified change</text>
<text text-anchor="middle" x="286.5" y="-249.8" font-family="Open Sans" font-size="14.00">and configuration management</text>
<text text-anchor="middle" x="286.5" y="-234.8" font-family="Open Sans" font-size="14.00">controls. </text>
</a>
</g>
</g>
<!-- TA&#45;UPDATES&#45;&gt;JLS&#45;06 -->
<g id="edge2" class="edge">
<title>TA&#45;UPDATES&#45;&gt;JLS&#45;06</title>
<path fill="none" stroke="black" d="M245.68,-226.83C211.98,-187.05 164.36,-130.85 130.58,-90.99"/>
<polygon fill="black" stroke="black" points="133.16,-88.61 124.02,-83.24 127.82,-93.13 133.16,-88.61"/>
</g>
<!-- TA&#45;UPDATES&#45;&gt;JLS&#45;07 -->
<g id="edge3" class="edge">
<title>TA&#45;UPDATES&#45;&gt;JLS&#45;07</title>
<path fill="none" stroke="black" d="M286.5,-226.83C286.5,-182.63 286.5,-118.15 286.5,-78.34"/>
<polygon fill="black" stroke="black" points="290,-78.29 286.5,-68.29 283,-78.29 290,-78.29"/>
</g>
<!-- TA&#45;UPDATES&#45;&gt;JLS&#45;12 -->
<g id="edge4" class="edge">
<title>TA&#45;UPDATES&#45;&gt;JLS&#45;12</title>
<path fill="none" stroke="black" d="M329.6,-226.83C369.98,-181.69 429.28,-115.4 464.68,-75.84"/>
<polygon fill="black" stroke="black" points="467.36,-78.08 471.42,-68.29 462.15,-73.41 467.36,-78.08"/>
</g>
<!-- TT&#45;CHANGES&#45;&gt;TA&#45;UPDATES -->
<g id="edge5" class="edge">
<title>TT&#45;CHANGES&#45;&gt;TA&#45;UPDATES</title>
<path fill="none" stroke="black" d="M286.5,-468.72C286.5,-430.23 286.5,-376.2 286.5,-335.3"/>
<polygon fill="black" stroke="black" points="290,-335.2 286.5,-325.2 283,-335.2 290,-335.2"/>
</g>
</g>
</svg>
