<?xml version="1.0" encoding="UTF-8" standalone="no"?>
<!DOCTYPE svg PUBLIC "-//W3C//DTD SVG 1.1//EN"
 "http://www.w3.org/Graphics/SVG/1.1/DTD/svg11.dtd">
<!-- Generated by graphviz version 2.43.0 (0)
 -->
<!-- Title: G Pages: 1 -->
<svg width="757pt" height="787pt"
 viewBox="0.00 0.00 756.50 787.00" xmlns="http://www.w3.org/2000/svg" xmlns:xlink="http://www.w3.org/1999/xlink">
<g id="graph0" class="graph" transform="scale(1 1) rotate(0) translate(4 783)">
<title>G</title>
<polygon fill="white" stroke="transparent" points="-4,4 -4,-783 752.5,-783 752.5,4 -4,4"/>
<!-- TRUSTABLE&#45;SOFTWARE -->
<g id="node1" class="node">
<title>TRUSTABLE&#45;SOFTWARE</title>
<g id="a_node1"><a xlink:href="https://score-json.github.io/json/main/_images/custom_TRUSTABLE-SOFTWARE_graph.svg" xlink:title="TRUSTABLE&#45;SOFTWARE: This\nrelease of JSON&#45;Library\nalso referred in the\ndocumentation as nlohmann/json\nlibrary is Trustable.\n" target="_top">
<polygon fill="none" stroke="black" points="480,-779 232,-779 232,-696 480,-696 480,-779"/>
<text text-anchor="middle" x="356" y="-763.8" font-family="Open Sans" font-size="14.00">TRUSTABLE&#45;SOFTWARE: This</text>
<text text-anchor="middle" x="356" y="-748.8" font-family="Open Sans" font-size="14.00">release of JSON&#45;Library</text>
<text text-anchor="middle" x="356" y="-733.8" font-family="Open Sans" font-size="14.00">also referred in the</text>
<text text-anchor="middle" x="356" y="-718.8" font-family="Open Sans" font-size="14.00">documentation as nlohmann/json</text>
<text text-anchor="middle" x="356" y="-703.8" font-family="Open Sans" font-size="14.00">library is Trustable.</text>
</a>
</g>
</g>
<!-- TT&#45;CONFIDENCE -->
<g id="node6" class="node">
<title>TT&#45;CONFIDENCE</title>
<g id="a_node6"><a xlink:href="https://score-json.github.io/json/main/_images/custom_TT-CONFIDENCE_graph.svg" xlink:title="TT&#45;CONFIDENCE: Confidence\nin the nlohmann/json\nlibrary is achieved by\nmeasuring and analysing\nbehaviour and evidence\nover time within eclipse&#45;score/inc_nlohmann_json.\n" target="_top">
<polygon fill="none" stroke="black" points="538.5,-552 173.5,-552 173.5,-454 538.5,-454 538.5,-552"/>
<text text-anchor="middle" x="356" y="-536.8" font-family="Open Sans" font-size="14.00">TT&#45;CONFIDENCE: Confidence</text>
<text text-anchor="middle" x="356" y="-521.8" font-family="Open Sans" font-size="14.00">in the nlohmann/json</text>
<text text-anchor="middle" x="356" y="-506.8" font-family="Open Sans" font-size="14.00">library is achieved by</text>
<text text-anchor="middle" x="356" y="-491.8" font-family="Open Sans" font-size="14.00">measuring and analysing</text>
<text text-anchor="middle" x="356" y="-476.8" font-family="Open Sans" font-size="14.00">behaviour and evidence</text>
<text text-anchor="middle" x="356" y="-461.8" font-family="Open Sans" font-size="14.00">over time within eclipse&#45;score/inc_nlohmann_json.</text>
</a>
</g>
</g>
<!-- TRUSTABLE&#45;SOFTWARE&#45;&gt;TT&#45;CONFIDENCE -->
<g id="edge1" class="edge">
<title>TRUSTABLE&#45;SOFTWARE&#45;&gt;TT&#45;CONFIDENCE</title>
<path fill="none" stroke="black" d="M356,-695.74C356,-658.88 356,-604.18 356,-562.63"/>
<polygon fill="black" stroke="black" points="359.5,-562.37 356,-552.37 352.5,-562.37 359.5,-562.37"/>
</g>
<!-- JLS&#45;08 -->
<g id="node2" class="node">
<title>JLS&#45;08</title>
<g id="a_node2"><a xlink:href="https://score-json.github.io/json/main/generated/JLS.html#jls-08" xlink:title="JLS&#45;08: Each statement\nwithin the TSF documentation\nis scored based on SME\nreviews or automatic\nvalidation functions.\n(TODO) " target="_top">
<polygon fill="none" stroke="black" points="224,-98 0,-98 0,0 224,0 224,-98"/>
<text text-anchor="middle" x="112" y="-82.8" font-family="Open Sans" font-size="14.00">JLS&#45;08: Each statement</text>
<text text-anchor="middle" x="112" y="-67.8" font-family="Open Sans" font-size="14.00">within the TSF documentation</text>
<text text-anchor="middle" x="112" y="-52.8" font-family="Open Sans" font-size="14.00">is scored based on SME</text>
<text text-anchor="middle" x="112" y="-37.8" font-family="Open Sans" font-size="14.00">reviews or automatic</text>
<text text-anchor="middle" x="112" y="-22.8" font-family="Open Sans" font-size="14.00">validation functions.</text>
<text text-anchor="middle" x="112" y="-7.8" font-family="Open Sans" font-size="14.00">(TODO) </text>
</a>
</g>
</g>
<!-- JLS&#45;09 -->
<g id="node3" class="node">
<title>JLS&#45;09</title>
<g id="a_node3"><a xlink:href="https://score-json.github.io/json/main/generated/JLS.html#jls-09" xlink:title="JLS&#45;09: Scores within\nthe TSF documentation\nare reasonably, systematically\nand repeatably accumulated.\n(TODO) " target="_top">
<polygon fill="none" stroke="black" points="469.5,-90.5 242.5,-90.5 242.5,-7.5 469.5,-7.5 469.5,-90.5"/>
<text text-anchor="middle" x="356" y="-75.3" font-family="Open Sans" font-size="14.00">JLS&#45;09: Scores within</text>
<text text-anchor="middle" x="356" y="-60.3" font-family="Open Sans" font-size="14.00">the TSF documentation</text>
<text text-anchor="middle" x="356" y="-45.3" font-family="Open Sans" font-size="14.00">are reasonably, systematically</text>
<text text-anchor="middle" x="356" y="-30.3" font-family="Open Sans" font-size="14.00">and repeatably accumulated.</text>
<text text-anchor="middle" x="356" y="-15.3" font-family="Open Sans" font-size="14.00">(TODO) </text>
</a>
</g>
</g>
<!-- JLS&#45;20 -->
<g id="node4" class="node">
<title>JLS&#45;20</title>
<g id="a_node4"><a xlink:href="https://score-json.github.io/json/main/generated/JLS.html#jls-20" xlink:title="JLS&#45;20: A github workflow\nof eclipse&#45;score/inc_nlohmann_json\nsaves the history of\nscores in the trustable\ngraph to derive trends.\n" target="_top">
<polygon fill="none" stroke="black" points="748.5,-90.5 487.5,-90.5 487.5,-7.5 748.5,-7.5 748.5,-90.5"/>
<text text-anchor="middle" x="618" y="-75.3" font-family="Open Sans" font-size="14.00">JLS&#45;20: A github workflow</text>
<text text-anchor="middle" x="618" y="-60.3" font-family="Open Sans" font-size="14.00">of eclipse&#45;score/inc_nlohmann_json</text>
<text text-anchor="middle" x="618" y="-45.3" font-family="Open Sans" font-size="14.00">saves the history of</text>
<text text-anchor="middle" x="618" y="-30.3" font-family="Open Sans" font-size="14.00">scores in the trustable</text>
<text text-anchor="middle" x="618" y="-15.3" font-family="Open Sans" font-size="14.00">graph to derive trends.</text>
</a>
</g>
</g>
<!-- TA&#45;CONFIDENCE -->
<g id="node5" class="node">
<title>TA&#45;CONFIDENCE</title>
<g id="a_node5"><a xlink:href="https://score-json.github.io/json/main/_images/custom_TA-CONFIDENCE_graph.svg" xlink:title="TA&#45;CONFIDENCE: Confidence\nin the nlohmann/json\nlibrary is measured based\non results of analysis.\n" target="_top">
<polygon fill="none" stroke="black" points="465,-310 247,-310 247,-242 465,-242 465,-310"/>
<text text-anchor="middle" x="356" y="-294.8" font-family="Open Sans" font-size="14.00">TA&#45;CONFIDENCE: Confidence</text>
<text text-anchor="middle" x="356" y="-279.8" font-family="Open Sans" font-size="14.00">in the nlohmann/json</text>
<text text-anchor="middle" x="356" y="-264.8" font-family="Open Sans" font-size="14.00">library is measured based</text>
<text text-anchor="middle" x="356" y="-249.8" font-family="Open Sans" font-size="14.00">on results of analysis.</text>
</a>
</g>
</g>
<!-- TA&#45;CONFIDENCE&#45;&gt;JLS&#45;08 -->
<g id="edge2" class="edge">
<title>TA&#45;CONFIDENCE&#45;&gt;JLS&#45;08</title>
<path fill="none" stroke="black" d="M320,-241.8C281.07,-205.9 218.37,-148.09 171.98,-105.31"/>
<polygon fill="black" stroke="black" points="174.12,-102.52 164.39,-98.31 169.37,-107.66 174.12,-102.52"/>
</g>
<!-- TA&#45;CONFIDENCE&#45;&gt;JLS&#45;09 -->
<g id="edge3" class="edge">
<title>TA&#45;CONFIDENCE&#45;&gt;JLS&#45;09</title>
<path fill="none" stroke="black" d="M356,-241.8C356,-204.57 356,-143.76 356,-100.6"/>
<polygon fill="black" stroke="black" points="359.5,-100.58 356,-90.58 352.5,-100.58 359.5,-100.58"/>
</g>
<!-- TA&#45;CONFIDENCE&#45;&gt;JLS&#45;20 -->
<g id="edge4" class="edge">
<title>TA&#45;CONFIDENCE&#45;&gt;JLS&#45;20</title>
<path fill="none" stroke="black" d="M394.66,-241.8C439.11,-203.63 512.43,-140.66 562.86,-97.35"/>
<polygon fill="black" stroke="black" points="565.44,-99.75 570.75,-90.58 560.88,-94.44 565.44,-99.75"/>
</g>
<!-- TT&#45;CONFIDENCE&#45;&gt;TA&#45;CONFIDENCE -->
<g id="edge5" class="edge">
<title>TT&#45;CONFIDENCE&#45;&gt;TA&#45;CONFIDENCE</title>
<path fill="none" stroke="black" d="M356,-453.73C356,-414.19 356,-358.73 356,-320.54"/>
<polygon fill="black" stroke="black" points="359.5,-320.25 356,-310.25 352.5,-320.25 359.5,-320.25"/>
</g>
</g>
</svg>
