<?xml version="1.0" encoding="UTF-8" standalone="no"?>
<!DOCTYPE svg PUBLIC "-//W3C//DTD SVG 1.1//EN"
 "http://www.w3.org/Graphics/SVG/1.1/DTD/svg11.dtd">
<!-- Generated by graphviz version 2.43.0 (0)
 -->
<!-- Title: G Pages: 1 -->
<svg width="705pt" height="772pt"
 viewBox="0.00 0.00 704.50 772.00" xmlns="http://www.w3.org/2000/svg" xmlns:xlink="http://www.w3.org/1999/xlink">
<g id="graph0" class="graph" transform="scale(1 1) rotate(0) translate(4 768)">
<title>G</title>
<polygon fill="white" stroke="transparent" points="-4,4 -4,-768 700.5,-768 700.5,4 -4,4"/>
<!-- TRUSTABLE&#45;SOFTWARE -->
<g id="node1" class="node">
<title>TRUSTABLE&#45;SOFTWARE</title>
<g id="a_node1"><a xlink:href="https://score-json.github.io/json/main/_images/TRUSTABLE-SOFTWARE.svg" xlink:title="TRUSTABLE&#45;SOFTWARE: This\nrelease of JSON&#45;Library\nalso reffered in the\ndocumentation as nlohmann/json\nlibrary is Trustable.\n">
<polygon fill="none" stroke="black" points="487,-764 239,-764 239,-681 487,-681 487,-764"/>
<text text-anchor="middle" x="363" y="-748.8" font-family="Open Sans" font-size="14.00">TRUSTABLE&#45;SOFTWARE: This</text>
<text text-anchor="middle" x="363" y="-733.8" font-family="Open Sans" font-size="14.00">release of JSON&#45;Library</text>
<text text-anchor="middle" x="363" y="-718.8" font-family="Open Sans" font-size="14.00">also reffered in the</text>
<text text-anchor="middle" x="363" y="-703.8" font-family="Open Sans" font-size="14.00">documentation as nlohmann/json</text>
<text text-anchor="middle" x="363" y="-688.8" font-family="Open Sans" font-size="14.00">library is Trustable.</text>
</a>
</g>
</g>
<!-- TT&#45;PROVENANCE -->
<g id="node6" class="node">
<title>TT&#45;PROVENANCE</title>
<g id="a_node6"><a xlink:href="https://score-json.github.io/json/main/_images/TT-PROVENANCE.svg" xlink:title="TT&#45;PROVENANCE: All inputs\n(and attestations for\nclaims) for nlohmann/json\nlibrary are provided\nwith known provenance.\n">
<polygon fill="none" stroke="black" points="467.5,-537 258.5,-537 258.5,-454 467.5,-454 467.5,-537"/>
<text text-anchor="middle" x="363" y="-521.8" font-family="Open Sans" font-size="14.00">TT&#45;PROVENANCE: All inputs</text>
<text text-anchor="middle" x="363" y="-506.8" font-family="Open Sans" font-size="14.00">(and attestations for</text>
<text text-anchor="middle" x="363" y="-491.8" font-family="Open Sans" font-size="14.00">claims) for nlohmann/json</text>
<text text-anchor="middle" x="363" y="-476.8" font-family="Open Sans" font-size="14.00">library are provided</text>
<text text-anchor="middle" x="363" y="-461.8" font-family="Open Sans" font-size="14.00">with known provenance.</text>
</a>
</g>
</g>
<!-- TRUSTABLE&#45;SOFTWARE&#45;&gt;TT&#45;PROVENANCE -->
<g id="edge1" class="edge">
<title>TRUSTABLE&#45;SOFTWARE&#45;&gt;TT&#45;PROVENANCE</title>
<path fill="none" stroke="black" d="M363,-680.75C363,-643.36 363,-587.81 363,-547.48"/>
<polygon fill="black" stroke="black" points="366.5,-547.32 363,-537.32 359.5,-547.32 366.5,-547.32"/>
</g>
<!-- AOU&#45;02 -->
<g id="node2" class="node">
<title>AOU&#45;02</title>
<g id="a_node2"><a xlink:href="https://score-json.github.io/json/main/generated/AOU.html#aou-02" xlink:title="AOU&#45;02: The build environment\nused for nlohmann/json\nin an integrating system\nis supplied with consistent\ndependencies. ">
<polygon fill="none" stroke="black" points="236,-83 0,-83 0,0 236,0 236,-83"/>
<text text-anchor="middle" x="118" y="-67.8" font-family="Open Sans" font-size="14.00">AOU&#45;02: The build environment</text>
<text text-anchor="middle" x="118" y="-52.8" font-family="Open Sans" font-size="14.00">used for nlohmann/json</text>
<text text-anchor="middle" x="118" y="-37.8" font-family="Open Sans" font-size="14.00">in an integrating system</text>
<text text-anchor="middle" x="118" y="-22.8" font-family="Open Sans" font-size="14.00">is supplied with consistent</text>
<text text-anchor="middle" x="118" y="-7.8" font-family="Open Sans" font-size="14.00">dependencies. </text>
</a>
</g>
</g>
<!-- AOU&#45;03 -->
<g id="node3" class="node">
<title>AOU&#45;03</title>
<g id="a_node3"><a xlink:href="https://score-json.github.io/json/main/generated/AOU.html#aou-03" xlink:title="AOU&#45;03: The integrator\nhas integrator&#45;controlled\nmirrors of the dependencies.\n">
<polygon fill="none" stroke="black" points="471.5,-68 254.5,-68 254.5,-15 471.5,-15 471.5,-68"/>
<text text-anchor="middle" x="363" y="-52.8" font-family="Open Sans" font-size="14.00">AOU&#45;03: The integrator</text>
<text text-anchor="middle" x="363" y="-37.8" font-family="Open Sans" font-size="14.00">has integrator&#45;controlled</text>
<text text-anchor="middle" x="363" y="-22.8" font-family="Open Sans" font-size="14.00">mirrors of the dependencies.</text>
</a>
</g>
</g>
<!-- JLS&#45;23 -->
<g id="node4" class="node">
<title>JLS&#45;23</title>
<g id="a_node4"><a xlink:href="https://score-json.github.io/json/main/generated/JLS.html#jls-23" xlink:title="JLS&#45;23: The Eclipse S&#45;CORE\norganization mirrors\nthe nlohmann/json project\nin a github fork. ">
<polygon fill="none" stroke="black" points="696.5,-75.5 489.5,-75.5 489.5,-7.5 696.5,-7.5 696.5,-75.5"/>
<text text-anchor="middle" x="593" y="-60.3" font-family="Open Sans" font-size="14.00">JLS&#45;23: The Eclipse S&#45;CORE</text>
<text text-anchor="middle" x="593" y="-45.3" font-family="Open Sans" font-size="14.00">organization mirrors</text>
<text text-anchor="middle" x="593" y="-30.3" font-family="Open Sans" font-size="14.00">the nlohmann/json project</text>
<text text-anchor="middle" x="593" y="-15.3" font-family="Open Sans" font-size="14.00">in a github fork. </text>
</a>
</g>
</g>
<!-- TA&#45;SUPPLY_CHAIN -->
<g id="node5" class="node">
<title>TA&#45;SUPPLY_CHAIN</title>
<g id="a_node5"><a xlink:href="https://score-json.github.io/json/main/_images/TA-SUPPLY_CHAIN.svg" xlink:title="TA&#45;SUPPLY_CHAIN: All\nsources for nlohmann/json\nlibrary and tools are\nmirrored in our controlled\nenvironment. ">
<polygon fill="none" stroke="black" points="463.5,-310 262.5,-310 262.5,-227 463.5,-227 463.5,-310"/>
<text text-anchor="middle" x="363" y="-294.8" font-family="Open Sans" font-size="14.00">TA&#45;SUPPLY_CHAIN: All</text>
<text text-anchor="middle" x="363" y="-279.8" font-family="Open Sans" font-size="14.00">sources for nlohmann/json</text>
<text text-anchor="middle" x="363" y="-264.8" font-family="Open Sans" font-size="14.00">library and tools are</text>
<text text-anchor="middle" x="363" y="-249.8" font-family="Open Sans" font-size="14.00">mirrored in our controlled</text>
<text text-anchor="middle" x="363" y="-234.8" font-family="Open Sans" font-size="14.00">environment. </text>
</a>
</g>
</g>
<!-- TA&#45;SUPPLY_CHAIN&#45;&gt;AOU&#45;02 -->
<g id="edge2" class="edge">
<title>TA&#45;SUPPLY_CHAIN&#45;&gt;AOU&#45;02</title>
<path fill="none" stroke="black" d="M318.63,-226.75C276.79,-188.33 214.07,-130.73 169.92,-90.18"/>
<polygon fill="black" stroke="black" points="172.18,-87.51 162.45,-83.32 167.45,-92.66 172.18,-87.51"/>
</g>
<!-- TA&#45;SUPPLY_CHAIN&#45;&gt;AOU&#45;03 -->
<g id="edge3" class="edge">
<title>TA&#45;SUPPLY_CHAIN&#45;&gt;AOU&#45;03</title>
<path fill="none" stroke="black" d="M363,-226.75C363,-184.44 363,-118.88 363,-78.44"/>
<polygon fill="black" stroke="black" points="366.5,-78.23 363,-68.23 359.5,-78.23 366.5,-78.23"/>
</g>
<!-- TA&#45;SUPPLY_CHAIN&#45;&gt;JLS&#45;23 -->
<g id="edge4" class="edge">
<title>TA&#45;SUPPLY_CHAIN&#45;&gt;JLS&#45;23</title>
<path fill="none" stroke="black" d="M404.65,-226.75C446.42,-185.9 510.33,-123.37 551.9,-82.7"/>
<polygon fill="black" stroke="black" points="554.44,-85.12 559.14,-75.63 549.54,-80.12 554.44,-85.12"/>
</g>
<!-- TT&#45;PROVENANCE&#45;&gt;TA&#45;SUPPLY_CHAIN -->
<g id="edge5" class="edge">
<title>TT&#45;PROVENANCE&#45;&gt;TA&#45;SUPPLY_CHAIN</title>
<path fill="none" stroke="black" d="M363,-453.75C363,-416.36 363,-360.81 363,-320.48"/>
<polygon fill="black" stroke="black" points="366.5,-320.32 363,-310.32 359.5,-320.32 366.5,-320.32"/>
</g>
</g>
</svg>
