<?xml version="1.0" encoding="UTF-8" standalone="no"?>
<!DOCTYPE svg PUBLIC "-//W3C//DTD SVG 1.1//EN"
 "http://www.w3.org/Graphics/SVG/1.1/DTD/svg11.dtd">
<!-- Generated by graphviz version 2.43.0 (0)
 -->
<!-- Title: G Pages: 1 -->
<svg width="1758pt" height="817pt"
 viewBox="0.00 0.00 1757.50 817.00" xmlns="http://www.w3.org/2000/svg" xmlns:xlink="http://www.w3.org/1999/xlink">
<g id="graph0" class="graph" transform="scale(1 1) rotate(0) translate(4 813)">
<title>G</title>
<polygon fill="white" stroke="transparent" points="-4,4 -4,-813 1753.5,-813 1753.5,4 -4,4"/>
<!-- TRUSTABLE&#45;SOFTWARE -->
<g id="node1" class="node">
<title>TRUSTABLE&#45;SOFTWARE</title>
<g id="a_node1"><a xlink:href="https://score-json.github.io/json/main/_images/custom_TRUSTABLE-SOFTWARE_graph.svg" xlink:title="TRUSTABLE&#45;SOFTWARE: This\nrelease of JSON&#45;Library\nalso reffered in the\ndocumentation as nlohmann/json\nlibrary is Trustable.\n">
<polygon fill="none" stroke="black" points="1008,-809 760,-809 760,-726 1008,-726 1008,-809"/>
<text text-anchor="middle" x="884" y="-793.8" font-family="Open Sans" font-size="14.00">TRUSTABLE&#45;SOFTWARE: This</text>
<text text-anchor="middle" x="884" y="-778.8" font-family="Open Sans" font-size="14.00">release of JSON&#45;Library</text>
<text text-anchor="middle" x="884" y="-763.8" font-family="Open Sans" font-size="14.00">also reffered in the</text>
<text text-anchor="middle" x="884" y="-748.8" font-family="Open Sans" font-size="14.00">documentation as nlohmann/json</text>
<text text-anchor="middle" x="884" y="-733.8" font-family="Open Sans" font-size="14.00">library is Trustable.</text>
</a>
</g>
</g>
<!-- TT&#45;EXPECTATIONS -->
<g id="node11" class="node">
<title>TT&#45;EXPECTATIONS</title>
<g id="a_node11"><a xlink:href="https://score-json.github.io/json/main/_images/custom_TT-EXPECTATIONS_graph.svg" xlink:title="TT&#45;EXPECTATIONS: Documentation\nis provided, specifying\nwhat nlohmann/json library\nis expected to do, and\nwhat it must not do,\nand how this is verified.\n">
<polygon fill="none" stroke="black" points="1012.5,-582 755.5,-582 755.5,-484 1012.5,-484 1012.5,-582"/>
<text text-anchor="middle" x="884" y="-566.8" font-family="Open Sans" font-size="14.00">TT&#45;EXPECTATIONS: Documentation</text>
<text text-anchor="middle" x="884" y="-551.8" font-family="Open Sans" font-size="14.00">is provided, specifying</text>
<text text-anchor="middle" x="884" y="-536.8" font-family="Open Sans" font-size="14.00">what nlohmann/json library</text>
<text text-anchor="middle" x="884" y="-521.8" font-family="Open Sans" font-size="14.00">is expected to do, and</text>
<text text-anchor="middle" x="884" y="-506.8" font-family="Open Sans" font-size="14.00">what it must not do,</text>
<text text-anchor="middle" x="884" y="-491.8" font-family="Open Sans" font-size="14.00">and how this is verified.</text>
</a>
</g>
</g>
<!-- TRUSTABLE&#45;SOFTWARE&#45;&gt;TT&#45;EXPECTATIONS -->
<g id="edge1" class="edge">
<title>TRUSTABLE&#45;SOFTWARE&#45;&gt;TT&#45;EXPECTATIONS</title>
<path fill="none" stroke="black" d="M884,-725.74C884,-688.88 884,-634.18 884,-592.63"/>
<polygon fill="black" stroke="black" points="887.5,-592.37 884,-582.37 880.5,-592.37 887.5,-592.37"/>
</g>
<!-- AOU&#45;04 -->
<g id="node2" class="node">
<title>AOU&#45;04</title>
<g id="a_node2"><a xlink:href="https://score-json.github.io/json/main/generated/AOU.html#aou-04" xlink:title="AOU&#45;04: Exceptions are\nproperly handled or turned\noff. ">
<polygon fill="none" stroke="black" points="204,-90.5 0,-90.5 0,-37.5 204,-37.5 204,-90.5"/>
<text text-anchor="middle" x="102" y="-75.3" font-family="Open Sans" font-size="14.00">AOU&#45;04: Exceptions are</text>
<text text-anchor="middle" x="102" y="-60.3" font-family="Open Sans" font-size="14.00">properly handled or turned</text>
<text text-anchor="middle" x="102" y="-45.3" font-family="Open Sans" font-size="14.00">off. </text>
</a>
</g>
</g>
<!-- AOU&#45;05 -->
<g id="node3" class="node">
<title>AOU&#45;05</title>
<g id="a_node3"><a xlink:href="https://score-json.github.io/json/main/generated/AOU.html#aou-05" xlink:title="AOU&#45;05: Input is encoded\nas UTF&#45;8 (as required\nby RFC8259) and in case\nother string formats\nare used, it is expected\nthat the parse or dump\nfunction may throw an\nexception. ">
<polygon fill="none" stroke="black" points="418,-128 222,-128 222,0 418,0 418,-128"/>
<text text-anchor="middle" x="320" y="-112.8" font-family="Open Sans" font-size="14.00">AOU&#45;05: Input is encoded</text>
<text text-anchor="middle" x="320" y="-97.8" font-family="Open Sans" font-size="14.00">as UTF&#45;8 (as required</text>
<text text-anchor="middle" x="320" y="-82.8" font-family="Open Sans" font-size="14.00">by RFC8259) and in case</text>
<text text-anchor="middle" x="320" y="-67.8" font-family="Open Sans" font-size="14.00">other string formats</text>
<text text-anchor="middle" x="320" y="-52.8" font-family="Open Sans" font-size="14.00">are used, it is expected</text>
<text text-anchor="middle" x="320" y="-37.8" font-family="Open Sans" font-size="14.00">that the parse or dump</text>
<text text-anchor="middle" x="320" y="-22.8" font-family="Open Sans" font-size="14.00">function may throw an</text>
<text text-anchor="middle" x="320" y="-7.8" font-family="Open Sans" font-size="14.00">exception. </text>
</a>
</g>
</g>
<!-- AOU&#45;06 -->
<g id="node4" class="node">
<title>AOU&#45;06</title>
<g id="a_node4"><a xlink:href="https://score-json.github.io/json/main/generated/AOU.html#aou-06" xlink:title="AOU&#45;06: Brace initialization\n(e.g. json j{true};)\nis not used with the\ntypes basic_json, json,\nor ordered_json unless\nyou want to create an\nobject or array. ">
<polygon fill="none" stroke="black" points="643.5,-120.5 436.5,-120.5 436.5,-7.5 643.5,-7.5 643.5,-120.5"/>
<text text-anchor="middle" x="540" y="-105.3" font-family="Open Sans" font-size="14.00">AOU&#45;06: Brace initialization</text>
<text text-anchor="middle" x="540" y="-90.3" font-family="Open Sans" font-size="14.00">(e.g. json j{true};)</text>
<text text-anchor="middle" x="540" y="-75.3" font-family="Open Sans" font-size="14.00">is not used with the</text>
<text text-anchor="middle" x="540" y="-60.3" font-family="Open Sans" font-size="14.00">types basic_json, json,</text>
<text text-anchor="middle" x="540" y="-45.3" font-family="Open Sans" font-size="14.00">or ordered_json unless</text>
<text text-anchor="middle" x="540" y="-30.3" font-family="Open Sans" font-size="14.00">you want to create an</text>
<text text-anchor="middle" x="540" y="-15.3" font-family="Open Sans" font-size="14.00">object or array. </text>
</a>
</g>
</g>
<!-- AOU&#45;07 -->
<g id="node5" class="node">
<title>AOU&#45;07</title>
<g id="a_node5"><a xlink:href="https://score-json.github.io/json/main/generated/AOU.html#aou-07" xlink:title="AOU&#45;07: If the input\nis no valid JSON, exceptions\nare expected during parsing\nwith default parameters.\n">
<polygon fill="none" stroke="black" points="876,-98 662,-98 662,-30 876,-30 876,-98"/>
<text text-anchor="middle" x="769" y="-82.8" font-family="Open Sans" font-size="14.00">AOU&#45;07: If the input</text>
<text text-anchor="middle" x="769" y="-67.8" font-family="Open Sans" font-size="14.00">is no valid JSON, exceptions</text>
<text text-anchor="middle" x="769" y="-52.8" font-family="Open Sans" font-size="14.00">are expected during parsing</text>
<text text-anchor="middle" x="769" y="-37.8" font-family="Open Sans" font-size="14.00">with default parameters.</text>
</a>
</g>
</g>
<!-- AOU&#45;14 -->
<g id="node6" class="node">
<title>AOU&#45;14</title>
<g id="a_node6"><a xlink:href="https://score-json.github.io/json/main/generated/AOU.html#aou-14" xlink:title="AOU&#45;14: The nlohmann/json\nlibrary is built with\ntools from the provided\nmatrix specification.\n(not yet provided) ">
<polygon fill="none" stroke="black" points="1106,-105.5 894,-105.5 894,-22.5 1106,-22.5 1106,-105.5"/>
<text text-anchor="middle" x="1000" y="-90.3" font-family="Open Sans" font-size="14.00">AOU&#45;14: The nlohmann/json</text>
<text text-anchor="middle" x="1000" y="-75.3" font-family="Open Sans" font-size="14.00">library is built with</text>
<text text-anchor="middle" x="1000" y="-60.3" font-family="Open Sans" font-size="14.00">tools from the provided</text>
<text text-anchor="middle" x="1000" y="-45.3" font-family="Open Sans" font-size="14.00">matrix specification.</text>
<text text-anchor="middle" x="1000" y="-30.3" font-family="Open Sans" font-size="14.00">(not yet provided) </text>
</a>
</g>
</g>
<!-- AOU&#45;16 -->
<g id="node7" class="node">
<title>AOU&#45;16</title>
<g id="a_node7"><a xlink:href="https://score-json.github.io/json/main/generated/AOU.html#aou-16" xlink:title="AOU&#45;16: The integrator\nuses C++ versions and\ncompilers that are tested\nin the CI pipeline. ">
<polygon fill="none" stroke="black" points="1315.5,-98 1124.5,-98 1124.5,-30 1315.5,-30 1315.5,-98"/>
<text text-anchor="middle" x="1220" y="-82.8" font-family="Open Sans" font-size="14.00">AOU&#45;16: The integrator</text>
<text text-anchor="middle" x="1220" y="-67.8" font-family="Open Sans" font-size="14.00">uses C++ versions and</text>
<text text-anchor="middle" x="1220" y="-52.8" font-family="Open Sans" font-size="14.00">compilers that are tested</text>
<text text-anchor="middle" x="1220" y="-37.8" font-family="Open Sans" font-size="14.00">in the CI pipeline. </text>
</a>
</g>
</g>
<!-- AOU&#45;20 -->
<g id="node8" class="node">
<title>AOU&#45;20</title>
<g id="a_node8"><a xlink:href="https://score-json.github.io/json/main/generated/AOU.html#aou-20" xlink:title="AOU&#45;20: The keys within\neach object are unique.\n">
<polygon fill="none" stroke="black" points="1522,-83 1334,-83 1334,-45 1522,-45 1522,-83"/>
<text text-anchor="middle" x="1428" y="-67.8" font-family="Open Sans" font-size="14.00">AOU&#45;20: The keys within</text>
<text text-anchor="middle" x="1428" y="-52.8" font-family="Open Sans" font-size="14.00">each object are unique.</text>
</a>
</g>
</g>
<!-- AOU&#45;21 -->
<g id="node9" class="node">
<title>AOU&#45;21</title>
<g id="a_node9"><a xlink:href="https://score-json.github.io/json/main/generated/AOU.html#aou-21" xlink:title="AOU&#45;21: Strings containing\nan escaped unpaired utf&#45;16\nsurrogate character are\ninvalid. ">
<polygon fill="none" stroke="black" points="1749.5,-98 1540.5,-98 1540.5,-30 1749.5,-30 1749.5,-98"/>
<text text-anchor="middle" x="1645" y="-82.8" font-family="Open Sans" font-size="14.00">AOU&#45;21: Strings containing</text>
<text text-anchor="middle" x="1645" y="-67.8" font-family="Open Sans" font-size="14.00">an escaped unpaired utf&#45;16</text>
<text text-anchor="middle" x="1645" y="-52.8" font-family="Open Sans" font-size="14.00">surrogate character are</text>
<text text-anchor="middle" x="1645" y="-37.8" font-family="Open Sans" font-size="14.00">invalid. </text>
</a>
</g>
</g>
<!-- TA&#45;CONSTRAINTS -->
<g id="node10" class="node">
<title>TA&#45;CONSTRAINTS</title>
<g id="a_node10"><a xlink:href="https://score-json.github.io/json/main/_images/custom_TA-CONSTRAINTS_graph.svg" xlink:title="TA&#45;CONSTRAINTS: Constraints\non adaptation and deployment\nof nlohmann/json library\nare specified. ">
<polygon fill="none" stroke="black" points="999,-340 769,-340 769,-272 999,-272 999,-340"/>
<text text-anchor="middle" x="884" y="-324.8" font-family="Open Sans" font-size="14.00">TA&#45;CONSTRAINTS: Constraints</text>
<text text-anchor="middle" x="884" y="-309.8" font-family="Open Sans" font-size="14.00">on adaptation and deployment</text>
<text text-anchor="middle" x="884" y="-294.8" font-family="Open Sans" font-size="14.00">of nlohmann/json library</text>
<text text-anchor="middle" x="884" y="-279.8" font-family="Open Sans" font-size="14.00">are specified. </text>
</a>
</g>
</g>
<!-- TA&#45;CONSTRAINTS&#45;&gt;AOU&#45;04 -->
<g id="edge2" class="edge">
<title>TA&#45;CONSTRAINTS&#45;&gt;AOU&#45;04</title>
<path fill="none" stroke="black" d="M768.91,-284.08C632.89,-257.22 401.27,-204.74 213,-128 191.57,-119.26 169.14,-107.17 150.11,-95.91"/>
<polygon fill="black" stroke="black" points="151.71,-92.79 141.33,-90.64 148.1,-98.79 151.71,-92.79"/>
</g>
<!-- TA&#45;CONSTRAINTS&#45;&gt;AOU&#45;05 -->
<g id="edge3" class="edge">
<title>TA&#45;CONSTRAINTS&#45;&gt;AOU&#45;05</title>
<path fill="none" stroke="black" d="M784.87,-271.86C693.16,-240.01 553.58,-188.5 427.27,-128"/>
<polygon fill="black" stroke="black" points="428.73,-124.82 418.2,-123.63 425.69,-131.13 428.73,-124.82"/>
</g>
<!-- TA&#45;CONSTRAINTS&#45;&gt;AOU&#45;06 -->
<g id="edge4" class="edge">
<title>TA&#45;CONSTRAINTS&#45;&gt;AOU&#45;06</title>
<path fill="none" stroke="black" d="M836.53,-271.88C782.88,-234.45 694.41,-172.73 628.03,-126.42"/>
<polygon fill="black" stroke="black" points="629.85,-123.42 619.64,-120.57 625.84,-129.16 629.85,-123.42"/>
</g>
<!-- TA&#45;CONSTRAINTS&#45;&gt;AOU&#45;07 -->
<g id="edge5" class="edge">
<title>TA&#45;CONSTRAINTS&#45;&gt;AOU&#45;07</title>
<path fill="none" stroke="black" d="M868.13,-271.88C847.61,-229.05 811.84,-154.4 789.34,-107.45"/>
<polygon fill="black" stroke="black" points="792.37,-105.67 784.89,-98.16 786.06,-108.69 792.37,-105.67"/>
</g>
<!-- TA&#45;CONSTRAINTS&#45;&gt;AOU&#45;14 -->
<g id="edge6" class="edge">
<title>TA&#45;CONSTRAINTS&#45;&gt;AOU&#45;14</title>
<path fill="none" stroke="black" d="M900.01,-271.88C919.64,-231.25 953.12,-161.99 975.88,-114.9"/>
<polygon fill="black" stroke="black" points="979.08,-116.32 980.28,-105.8 972.78,-113.28 979.08,-116.32"/>
</g>
<!-- TA&#45;CONSTRAINTS&#45;&gt;AOU&#45;16 -->
<g id="edge7" class="edge">
<title>TA&#45;CONSTRAINTS&#45;&gt;AOU&#45;16</title>
<path fill="none" stroke="black" d="M930.37,-271.88C991.83,-227.98 1100.1,-150.64 1165.43,-103.98"/>
<polygon fill="black" stroke="black" points="1167.47,-106.82 1173.57,-98.16 1163.4,-101.13 1167.47,-106.82"/>
</g>
<!-- TA&#45;CONSTRAINTS&#45;&gt;AOU&#45;20 -->
<g id="edge8" class="edge">
<title>TA&#45;CONSTRAINTS&#45;&gt;AOU&#45;20</title>
<path fill="none" stroke="black" d="M979.35,-271.98C1070.05,-239.35 1209.43,-186.02 1325,-128 1348.23,-116.34 1373.12,-101.19 1392.62,-88.67"/>
<polygon fill="black" stroke="black" points="1394.68,-91.5 1401.17,-83.13 1390.87,-85.63 1394.68,-91.5"/>
</g>
<!-- TA&#45;CONSTRAINTS&#45;&gt;AOU&#45;21 -->
<g id="edge9" class="edge">
<title>TA&#45;CONSTRAINTS&#45;&gt;AOU&#45;21</title>
<path fill="none" stroke="black" d="M999.19,-282.18C1130.72,-254.15 1350.96,-201.15 1531,-128 1548.23,-121 1566.16,-111.99 1582.56,-102.99"/>
<polygon fill="black" stroke="black" points="1584.47,-105.93 1591.5,-98 1581.06,-99.82 1584.47,-105.93"/>
</g>
<!-- TT&#45;EXPECTATIONS&#45;&gt;TA&#45;CONSTRAINTS -->
<g id="edge10" class="edge">
<title>TT&#45;EXPECTATIONS&#45;&gt;TA&#45;CONSTRAINTS</title>
<path fill="none" stroke="black" d="M884,-483.73C884,-444.19 884,-388.73 884,-350.54"/>
<polygon fill="black" stroke="black" points="887.5,-350.25 884,-340.25 880.5,-350.25 887.5,-350.25"/>
</g>
</g>
</svg>
