<?xml version="1.0" encoding="UTF-8" standalone="no"?>
<!DOCTYPE svg PUBLIC "-//W3C//DTD SVG 1.1//EN"
 "http://www.w3.org/Graphics/SVG/1.1/DTD/svg11.dtd">
<!-- Generated by graphviz version 2.43.0 (0)
 -->
<!-- Title: G Pages: 1 -->
<svg width="640pt" height="832pt"
 viewBox="0.00 0.00 639.50 832.00" xmlns="http://www.w3.org/2000/svg" xmlns:xlink="http://www.w3.org/1999/xlink">
<g id="graph0" class="graph" transform="scale(1 1) rotate(0) translate(4 828)">
<title>G</title>
<polygon fill="white" stroke="transparent" points="-4,4 -4,-828 635.5,-828 635.5,4 -4,4"/>
<!-- TRUSTABLE&#45;SOFTWARE -->
<g id="node1" class="node">
<title>TRUSTABLE&#45;SOFTWARE</title>
<g id="a_node1"><a xlink:href="https://score-json.github.io/json/main/_images/TRUSTABLE-SOFTWARE.svg" xlink:title="TRUSTABLE&#45;SOFTWARE: This\nrelease of JSON&#45;Library\nalso reffered in the\ndocumentation as nlohmann/json\nlibrary is Trustable.\n">
<polygon fill="none" stroke="black" points="433.5,-824 185.5,-824 185.5,-741 433.5,-741 433.5,-824"/>
<text text-anchor="middle" x="309.5" y="-808.8" font-family="Open Sans" font-size="14.00">TRUSTABLE&#45;SOFTWARE: This</text>
<text text-anchor="middle" x="309.5" y="-793.8" font-family="Open Sans" font-size="14.00">release of JSON&#45;Library</text>
<text text-anchor="middle" x="309.5" y="-778.8" font-family="Open Sans" font-size="14.00">also reffered in the</text>
<text text-anchor="middle" x="309.5" y="-763.8" font-family="Open Sans" font-size="14.00">documentation as nlohmann/json</text>
<text text-anchor="middle" x="309.5" y="-748.8" font-family="Open Sans" font-size="14.00">library is Trustable.</text>
</a>
</g>
</g>
<!-- TT&#45;CONSTRUCTION -->
<g id="node6" class="node">
<title>TT&#45;CONSTRUCTION</title>
<g id="a_node6"><a xlink:href="https://score-json.github.io/json/main/_images/TT-CONSTRUCTION.svg" xlink:title="TT&#45;CONSTRUCTION: Tools\nare provided to build\nnlohmann/json library\nfrom trusted sources\n(also provided) with\nfull reproducibility.\n">
<polygon fill="none" stroke="black" points="406.5,-597 212.5,-597 212.5,-499 406.5,-499 406.5,-597"/>
<text text-anchor="middle" x="309.5" y="-581.8" font-family="Open Sans" font-size="14.00">TT&#45;CONSTRUCTION: Tools</text>
<text text-anchor="middle" x="309.5" y="-566.8" font-family="Open Sans" font-size="14.00">are provided to build</text>
<text text-anchor="middle" x="309.5" y="-551.8" font-family="Open Sans" font-size="14.00">nlohmann/json library</text>
<text text-anchor="middle" x="309.5" y="-536.8" font-family="Open Sans" font-size="14.00">from trusted sources</text>
<text text-anchor="middle" x="309.5" y="-521.8" font-family="Open Sans" font-size="14.00">(also provided) with</text>
<text text-anchor="middle" x="309.5" y="-506.8" font-family="Open Sans" font-size="14.00">full reproducibility.</text>
</a>
</g>
</g>
<!-- TRUSTABLE&#45;SOFTWARE&#45;&gt;TT&#45;CONSTRUCTION -->
<g id="edge1" class="edge">
<title>TRUSTABLE&#45;SOFTWARE&#45;&gt;TT&#45;CONSTRUCTION</title>
<path fill="none" stroke="black" d="M309.5,-740.74C309.5,-703.88 309.5,-649.18 309.5,-607.63"/>
<polygon fill="black" stroke="black" points="313,-607.37 309.5,-597.37 306,-607.37 313,-607.37"/>
</g>
<!-- AOU&#45;08 -->
<g id="node2" class="node">
<title>AOU&#45;08</title>
<g id="a_node2"><a xlink:href="https://score-json.github.io/json/main/generated/AOU.html#aou-08" xlink:title="AOU&#45;08: The integrator\nensures that all necessary\nsource files and built\ntools are mirrored, e.g.\nusing a built server\nwithout internet access.\n">
<polygon fill="none" stroke="black" points="199,-98 0,-98 0,0 199,0 199,-98"/>
<text text-anchor="middle" x="99.5" y="-82.8" font-family="Open Sans" font-size="14.00">AOU&#45;08: The integrator</text>
<text text-anchor="middle" x="99.5" y="-67.8" font-family="Open Sans" font-size="14.00">ensures that all necessary</text>
<text text-anchor="middle" x="99.5" y="-52.8" font-family="Open Sans" font-size="14.00">source files and built</text>
<text text-anchor="middle" x="99.5" y="-37.8" font-family="Open Sans" font-size="14.00">tools are mirrored, e.g.</text>
<text text-anchor="middle" x="99.5" y="-22.8" font-family="Open Sans" font-size="14.00">using a built server</text>
<text text-anchor="middle" x="99.5" y="-7.8" font-family="Open Sans" font-size="14.00">without internet access.</text>
</a>
</g>
</g>
<!-- JLS&#45;14 -->
<g id="node3" class="node">
<title>JLS&#45;14</title>
<g id="a_node3"><a xlink:href="https://score-json.github.io/json/main/generated/JLS.html#jls-14" xlink:title="JLS&#45;14: The builds are\nrepeatable (i.e. different\nbuilds lead to the same\nSHA value). (TODO) ">
<polygon fill="none" stroke="black" points="401.5,-83 217.5,-83 217.5,-15 401.5,-15 401.5,-83"/>
<text text-anchor="middle" x="309.5" y="-67.8" font-family="Open Sans" font-size="14.00">JLS&#45;14: The builds are</text>
<text text-anchor="middle" x="309.5" y="-52.8" font-family="Open Sans" font-size="14.00">repeatable (i.e. different</text>
<text text-anchor="middle" x="309.5" y="-37.8" font-family="Open Sans" font-size="14.00">builds lead to the same</text>
<text text-anchor="middle" x="309.5" y="-22.8" font-family="Open Sans" font-size="14.00">SHA value). (TODO) </text>
</a>
</g>
</g>
<!-- JLS&#45;21 -->
<g id="node4" class="node">
<title>JLS&#45;21</title>
<g id="a_node4"><a xlink:href="https://score-json.github.io/json/main/generated/JLS.html#jls-21" xlink:title="JLS&#45;21: A score is calculated\nbased on the number of\nmirrored and unmirrored\nthings. (TODO) ">
<polygon fill="none" stroke="black" points="631.5,-83 419.5,-83 419.5,-15 631.5,-15 631.5,-83"/>
<text text-anchor="middle" x="525.5" y="-67.8" font-family="Open Sans" font-size="14.00">JLS&#45;21: A score is calculated</text>
<text text-anchor="middle" x="525.5" y="-52.8" font-family="Open Sans" font-size="14.00">based on the number of</text>
<text text-anchor="middle" x="525.5" y="-37.8" font-family="Open Sans" font-size="14.00">mirrored and unmirrored</text>
<text text-anchor="middle" x="525.5" y="-22.8" font-family="Open Sans" font-size="14.00">things. (TODO) </text>
</a>
</g>
</g>
<!-- TA&#45;RELEASES -->
<g id="node5" class="node">
<title>TA&#45;RELEASES</title>
<g id="a_node5"><a xlink:href="https://score-json.github.io/json/main/_images/TA-RELEASES.svg" xlink:title="TA&#45;RELEASES: Construction\nof nlohmann/json library\nreleases is fully repeatable\nand the results are fully\nreproducible, with any\nexceptions documented\nand justified. ">
<polygon fill="none" stroke="black" points="413.5,-355 205.5,-355 205.5,-242 413.5,-242 413.5,-355"/>
<text text-anchor="middle" x="309.5" y="-339.8" font-family="Open Sans" font-size="14.00">TA&#45;RELEASES: Construction</text>
<text text-anchor="middle" x="309.5" y="-324.8" font-family="Open Sans" font-size="14.00">of nlohmann/json library</text>
<text text-anchor="middle" x="309.5" y="-309.8" font-family="Open Sans" font-size="14.00">releases is fully repeatable</text>
<text text-anchor="middle" x="309.5" y="-294.8" font-family="Open Sans" font-size="14.00">and the results are fully</text>
<text text-anchor="middle" x="309.5" y="-279.8" font-family="Open Sans" font-size="14.00">reproducible, with any</text>
<text text-anchor="middle" x="309.5" y="-264.8" font-family="Open Sans" font-size="14.00">exceptions documented</text>
<text text-anchor="middle" x="309.5" y="-249.8" font-family="Open Sans" font-size="14.00">and justified. </text>
</a>
</g>
</g>
<!-- TA&#45;RELEASES&#45;&gt;AOU&#45;08 -->
<g id="edge4" class="edge">
<title>TA&#45;RELEASES&#45;&gt;AOU&#45;08</title>
<path fill="none" stroke="black" d="M262.37,-241.96C227.95,-201.39 181.46,-146.59 146.96,-105.93"/>
<polygon fill="black" stroke="black" points="149.58,-103.62 140.44,-98.26 144.25,-108.15 149.58,-103.62"/>
</g>
<!-- TA&#45;RELEASES&#45;&gt;JLS&#45;14 -->
<g id="edge2" class="edge">
<title>TA&#45;RELEASES&#45;&gt;JLS&#45;14</title>
<path fill="none" stroke="black" d="M309.5,-241.96C309.5,-197.02 309.5,-134.64 309.5,-93.34"/>
<polygon fill="black" stroke="black" points="313,-93.31 309.5,-83.31 306,-93.31 313,-93.31"/>
</g>
<!-- TA&#45;RELEASES&#45;&gt;JLS&#45;21 -->
<g id="edge3" class="edge">
<title>TA&#45;RELEASES&#45;&gt;JLS&#45;21</title>
<path fill="none" stroke="black" d="M357.97,-241.96C397.94,-196.16 453.71,-132.25 489.72,-91"/>
<polygon fill="black" stroke="black" points="492.49,-93.15 496.43,-83.31 487.21,-88.55 492.49,-93.15"/>
</g>
<!-- TT&#45;CONSTRUCTION&#45;&gt;TA&#45;RELEASES -->
<g id="edge5" class="edge">
<title>TT&#45;CONSTRUCTION&#45;&gt;TA&#45;RELEASES</title>
<path fill="none" stroke="black" d="M309.5,-498.99C309.5,-460.93 309.5,-407.36 309.5,-365.31"/>
<polygon fill="black" stroke="black" points="313,-365.16 309.5,-355.16 306,-365.16 313,-365.16"/>
</g>
</g>
</svg>
