<?xml version="1.0" encoding="UTF-8" standalone="no"?>
<!DOCTYPE svg PUBLIC "-//W3C//DTD SVG 1.1//EN"
 "http://www.w3.org/Graphics/SVG/1.1/DTD/svg11.dtd">
<!-- Generated by graphviz version 2.43.0 (0)
 -->
<!-- Title: G Pages: 1 -->
<svg width="3069pt" height="1408pt"
 viewBox="0.00 0.00 3069.00 1408.00" xmlns="http://www.w3.org/2000/svg" xmlns:xlink="http://www.w3.org/1999/xlink">
<g id="graph0" class="graph" transform="scale(1 1) rotate(0) translate(4 1404)">
<title>G</title>
<polygon fill="white" stroke="transparent" points="-4,4 -4,-1404 3065,-1404 3065,4 -4,4"/>
<!-- TRUSTABLE&#45;SOFTWARE -->
<g id="node1" class="node">
<title>TRUSTABLE&#45;SOFTWARE</title>
<g id="a_node1"><a xlink:href="https://score-json.github.io/json/main/_images/custom_TRUSTABLE-SOFTWARE_graph.svg" xlink:title="TRUSTABLE&#45;SOFTWARE: This\nrelease of JSON&#45;Library\nalso reffered in the\ndocumentation as nlohmann/json\nlibrary is Trustable.\n">
<polygon fill="none" stroke="black" points="1649.5,-1400 1401.5,-1400 1401.5,-1317 1649.5,-1317 1649.5,-1400"/>
<text text-anchor="middle" x="1525.5" y="-1384.8" font-family="Open Sans" font-size="14.00">TRUSTABLE&#45;SOFTWARE: This</text>
<text text-anchor="middle" x="1525.5" y="-1369.8" font-family="Open Sans" font-size="14.00">release of JSON&#45;Library</text>
<text text-anchor="middle" x="1525.5" y="-1354.8" font-family="Open Sans" font-size="14.00">also reffered in the</text>
<text text-anchor="middle" x="1525.5" y="-1339.8" font-family="Open Sans" font-size="14.00">documentation as nlohmann/json</text>
<text text-anchor="middle" x="1525.5" y="-1324.8" font-family="Open Sans" font-size="14.00">library is Trustable.</text>
</a>
</g>
</g>
<!-- TT&#45;EXPECTATIONS -->
<g id="node20" class="node">
<title>TT&#45;EXPECTATIONS</title>
<g id="a_node20"><a xlink:href="https://score-json.github.io/json/main/_images/custom_TT-EXPECTATIONS_graph.svg" xlink:title="TT&#45;EXPECTATIONS: Documentation\nis provided, specifying\nwhat nlohmann/json library\nis expected to do, and\nwhat it must not do,\nand how this is verified.\n">
<polygon fill="none" stroke="black" points="1654,-1173 1397,-1173 1397,-1075 1654,-1075 1654,-1173"/>
<text text-anchor="middle" x="1525.5" y="-1157.8" font-family="Open Sans" font-size="14.00">TT&#45;EXPECTATIONS: Documentation</text>
<text text-anchor="middle" x="1525.5" y="-1142.8" font-family="Open Sans" font-size="14.00">is provided, specifying</text>
<text text-anchor="middle" x="1525.5" y="-1127.8" font-family="Open Sans" font-size="14.00">what nlohmann/json library</text>
<text text-anchor="middle" x="1525.5" y="-1112.8" font-family="Open Sans" font-size="14.00">is expected to do, and</text>
<text text-anchor="middle" x="1525.5" y="-1097.8" font-family="Open Sans" font-size="14.00">what it must not do,</text>
<text text-anchor="middle" x="1525.5" y="-1082.8" font-family="Open Sans" font-size="14.00">and how this is verified.</text>
</a>
</g>
</g>
<!-- TRUSTABLE&#45;SOFTWARE&#45;&gt;TT&#45;EXPECTATIONS -->
<g id="edge1" class="edge">
<title>TRUSTABLE&#45;SOFTWARE&#45;&gt;TT&#45;EXPECTATIONS</title>
<path fill="none" stroke="black" d="M1525.5,-1316.74C1525.5,-1279.88 1525.5,-1225.18 1525.5,-1183.63"/>
<polygon fill="black" stroke="black" points="1529,-1183.37 1525.5,-1173.37 1522,-1183.37 1529,-1183.37"/>
</g>
<!-- AOU&#45;22 -->
<g id="node2" class="node">
<title>AOU&#45;22</title>
<g id="a_node2"><a xlink:href="https://score-json.github.io/json/main/generated/AOU.html#aou-22" xlink:title="AOU&#45;22: Numbers are written\nin base 10. ">
<polygon fill="none" stroke="black" points="223,-68 0,-68 0,-30 223,-30 223,-68"/>
<text text-anchor="middle" x="111.5" y="-52.8" font-family="Open Sans" font-size="14.00">AOU&#45;22: Numbers are written</text>
<text text-anchor="middle" x="111.5" y="-37.8" font-family="Open Sans" font-size="14.00">in base 10. </text>
</a>
</g>
</g>
<!-- JLEX&#45;02 -->
<g id="node3" class="node">
<title>JLEX&#45;02</title>
<g id="a_node3"><a xlink:href="https://score-json.github.io/json/main/_images/custom_JLEX-02_graph.svg" xlink:title="JLEX&#45;02: The requirement\nregarding [JSON Deserialization](https://eclipse&#45;score.github.io/score/main/modules/baselibs/json/docs/requirements/index.html#comp_req__json__deserialization)\nis fulfilled. ">
<polygon fill="none" stroke="black" points="2096.5,-689 954.5,-689 954.5,-636 2096.5,-636 2096.5,-689"/>
<text text-anchor="middle" x="1525.5" y="-673.8" font-family="Open Sans" font-size="14.00">JLEX&#45;02: The requirement</text>
<text text-anchor="middle" x="1525.5" y="-658.8" font-family="Open Sans" font-size="14.00">regarding [JSON Deserialization](https://eclipse&#45;score.github.io/score/main/modules/baselibs/json/docs/requirements/index.html#comp_req__json__deserialization)</text>
<text text-anchor="middle" x="1525.5" y="-643.8" font-family="Open Sans" font-size="14.00">is fulfilled. </text>
</a>
</g>
</g>
<!-- PJD&#45;03 -->
<g id="node17" class="node">
<title>PJD&#45;03</title>
<g id="a_node17"><a xlink:href="https://score-json.github.io/json/main/_images/custom_PJD-03_graph.svg" xlink:title="PJD&#45;03: The service parses\nall texts that conform\nto the JSON grammar.\n">
<polygon fill="none" stroke="black" points="1627,-492 1424,-492 1424,-439 1627,-439 1627,-492"/>
<text text-anchor="middle" x="1525.5" y="-476.8" font-family="Open Sans" font-size="14.00">PJD&#45;03: The service parses</text>
<text text-anchor="middle" x="1525.5" y="-461.8" font-family="Open Sans" font-size="14.00">all texts that conform</text>
<text text-anchor="middle" x="1525.5" y="-446.8" font-family="Open Sans" font-size="14.00">to the JSON grammar.</text>
</a>
</g>
</g>
<!-- JLEX&#45;02&#45;&gt;PJD&#45;03 -->
<g id="edge2" class="edge">
<title>JLEX&#45;02&#45;&gt;PJD&#45;03</title>
<path fill="none" stroke="black" d="M1525.5,-635.61C1525.5,-601.42 1525.5,-541.06 1525.5,-502.46"/>
<polygon fill="black" stroke="black" points="1529,-502.19 1525.5,-492.19 1522,-502.19 1529,-502.19"/>
</g>
<!-- NPF&#45;02 -->
<g id="node4" class="node">
<title>NPF&#45;02</title>
<g id="a_node4"><a xlink:href="https://score-json.github.io/json/main/_images/custom_NPF-02_graph.svg" xlink:title="NPF&#45;02: The service parses\nnumbers according to\nRFC8259. ">
<polygon fill="none" stroke="black" points="1628.5,-295 1422.5,-295 1422.5,-242 1628.5,-242 1628.5,-295"/>
<text text-anchor="middle" x="1525.5" y="-279.8" font-family="Open Sans" font-size="14.00">NPF&#45;02: The service parses</text>
<text text-anchor="middle" x="1525.5" y="-264.8" font-family="Open Sans" font-size="14.00">numbers according to</text>
<text text-anchor="middle" x="1525.5" y="-249.8" font-family="Open Sans" font-size="14.00">RFC8259. </text>
</a>
</g>
</g>
<!-- NPF&#45;02&#45;&gt;AOU&#45;22 -->
<g id="edge11" class="edge">
<title>NPF&#45;02&#45;&gt;AOU&#45;22</title>
<path fill="none" stroke="black" d="M1422.44,-262.64C1201.23,-250.34 665.84,-210.5 232.5,-98 207.73,-91.57 181.2,-81.44 159.31,-72.13"/>
<polygon fill="black" stroke="black" points="160.48,-68.83 149.92,-68.07 157.71,-75.25 160.48,-68.83"/>
</g>
<!-- NPF&#45;02.1 -->
<g id="node5" class="node">
<title>NPF&#45;02.1</title>
<g id="a_node5"><a xlink:href="https://score-json.github.io/json/main/generated/NPF.html#npf-02.1" xlink:title="NPF&#45;02.1: The service\nparses integers without\nexponent within the precision\nof int64_t. ">
<polygon fill="none" stroke="black" points="463.5,-83 241.5,-83 241.5,-15 463.5,-15 463.5,-83"/>
<text text-anchor="middle" x="352.5" y="-67.8" font-family="Open Sans" font-size="14.00">NPF&#45;02.1: The service</text>
<text text-anchor="middle" x="352.5" y="-52.8" font-family="Open Sans" font-size="14.00">parses integers without</text>
<text text-anchor="middle" x="352.5" y="-37.8" font-family="Open Sans" font-size="14.00">exponent within the precision</text>
<text text-anchor="middle" x="352.5" y="-22.8" font-family="Open Sans" font-size="14.00">of int64_t. </text>
</a>
</g>
</g>
<!-- NPF&#45;02&#45;&gt;NPF&#45;02.1 -->
<g id="edge3" class="edge">
<title>NPF&#45;02&#45;&gt;NPF&#45;02.1</title>
<path fill="none" stroke="black" d="M1422.24,-258.52C1231.75,-240.27 813.35,-192.35 472.5,-98 461.01,-94.82 449.12,-90.89 437.5,-86.67"/>
<polygon fill="black" stroke="black" points="438.4,-83.27 427.81,-83.05 435.95,-89.83 438.4,-83.27"/>
</g>
<!-- NPF&#45;02.10 -->
<g id="node6" class="node">
<title>NPF&#45;02.10</title>
<g id="a_node6"><a xlink:href="https://score-json.github.io/json/main/generated/NPF.html#npf-02.10" xlink:title="NPF&#45;02.10: The service\nignores trailing zeroes\nafter the decimal point.\n">
<polygon fill="none" stroke="black" points="661,-75.5 482,-75.5 482,-22.5 661,-22.5 661,-75.5"/>
<text text-anchor="middle" x="571.5" y="-60.3" font-family="Open Sans" font-size="14.00">NPF&#45;02.10: The service</text>
<text text-anchor="middle" x="571.5" y="-45.3" font-family="Open Sans" font-size="14.00">ignores trailing zeroes</text>
<text text-anchor="middle" x="571.5" y="-30.3" font-family="Open Sans" font-size="14.00">after the decimal point.</text>
</a>
</g>
</g>
<!-- NPF&#45;02&#45;&gt;NPF&#45;02.10 -->
<g id="edge13" class="edge">
<title>NPF&#45;02&#45;&gt;NPF&#45;02.10</title>
<path fill="none" stroke="black" d="M1422.3,-255.7C1259.36,-235.17 933.95,-186.35 670.5,-98 656.23,-93.21 641.36,-86.82 627.62,-80.27"/>
<polygon fill="black" stroke="black" points="628.82,-76.97 618.3,-75.73 625.75,-83.26 628.82,-76.97"/>
</g>
<!-- NPF&#45;02.11 -->
<g id="node7" class="node">
<title>NPF&#45;02.11</title>
<g id="a_node7"><a xlink:href="https://score-json.github.io/json/main/generated/NPF.html#npf-02.11" xlink:title="NPF&#45;02.11: The service\nparses numbers within\nthe 64&#45;bit double range\nbut outside of the double\nprecision without throwing\nan exception. ">
<polygon fill="none" stroke="black" points="879.5,-98 679.5,-98 679.5,0 879.5,0 879.5,-98"/>
<text text-anchor="middle" x="779.5" y="-82.8" font-family="Open Sans" font-size="14.00">NPF&#45;02.11: The service</text>
<text text-anchor="middle" x="779.5" y="-67.8" font-family="Open Sans" font-size="14.00">parses numbers within</text>
<text text-anchor="middle" x="779.5" y="-52.8" font-family="Open Sans" font-size="14.00">the 64&#45;bit double range</text>
<text text-anchor="middle" x="779.5" y="-37.8" font-family="Open Sans" font-size="14.00">but outside of the double</text>
<text text-anchor="middle" x="779.5" y="-22.8" font-family="Open Sans" font-size="14.00">precision without throwing</text>
<text text-anchor="middle" x="779.5" y="-7.8" font-family="Open Sans" font-size="14.00">an exception. </text>
</a>
</g>
</g>
<!-- NPF&#45;02&#45;&gt;NPF&#45;02.11 -->
<g id="edge14" class="edge">
<title>NPF&#45;02&#45;&gt;NPF&#45;02.11</title>
<path fill="none" stroke="black" d="M1422.25,-245.21C1297.13,-217.05 1080.36,-164.52 889.29,-98.17"/>
<polygon fill="black" stroke="black" points="890.23,-94.79 879.64,-94.79 887.93,-101.4 890.23,-94.79"/>
</g>
<!-- NPF&#45;02.12 -->
<g id="node8" class="node">
<title>NPF&#45;02.12</title>
<g id="a_node8"><a xlink:href="https://score-json.github.io/json/main/generated/NPF.html#npf-02.12" xlink:title="NPF&#45;02.12: The service\nignores capitalisation\nof the exponent. ">
<polygon fill="none" stroke="black" points="1075.5,-75.5 897.5,-75.5 897.5,-22.5 1075.5,-22.5 1075.5,-75.5"/>
<text text-anchor="middle" x="986.5" y="-60.3" font-family="Open Sans" font-size="14.00">NPF&#45;02.12: The service</text>
<text text-anchor="middle" x="986.5" y="-45.3" font-family="Open Sans" font-size="14.00">ignores capitalisation</text>
<text text-anchor="middle" x="986.5" y="-30.3" font-family="Open Sans" font-size="14.00">of the exponent. </text>
</a>
</g>
</g>
<!-- NPF&#45;02&#45;&gt;NPF&#45;02.12 -->
<g id="edge15" class="edge">
<title>NPF&#45;02&#45;&gt;NPF&#45;02.12</title>
<path fill="none" stroke="black" d="M1453.29,-241.98C1365.3,-210.36 1212.5,-153.82 1084.5,-98 1071.78,-92.45 1058.32,-86.15 1045.59,-79.99"/>
<polygon fill="black" stroke="black" points="1046.98,-76.77 1036.46,-75.53 1043.91,-83.06 1046.98,-76.77"/>
</g>
<!-- NPF&#45;02.2 -->
<g id="node9" class="node">
<title>NPF&#45;02.2</title>
<g id="a_node9"><a xlink:href="https://score-json.github.io/json/main/generated/NPF.html#npf-02.2" xlink:title="NPF&#45;02.2: The service\nparses integers with\nexponent within the precision\nof 64&#45;bit double. ">
<polygon fill="none" stroke="black" points="1315.5,-83 1093.5,-83 1093.5,-15 1315.5,-15 1315.5,-83"/>
<text text-anchor="middle" x="1204.5" y="-67.8" font-family="Open Sans" font-size="14.00">NPF&#45;02.2: The service</text>
<text text-anchor="middle" x="1204.5" y="-52.8" font-family="Open Sans" font-size="14.00">parses integers with</text>
<text text-anchor="middle" x="1204.5" y="-37.8" font-family="Open Sans" font-size="14.00">exponent within the precision</text>
<text text-anchor="middle" x="1204.5" y="-22.8" font-family="Open Sans" font-size="14.00">of 64&#45;bit double. </text>
</a>
</g>
</g>
<!-- NPF&#45;02&#45;&gt;NPF&#45;02.2 -->
<g id="edge4" class="edge">
<title>NPF&#45;02&#45;&gt;NPF&#45;02.2</title>
<path fill="none" stroke="black" d="M1487.73,-241.91C1431.98,-204.14 1327.22,-133.15 1261.92,-88.91"/>
<polygon fill="black" stroke="black" points="1263.62,-85.83 1253.37,-83.12 1259.69,-91.62 1263.62,-85.83"/>
</g>
<!-- NPF&#45;02.3 -->
<g id="node10" class="node">
<title>NPF&#45;02.3</title>
<g id="a_node10"><a xlink:href="https://score-json.github.io/json/main/generated/NPF.html#npf-02.3" xlink:title="NPF&#45;02.3: The service\nparses floating point\nvalues without exponent\nwithin the precision\nof 64&#45;bit double. ">
<polygon fill="none" stroke="black" points="1521.5,-90.5 1333.5,-90.5 1333.5,-7.5 1521.5,-7.5 1521.5,-90.5"/>
<text text-anchor="middle" x="1427.5" y="-75.3" font-family="Open Sans" font-size="14.00">NPF&#45;02.3: The service</text>
<text text-anchor="middle" x="1427.5" y="-60.3" font-family="Open Sans" font-size="14.00">parses floating point</text>
<text text-anchor="middle" x="1427.5" y="-45.3" font-family="Open Sans" font-size="14.00">values without exponent</text>
<text text-anchor="middle" x="1427.5" y="-30.3" font-family="Open Sans" font-size="14.00">within the precision</text>
<text text-anchor="middle" x="1427.5" y="-15.3" font-family="Open Sans" font-size="14.00">of 64&#45;bit double. </text>
</a>
</g>
</g>
<!-- NPF&#45;02&#45;&gt;NPF&#45;02.3 -->
<g id="edge5" class="edge">
<title>NPF&#45;02&#45;&gt;NPF&#45;02.3</title>
<path fill="none" stroke="black" d="M1513.87,-241.7C1498.16,-206.82 1469.82,-143.92 1449.89,-99.7"/>
<polygon fill="black" stroke="black" points="1453.08,-98.25 1445.78,-90.57 1446.7,-101.12 1453.08,-98.25"/>
</g>
<!-- NPF&#45;02.4 -->
<g id="node11" class="node">
<title>NPF&#45;02.4</title>
<g id="a_node11"><a xlink:href="https://score-json.github.io/json/main/generated/NPF.html#npf-02.4" xlink:title="NPF&#45;02.4: The service\nparses floating point\nvalues with exponent\nwithin the precision\nof 64&#45;bit double. ">
<polygon fill="none" stroke="black" points="1709,-90.5 1540,-90.5 1540,-7.5 1709,-7.5 1709,-90.5"/>
<text text-anchor="middle" x="1624.5" y="-75.3" font-family="Open Sans" font-size="14.00">NPF&#45;02.4: The service</text>
<text text-anchor="middle" x="1624.5" y="-60.3" font-family="Open Sans" font-size="14.00">parses floating point</text>
<text text-anchor="middle" x="1624.5" y="-45.3" font-family="Open Sans" font-size="14.00">values with exponent</text>
<text text-anchor="middle" x="1624.5" y="-30.3" font-family="Open Sans" font-size="14.00">within the precision</text>
<text text-anchor="middle" x="1624.5" y="-15.3" font-family="Open Sans" font-size="14.00">of 64&#45;bit double. </text>
</a>
</g>
</g>
<!-- NPF&#45;02&#45;&gt;NPF&#45;02.4 -->
<g id="edge6" class="edge">
<title>NPF&#45;02&#45;&gt;NPF&#45;02.4</title>
<path fill="none" stroke="black" d="M1537.25,-241.7C1553.12,-206.82 1581.75,-143.92 1601.88,-99.7"/>
<polygon fill="black" stroke="black" points="1605.08,-101.12 1606.03,-90.57 1598.71,-98.22 1605.08,-101.12"/>
</g>
<!-- NPF&#45;02.5 -->
<g id="node12" class="node">
<title>NPF&#45;02.5</title>
<g id="a_node12"><a xlink:href="https://score-json.github.io/json/main/generated/NPF.html#npf-02.5" xlink:title="NPF&#45;02.5: The service\nignores leading zeroes\nin the exponent. ">
<polygon fill="none" stroke="black" points="1900,-75.5 1727,-75.5 1727,-22.5 1900,-22.5 1900,-75.5"/>
<text text-anchor="middle" x="1813.5" y="-60.3" font-family="Open Sans" font-size="14.00">NPF&#45;02.5: The service</text>
<text text-anchor="middle" x="1813.5" y="-45.3" font-family="Open Sans" font-size="14.00">ignores leading zeroes</text>
<text text-anchor="middle" x="1813.5" y="-30.3" font-family="Open Sans" font-size="14.00">in the exponent. </text>
</a>
</g>
</g>
<!-- NPF&#45;02&#45;&gt;NPF&#45;02.5 -->
<g id="edge7" class="edge">
<title>NPF&#45;02&#45;&gt;NPF&#45;02.5</title>
<path fill="none" stroke="black" d="M1559.38,-241.91C1612.1,-202.1 1713.67,-125.39 1771.15,-81.98"/>
<polygon fill="black" stroke="black" points="1773.43,-84.65 1779.3,-75.83 1769.21,-79.06 1773.43,-84.65"/>
</g>
<!-- NPF&#45;02.6 -->
<g id="node13" class="node">
<title>NPF&#45;02.6</title>
<g id="a_node13"><a xlink:href="https://score-json.github.io/json/main/generated/NPF.html#npf-02.6" xlink:title="NPF&#45;02.6: The service\nparses integers within\nIEEE 754&#45;2008 binary64.\n">
<polygon fill="none" stroke="black" points="2110.5,-75.5 1918.5,-75.5 1918.5,-22.5 2110.5,-22.5 2110.5,-75.5"/>
<text text-anchor="middle" x="2014.5" y="-60.3" font-family="Open Sans" font-size="14.00">NPF&#45;02.6: The service</text>
<text text-anchor="middle" x="2014.5" y="-45.3" font-family="Open Sans" font-size="14.00">parses integers within</text>
<text text-anchor="middle" x="2014.5" y="-30.3" font-family="Open Sans" font-size="14.00">IEEE 754&#45;2008 binary64.</text>
</a>
</g>
</g>
<!-- NPF&#45;02&#45;&gt;NPF&#45;02.6 -->
<g id="edge8" class="edge">
<title>NPF&#45;02&#45;&gt;NPF&#45;02.6</title>
<path fill="none" stroke="black" d="M1584.16,-241.89C1659.57,-208.91 1794.5,-149.66 1909.5,-98 1922.57,-92.13 1936.53,-85.79 1949.87,-79.71"/>
<polygon fill="black" stroke="black" points="1951.34,-82.88 1958.98,-75.55 1948.43,-76.52 1951.34,-82.88"/>
</g>
<!-- NPF&#45;02.7 -->
<g id="node14" class="node">
<title>NPF&#45;02.7</title>
<g id="a_node14"><a xlink:href="https://score-json.github.io/json/main/generated/NPF.html#npf-02.7" xlink:title="NPF&#45;02.7: The service\nignores leading and trailing\nwhitespace. ">
<polygon fill="none" stroke="black" points="2336,-75.5 2129,-75.5 2129,-22.5 2336,-22.5 2336,-75.5"/>
<text text-anchor="middle" x="2232.5" y="-60.3" font-family="Open Sans" font-size="14.00">NPF&#45;02.7: The service</text>
<text text-anchor="middle" x="2232.5" y="-45.3" font-family="Open Sans" font-size="14.00">ignores leading and trailing</text>
<text text-anchor="middle" x="2232.5" y="-30.3" font-family="Open Sans" font-size="14.00">whitespace. </text>
</a>
</g>
</g>
<!-- NPF&#45;02&#45;&gt;NPF&#45;02.7 -->
<g id="edge9" class="edge">
<title>NPF&#45;02&#45;&gt;NPF&#45;02.7</title>
<path fill="none" stroke="black" d="M1628.67,-242.2C1748.11,-211.96 1950.14,-157.87 2119.5,-98 2134.98,-92.53 2151.37,-86 2166.72,-79.56"/>
<polygon fill="black" stroke="black" points="2168.3,-82.69 2176.13,-75.56 2165.56,-76.25 2168.3,-82.69"/>
</g>
<!-- NPF&#45;02.8 -->
<g id="node15" class="node">
<title>NPF&#45;02.8</title>
<g id="a_node15"><a xlink:href="https://score-json.github.io/json/main/generated/NPF.html#npf-02.8" xlink:title="NPF&#45;02.8: The service\nignores one singular\nleading plus of the exponent.\n">
<polygon fill="none" stroke="black" points="2575,-75.5 2354,-75.5 2354,-22.5 2575,-22.5 2575,-75.5"/>
<text text-anchor="middle" x="2464.5" y="-60.3" font-family="Open Sans" font-size="14.00">NPF&#45;02.8: The service</text>
<text text-anchor="middle" x="2464.5" y="-45.3" font-family="Open Sans" font-size="14.00">ignores one singular</text>
<text text-anchor="middle" x="2464.5" y="-30.3" font-family="Open Sans" font-size="14.00">leading plus of the exponent.</text>
</a>
</g>
</g>
<!-- NPF&#45;02&#45;&gt;NPF&#45;02.8 -->
<g id="edge10" class="edge">
<title>NPF&#45;02&#45;&gt;NPF&#45;02.8</title>
<path fill="none" stroke="black" d="M1628.6,-252.29C1785.48,-227.79 2092.6,-174.47 2345.5,-98 2362.61,-92.83 2380.69,-86.18 2397.45,-79.49"/>
<polygon fill="black" stroke="black" points="2399.19,-82.56 2407.14,-75.56 2396.56,-76.07 2399.19,-82.56"/>
</g>
<!-- NPF&#45;02.9 -->
<g id="node16" class="node">
<title>NPF&#45;02.9</title>
<g id="a_node16"><a xlink:href="https://score-json.github.io/json/main/generated/NPF.html#npf-02.9" xlink:title="NPF&#45;02.9: The service\nparses floating point\nnumbers within IEEE 754&#45;2008\nbinary64 standard. ">
<polygon fill="none" stroke="black" points="2827.5,-83 2593.5,-83 2593.5,-15 2827.5,-15 2827.5,-83"/>
<text text-anchor="middle" x="2710.5" y="-67.8" font-family="Open Sans" font-size="14.00">NPF&#45;02.9: The service</text>
<text text-anchor="middle" x="2710.5" y="-52.8" font-family="Open Sans" font-size="14.00">parses floating point</text>
<text text-anchor="middle" x="2710.5" y="-37.8" font-family="Open Sans" font-size="14.00">numbers within IEEE 754&#45;2008</text>
<text text-anchor="middle" x="2710.5" y="-22.8" font-family="Open Sans" font-size="14.00">binary64 standard. </text>
</a>
</g>
</g>
<!-- NPF&#45;02&#45;&gt;NPF&#45;02.9 -->
<g id="edge12" class="edge">
<title>NPF&#45;02&#45;&gt;NPF&#45;02.9</title>
<path fill="none" stroke="black" d="M1628.83,-258.08C1819.99,-239.08 2240.72,-189.95 2584.5,-98 2596.54,-94.78 2609.03,-90.82 2621.25,-86.57"/>
<polygon fill="black" stroke="black" points="2622.74,-89.76 2630.99,-83.11 2620.39,-83.16 2622.74,-89.76"/>
</g>
<!-- PJD&#45;04 -->
<g id="node18" class="node">
<title>PJD&#45;04</title>
<g id="a_node18"><a xlink:href="https://score-json.github.io/json/main/generated/PJD.html#pjd-04" xlink:title="PJD&#45;04: The service correctly\nparses 64&#45;bit integers\n(exceeding the range\ndefined in RFC8259).\n">
<polygon fill="none" stroke="black" points="3061,-83 2846,-83 2846,-15 3061,-15 3061,-83"/>
<text text-anchor="middle" x="2953.5" y="-67.8" font-family="Open Sans" font-size="14.00">PJD&#45;04: The service correctly</text>
<text text-anchor="middle" x="2953.5" y="-52.8" font-family="Open Sans" font-size="14.00">parses 64&#45;bit integers</text>
<text text-anchor="middle" x="2953.5" y="-37.8" font-family="Open Sans" font-size="14.00">(exceeding the range</text>
<text text-anchor="middle" x="2953.5" y="-22.8" font-family="Open Sans" font-size="14.00">defined in RFC8259).</text>
</a>
</g>
</g>
<!-- NPF&#45;02&#45;&gt;PJD&#45;04 -->
<g id="edge16" class="edge">
<title>NPF&#45;02&#45;&gt;PJD&#45;04</title>
<path fill="none" stroke="black" d="M1628.82,-263.28C1852.53,-252.17 2396.97,-214.43 2836.5,-98 2848.02,-94.95 2859.92,-91.03 2871.52,-86.75"/>
<polygon fill="black" stroke="black" points="2873.07,-89.91 2881.17,-83.09 2870.58,-83.36 2873.07,-89.91"/>
</g>
<!-- PJD&#45;03&#45;&gt;NPF&#45;02 -->
<g id="edge17" class="edge">
<title>PJD&#45;03&#45;&gt;NPF&#45;02</title>
<path fill="none" stroke="black" d="M1525.5,-438.61C1525.5,-404.42 1525.5,-344.06 1525.5,-305.46"/>
<polygon fill="black" stroke="black" points="1529,-305.19 1525.5,-295.19 1522,-305.19 1529,-305.19"/>
</g>
<!-- TA&#45;BEHAVIOURS -->
<g id="node19" class="node">
<title>TA&#45;BEHAVIOURS</title>
<g id="a_node19"><a xlink:href="https://score-json.github.io/json/main/_images/custom_TA-BEHAVIOURS_graph.svg" xlink:title="TA&#45;BEHAVIOURS: Expected\nor required behaviours\nfor nlohmann/json library\nare identified, specified,\nverified and validated\nbased on analysis. ">
<polygon fill="none" stroke="black" points="1627.5,-931 1423.5,-931 1423.5,-833 1627.5,-833 1627.5,-931"/>
<text text-anchor="middle" x="1525.5" y="-915.8" font-family="Open Sans" font-size="14.00">TA&#45;BEHAVIOURS: Expected</text>
<text text-anchor="middle" x="1525.5" y="-900.8" font-family="Open Sans" font-size="14.00">or required behaviours</text>
<text text-anchor="middle" x="1525.5" y="-885.8" font-family="Open Sans" font-size="14.00">for nlohmann/json library</text>
<text text-anchor="middle" x="1525.5" y="-870.8" font-family="Open Sans" font-size="14.00">are identified, specified,</text>
<text text-anchor="middle" x="1525.5" y="-855.8" font-family="Open Sans" font-size="14.00">verified and validated</text>
<text text-anchor="middle" x="1525.5" y="-840.8" font-family="Open Sans" font-size="14.00">based on analysis. </text>
</a>
</g>
</g>
<!-- TA&#45;BEHAVIOURS&#45;&gt;JLEX&#45;02 -->
<g id="edge18" class="edge">
<title>TA&#45;BEHAVIOURS&#45;&gt;JLEX&#45;02</title>
<path fill="none" stroke="black" d="M1525.5,-833C1525.5,-792.58 1525.5,-735.67 1525.5,-699.18"/>
<polygon fill="black" stroke="black" points="1529,-699.01 1525.5,-689.01 1522,-699.01 1529,-699.01"/>
</g>
<!-- TT&#45;EXPECTATIONS&#45;&gt;TA&#45;BEHAVIOURS -->
<g id="edge19" class="edge">
<title>TT&#45;EXPECTATIONS&#45;&gt;TA&#45;BEHAVIOURS</title>
<path fill="none" stroke="black" d="M1525.5,-1074.72C1525.5,-1036.23 1525.5,-982.2 1525.5,-941.3"/>
<polygon fill="black" stroke="black" points="1529,-941.2 1525.5,-931.2 1522,-941.2 1529,-941.2"/>
</g>
</g>
</svg>
