<?xml version="1.0" encoding="UTF-8" standalone="no"?>
<!DOCTYPE svg PUBLIC "-//W3C//DTD SVG 1.1//EN"
 "http://www.w3.org/Graphics/SVG/1.1/DTD/svg11.dtd">
<!-- Generated by graphviz version 2.43.0 (0)
 -->
<!-- Title: G Pages: 1 -->
<svg width="637pt" height="787pt"
 viewBox="0.00 0.00 636.50 787.00" xmlns="http://www.w3.org/2000/svg" xmlns:xlink="http://www.w3.org/1999/xlink">
<g id="graph0" class="graph" transform="scale(1 1) rotate(0) translate(4 783)">
<title>G</title>
<polygon fill="white" stroke="transparent" points="-4,4 -4,-783 632.5,-783 632.5,4 -4,4"/>
<!-- TRUSTABLE&#45;SOFTWARE -->
<g id="node1" class="node">
<title>TRUSTABLE&#45;SOFTWARE</title>
<g id="a_node1"><a xlink:href="https://score-json.github.io/json/main/_images/custom_TRUSTABLE-SOFTWARE_graph.svg" xlink:title="TRUSTABLE&#45;SOFTWARE: This\nrelease of JSON&#45;Library\nalso reffered in the\ndocumentation as nlohmann/json\nlibrary is Trustable.\n">
<polygon fill="none" stroke="black" points="434,-779 186,-779 186,-696 434,-696 434,-779"/>
<text text-anchor="middle" x="310" y="-763.8" font-family="Open Sans" font-size="14.00">TRUSTABLE&#45;SOFTWARE: This</text>
<text text-anchor="middle" x="310" y="-748.8" font-family="Open Sans" font-size="14.00">release of JSON&#45;Library</text>
<text text-anchor="middle" x="310" y="-733.8" font-family="Open Sans" font-size="14.00">also reffered in the</text>
<text text-anchor="middle" x="310" y="-718.8" font-family="Open Sans" font-size="14.00">documentation as nlohmann/json</text>
<text text-anchor="middle" x="310" y="-703.8" font-family="Open Sans" font-size="14.00">library is Trustable.</text>
</a>
</g>
</g>
<!-- TT&#45;RESULTS -->
<g id="node6" class="node">
<title>TT&#45;RESULTS</title>
<g id="a_node6"><a xlink:href="https://score-json.github.io/json/main/_images/custom_TT-RESULTS_graph.svg" xlink:title="TT&#45;RESULTS: Evidence\nis provided to demonstrate\nthat nlohmann/json library\ndoes what it is supposed\nto do, and does not do\nwhat it must not do.\n">
<polygon fill="none" stroke="black" points="412,-552 208,-552 208,-454 412,-454 412,-552"/>
<text text-anchor="middle" x="310" y="-536.8" font-family="Open Sans" font-size="14.00">TT&#45;RESULTS: Evidence</text>
<text text-anchor="middle" x="310" y="-521.8" font-family="Open Sans" font-size="14.00">is provided to demonstrate</text>
<text text-anchor="middle" x="310" y="-506.8" font-family="Open Sans" font-size="14.00">that nlohmann/json library</text>
<text text-anchor="middle" x="310" y="-491.8" font-family="Open Sans" font-size="14.00">does what it is supposed</text>
<text text-anchor="middle" x="310" y="-476.8" font-family="Open Sans" font-size="14.00">to do, and does not do</text>
<text text-anchor="middle" x="310" y="-461.8" font-family="Open Sans" font-size="14.00">what it must not do.</text>
</a>
</g>
</g>
<!-- TRUSTABLE&#45;SOFTWARE&#45;&gt;TT&#45;RESULTS -->
<g id="edge1" class="edge">
<title>TRUSTABLE&#45;SOFTWARE&#45;&gt;TT&#45;RESULTS</title>
<path fill="none" stroke="black" d="M310,-695.74C310,-658.88 310,-604.18 310,-562.63"/>
<polygon fill="black" stroke="black" points="313.5,-562.37 310,-552.37 306.5,-562.37 313.5,-562.37"/>
</g>
<!-- AOU&#45;19 -->
<g id="node2" class="node">
<title>AOU&#45;19</title>
<g id="a_node2"><a xlink:href="https://score-json.github.io/json/main/generated/AOU.html#aou-19" xlink:title="AOU&#45;19: The integrator\nensures that monitoring\ndata is systematically\nanalyzed to detect trends\nand identify issues.\n">
<polygon fill="none" stroke="black" points="194,-83 0,-83 0,0 194,0 194,-83"/>
<text text-anchor="middle" x="97" y="-67.8" font-family="Open Sans" font-size="14.00">AOU&#45;19: The integrator</text>
<text text-anchor="middle" x="97" y="-52.8" font-family="Open Sans" font-size="14.00">ensures that monitoring</text>
<text text-anchor="middle" x="97" y="-37.8" font-family="Open Sans" font-size="14.00">data is systematically</text>
<text text-anchor="middle" x="97" y="-22.8" font-family="Open Sans" font-size="14.00">analyzed to detect trends</text>
<text text-anchor="middle" x="97" y="-7.8" font-family="Open Sans" font-size="14.00">and identify issues.</text>
</a>
</g>
</g>
<!-- JLS&#45;17 -->
<g id="node3" class="node">
<title>JLS&#45;17</title>
<g id="a_node3"><a xlink:href="https://score-json.github.io/json/main/generated/JLS.html#jls-17" xlink:title="JLS&#45;17: A github workflow\ncalculates the fraction\nof expectations covered\nby tests (TODO). ">
<polygon fill="none" stroke="black" points="408,-75.5 212,-75.5 212,-7.5 408,-7.5 408,-75.5"/>
<text text-anchor="middle" x="310" y="-60.3" font-family="Open Sans" font-size="14.00">JLS&#45;17: A github workflow</text>
<text text-anchor="middle" x="310" y="-45.3" font-family="Open Sans" font-size="14.00">calculates the fraction</text>
<text text-anchor="middle" x="310" y="-30.3" font-family="Open Sans" font-size="14.00">of expectations covered</text>
<text text-anchor="middle" x="310" y="-15.3" font-family="Open Sans" font-size="14.00">by tests (TODO). </text>
</a>
</g>
</g>
<!-- JLS&#45;26 -->
<g id="node4" class="node">
<title>JLS&#45;26</title>
<g id="a_node4"><a xlink:href="https://score-json.github.io/json/main/generated/JLS.html#jls-26" xlink:title="JLS&#45;26: Pipeline execution\nresults are analyzed\nin the fork and the original\nnlohmann/json repository.\n">
<polygon fill="none" stroke="black" points="628.5,-75.5 425.5,-75.5 425.5,-7.5 628.5,-7.5 628.5,-75.5"/>
<text text-anchor="middle" x="527" y="-60.3" font-family="Open Sans" font-size="14.00">JLS&#45;26: Pipeline execution</text>
<text text-anchor="middle" x="527" y="-45.3" font-family="Open Sans" font-size="14.00">results are analyzed</text>
<text text-anchor="middle" x="527" y="-30.3" font-family="Open Sans" font-size="14.00">in the fork and the original</text>
<text text-anchor="middle" x="527" y="-15.3" font-family="Open Sans" font-size="14.00">nlohmann/json repository.</text>
</a>
</g>
</g>
<!-- TA&#45;ANALYSIS -->
<g id="node5" class="node">
<title>TA&#45;ANALYSIS</title>
<g id="a_node5"><a xlink:href="https://score-json.github.io/json/main/_images/custom_TA-ANALYSIS_graph.svg" xlink:title="TA&#45;ANALYSIS: Collected\ndata from tests and monitoring\nof deployed software\nis analysed according\nto specified objectives.\n">
<polygon fill="none" stroke="black" points="426.5,-310 193.5,-310 193.5,-227 426.5,-227 426.5,-310"/>
<text text-anchor="middle" x="310" y="-294.8" font-family="Open Sans" font-size="14.00">TA&#45;ANALYSIS: Collected</text>
<text text-anchor="middle" x="310" y="-279.8" font-family="Open Sans" font-size="14.00">data from tests and monitoring</text>
<text text-anchor="middle" x="310" y="-264.8" font-family="Open Sans" font-size="14.00">of deployed software</text>
<text text-anchor="middle" x="310" y="-249.8" font-family="Open Sans" font-size="14.00">is analysed according</text>
<text text-anchor="middle" x="310" y="-234.8" font-family="Open Sans" font-size="14.00">to specified objectives.</text>
</a>
</g>
</g>
<!-- TA&#45;ANALYSIS&#45;&gt;AOU&#45;19 -->
<g id="edge3" class="edge">
<title>TA&#45;ANALYSIS&#45;&gt;AOU&#45;19</title>
<path fill="none" stroke="black" d="M271.43,-226.75C235.2,-188.49 180.97,-131.2 142.61,-90.68"/>
<polygon fill="black" stroke="black" points="145.06,-88.18 135.65,-83.32 139.98,-92.99 145.06,-88.18"/>
</g>
<!-- TA&#45;ANALYSIS&#45;&gt;JLS&#45;17 -->
<g id="edge2" class="edge">
<title>TA&#45;ANALYSIS&#45;&gt;JLS&#45;17</title>
<path fill="none" stroke="black" d="M310,-226.75C310,-186.91 310,-126.46 310,-85.78"/>
<polygon fill="black" stroke="black" points="313.5,-85.63 310,-75.63 306.5,-85.63 313.5,-85.63"/>
</g>
<!-- TA&#45;ANALYSIS&#45;&gt;JLS&#45;26 -->
<g id="edge4" class="edge">
<title>TA&#45;ANALYSIS&#45;&gt;JLS&#45;26</title>
<path fill="none" stroke="black" d="M349.3,-226.75C388.62,-185.98 448.76,-123.63 487.98,-82.96"/>
<polygon fill="black" stroke="black" points="490.63,-85.25 495.05,-75.63 485.59,-80.39 490.63,-85.25"/>
</g>
<!-- TT&#45;RESULTS&#45;&gt;TA&#45;ANALYSIS -->
<g id="edge5" class="edge">
<title>TT&#45;RESULTS&#45;&gt;TA&#45;ANALYSIS</title>
<path fill="none" stroke="black" d="M310,-453.83C310,-414.79 310,-359.95 310,-320.25"/>
<polygon fill="black" stroke="black" points="313.5,-320.24 310,-310.24 306.5,-320.24 313.5,-320.24"/>
</g>
</g>
</svg>
