<?xml version="1.0" encoding="UTF-8" standalone="no"?>
<!DOCTYPE svg PUBLIC "-//W3C//DTD SVG 1.1//EN"
 "http://www.w3.org/Graphics/SVG/1.1/DTD/svg11.dtd">
<!-- Generated by graphviz version 2.43.0 (0)
 -->
<!-- Title: G Pages: 1 -->
<svg width="903pt" height="757pt"
 viewBox="0.00 0.00 903.00 757.00" xmlns="http://www.w3.org/2000/svg" xmlns:xlink="http://www.w3.org/1999/xlink">
<g id="graph0" class="graph" transform="scale(1 1) rotate(0) translate(4 753)">
<title>G</title>
<polygon fill="white" stroke="transparent" points="-4,4 -4,-753 899,-753 899,4 -4,4"/>
<!-- TRUSTABLE&#45;SOFTWARE -->
<g id="node1" class="node">
<title>TRUSTABLE&#45;SOFTWARE</title>
<g id="a_node1"><a xlink:href="https://score-json.github.io/json/main/_images/custom_TRUSTABLE-SOFTWARE_graph.svg" xlink:title="TRUSTABLE&#45;SOFTWARE: This\nrelease of JSON&#45;Library\nalso reffered in the\ndocumentation as nlohmann/json\nlibrary is Trustable.\n">
<polygon fill="none" stroke="black" points="580,-749 332,-749 332,-666 580,-666 580,-749"/>
<text text-anchor="middle" x="456" y="-733.8" font-family="Open Sans" font-size="14.00">TRUSTABLE&#45;SOFTWARE: This</text>
<text text-anchor="middle" x="456" y="-718.8" font-family="Open Sans" font-size="14.00">release of JSON&#45;Library</text>
<text text-anchor="middle" x="456" y="-703.8" font-family="Open Sans" font-size="14.00">also reffered in the</text>
<text text-anchor="middle" x="456" y="-688.8" font-family="Open Sans" font-size="14.00">documentation as nlohmann/json</text>
<text text-anchor="middle" x="456" y="-673.8" font-family="Open Sans" font-size="14.00">library is Trustable.</text>
</a>
</g>
</g>
<!-- TT&#45;CONFIDENCE -->
<g id="node7" class="node">
<title>TT&#45;CONFIDENCE</title>
<g id="a_node7"><a xlink:href="https://score-json.github.io/json/main/_images/custom_TT-CONFIDENCE_graph.svg" xlink:title="TT&#45;CONFIDENCE: Confidence\nin nlohmann/json library\nis achieved by measuring\nand analysing behaviour\nand evidence over time.\n">
<polygon fill="none" stroke="black" points="565,-522 347,-522 347,-439 565,-439 565,-522"/>
<text text-anchor="middle" x="456" y="-506.8" font-family="Open Sans" font-size="14.00">TT&#45;CONFIDENCE: Confidence</text>
<text text-anchor="middle" x="456" y="-491.8" font-family="Open Sans" font-size="14.00">in nlohmann/json library</text>
<text text-anchor="middle" x="456" y="-476.8" font-family="Open Sans" font-size="14.00">is achieved by measuring</text>
<text text-anchor="middle" x="456" y="-461.8" font-family="Open Sans" font-size="14.00">and analysing behaviour</text>
<text text-anchor="middle" x="456" y="-446.8" font-family="Open Sans" font-size="14.00">and evidence over time.</text>
</a>
</g>
</g>
<!-- TRUSTABLE&#45;SOFTWARE&#45;&gt;TT&#45;CONFIDENCE -->
<g id="edge1" class="edge">
<title>TRUSTABLE&#45;SOFTWARE&#45;&gt;TT&#45;CONFIDENCE</title>
<path fill="none" stroke="black" d="M456,-665.75C456,-628.36 456,-572.81 456,-532.48"/>
<polygon fill="black" stroke="black" points="459.5,-532.32 456,-522.32 452.5,-532.32 459.5,-532.32"/>
</g>
<!-- AOU&#45;12 -->
<g id="node2" class="node">
<title>AOU&#45;12</title>
<g id="a_node2"><a xlink:href="https://score-json.github.io/json/main/generated/AOU.html#aou-12" xlink:title="AOU&#45;12: The integrator\nis required to evaluate\nthe provided evidence\nfor TA&#45;CONFIDENCE and\nsupplement it where necessary.\n">
<polygon fill="none" stroke="black" points="236,-83 0,-83 0,0 236,0 236,-83"/>
<text text-anchor="middle" x="118" y="-67.8" font-family="Open Sans" font-size="14.00">AOU&#45;12: The integrator</text>
<text text-anchor="middle" x="118" y="-52.8" font-family="Open Sans" font-size="14.00">is required to evaluate</text>
<text text-anchor="middle" x="118" y="-37.8" font-family="Open Sans" font-size="14.00">the provided evidence</text>
<text text-anchor="middle" x="118" y="-22.8" font-family="Open Sans" font-size="14.00">for TA&#45;CONFIDENCE and</text>
<text text-anchor="middle" x="118" y="-7.8" font-family="Open Sans" font-size="14.00">supplement it where necessary.</text>
</a>
</g>
</g>
<!-- JLS&#45;08 -->
<g id="node3" class="node">
<title>JLS&#45;08</title>
<g id="a_node3"><a xlink:href="https://score-json.github.io/json/main/generated/JLS.html#jls-08" xlink:title="JLS&#45;08: Each statement\nis scored based on SME\nreviews or automatic\nvalidation functions.\n(TODO) ">
<polygon fill="none" stroke="black" points="435.5,-83 254.5,-83 254.5,0 435.5,0 435.5,-83"/>
<text text-anchor="middle" x="345" y="-67.8" font-family="Open Sans" font-size="14.00">JLS&#45;08: Each statement</text>
<text text-anchor="middle" x="345" y="-52.8" font-family="Open Sans" font-size="14.00">is scored based on SME</text>
<text text-anchor="middle" x="345" y="-37.8" font-family="Open Sans" font-size="14.00">reviews or automatic</text>
<text text-anchor="middle" x="345" y="-22.8" font-family="Open Sans" font-size="14.00">validation functions.</text>
<text text-anchor="middle" x="345" y="-7.8" font-family="Open Sans" font-size="14.00">(TODO) </text>
</a>
</g>
</g>
<!-- JLS&#45;09 -->
<g id="node4" class="node">
<title>JLS&#45;09</title>
<g id="a_node4"><a xlink:href="https://score-json.github.io/json/main/generated/JLS.html#jls-09" xlink:title="JLS&#45;09: Scores are reasonably,\nsystematically and repeatably\naccumulated. (TODO) ">
<polygon fill="none" stroke="black" points="680.5,-68 453.5,-68 453.5,-15 680.5,-15 680.5,-68"/>
<text text-anchor="middle" x="567" y="-52.8" font-family="Open Sans" font-size="14.00">JLS&#45;09: Scores are reasonably,</text>
<text text-anchor="middle" x="567" y="-37.8" font-family="Open Sans" font-size="14.00">systematically and repeatably</text>
<text text-anchor="middle" x="567" y="-22.8" font-family="Open Sans" font-size="14.00">accumulated. (TODO) </text>
</a>
</g>
</g>
<!-- JLS&#45;20 -->
<g id="node5" class="node">
<title>JLS&#45;20</title>
<g id="a_node5"><a xlink:href="https://score-json.github.io/json/main/generated/JLS.html#jls-20" xlink:title="JLS&#45;20: A github workflow\nsaves the history of\nscores in the trustable\ngraph to derive trends.\n(TODO) ">
<polygon fill="none" stroke="black" points="895,-83 699,-83 699,0 895,0 895,-83"/>
<text text-anchor="middle" x="797" y="-67.8" font-family="Open Sans" font-size="14.00">JLS&#45;20: A github workflow</text>
<text text-anchor="middle" x="797" y="-52.8" font-family="Open Sans" font-size="14.00">saves the history of</text>
<text text-anchor="middle" x="797" y="-37.8" font-family="Open Sans" font-size="14.00">scores in the trustable</text>
<text text-anchor="middle" x="797" y="-22.8" font-family="Open Sans" font-size="14.00">graph to derive trends.</text>
<text text-anchor="middle" x="797" y="-7.8" font-family="Open Sans" font-size="14.00">(TODO) </text>
</a>
</g>
</g>
<!-- TA&#45;CONFIDENCE -->
<g id="node6" class="node">
<title>TA&#45;CONFIDENCE</title>
<g id="a_node6"><a xlink:href="https://score-json.github.io/json/main/_images/custom_TA-CONFIDENCE_graph.svg" xlink:title="TA&#45;CONFIDENCE: Confidence\nin nlohmann/json library\nis measured based on\nresults of analysis.\n">
<polygon fill="none" stroke="black" points="565,-295 347,-295 347,-227 565,-227 565,-295"/>
<text text-anchor="middle" x="456" y="-279.8" font-family="Open Sans" font-size="14.00">TA&#45;CONFIDENCE: Confidence</text>
<text text-anchor="middle" x="456" y="-264.8" font-family="Open Sans" font-size="14.00">in nlohmann/json library</text>
<text text-anchor="middle" x="456" y="-249.8" font-family="Open Sans" font-size="14.00">is measured based on</text>
<text text-anchor="middle" x="456" y="-234.8" font-family="Open Sans" font-size="14.00">results of analysis.</text>
</a>
</g>
</g>
<!-- TA&#45;CONFIDENCE&#45;&gt;AOU&#45;12 -->
<g id="edge4" class="edge">
<title>TA&#45;CONFIDENCE&#45;&gt;AOU&#45;12</title>
<path fill="none" stroke="black" d="M404.67,-226.97C347.31,-190.06 254.07,-130.06 189.57,-88.56"/>
<polygon fill="black" stroke="black" points="191.37,-85.55 181.07,-83.08 187.58,-91.44 191.37,-85.55"/>
</g>
<!-- TA&#45;CONFIDENCE&#45;&gt;JLS&#45;08 -->
<g id="edge2" class="edge">
<title>TA&#45;CONFIDENCE&#45;&gt;JLS&#45;08</title>
<path fill="none" stroke="black" d="M439.14,-226.97C420.87,-191.17 391.52,-133.65 370.44,-92.35"/>
<polygon fill="black" stroke="black" points="373.47,-90.59 365.81,-83.27 367.24,-93.77 373.47,-90.59"/>
</g>
<!-- TA&#45;CONFIDENCE&#45;&gt;JLS&#45;09 -->
<g id="edge3" class="edge">
<title>TA&#45;CONFIDENCE&#45;&gt;JLS&#45;09</title>
<path fill="none" stroke="black" d="M472.86,-226.97C493.51,-186.5 528.33,-118.28 549.34,-77.11"/>
<polygon fill="black" stroke="black" points="552.55,-78.51 553.98,-68.01 546.32,-75.33 552.55,-78.51"/>
</g>
<!-- TA&#45;CONFIDENCE&#45;&gt;JLS&#45;20 -->
<g id="edge5" class="edge">
<title>TA&#45;CONFIDENCE&#45;&gt;JLS&#45;20</title>
<path fill="none" stroke="black" d="M507.79,-226.97C565.65,-190.06 659.72,-130.06 724.79,-88.56"/>
<polygon fill="black" stroke="black" points="726.83,-91.41 733.37,-83.08 723.06,-85.51 726.83,-91.41"/>
</g>
<!-- TT&#45;CONFIDENCE&#45;&gt;TA&#45;CONFIDENCE -->
<g id="edge6" class="edge">
<title>TT&#45;CONFIDENCE&#45;&gt;TA&#45;CONFIDENCE</title>
<path fill="none" stroke="black" d="M456,-438.85C456,-400.97 456,-344.66 456,-305.8"/>
<polygon fill="black" stroke="black" points="459.5,-305.33 456,-295.33 452.5,-305.33 459.5,-305.33"/>
</g>
</g>
</svg>
