<?xml version="1.0" encoding="UTF-8" standalone="no"?>
<!DOCTYPE svg PUBLIC "-//W3C//DTD SVG 1.1//EN"
 "http://www.w3.org/Graphics/SVG/1.1/DTD/svg11.dtd">
<!-- Generated by graphviz version 2.43.0 (0)
 -->
<!-- Title: G Pages: 1 -->
<svg width="408pt" height="802pt"
 viewBox="0.00 0.00 408.00 802.00" xmlns="http://www.w3.org/2000/svg" xmlns:xlink="http://www.w3.org/1999/xlink">
<g id="graph0" class="graph" transform="scale(1 1) rotate(0) translate(4 798)">
<title>G</title>
<polygon fill="white" stroke="transparent" points="-4,4 -4,-798 404,-798 404,4 -4,4"/>
<!-- TRUSTABLE&#45;SOFTWARE -->
<g id="node1" class="node">
<title>TRUSTABLE&#45;SOFTWARE</title>
<g id="a_node1"><a xlink:href="https://score-json.github.io/json/main/_images/custom_TRUSTABLE-SOFTWARE_graph.svg" xlink:title="TRUSTABLE&#45;SOFTWARE: This\nrelease of JSON&#45;Library\nalso reffered in the\ndocumentation as nlohmann/json\nlibrary is Trustable.\n">
<polygon fill="none" stroke="black" points="340.5,-794 92.5,-794 92.5,-711 340.5,-711 340.5,-794"/>
<text text-anchor="middle" x="216.5" y="-778.8" font-family="Open Sans" font-size="14.00">TRUSTABLE&#45;SOFTWARE: This</text>
<text text-anchor="middle" x="216.5" y="-763.8" font-family="Open Sans" font-size="14.00">release of JSON&#45;Library</text>
<text text-anchor="middle" x="216.5" y="-748.8" font-family="Open Sans" font-size="14.00">also reffered in the</text>
<text text-anchor="middle" x="216.5" y="-733.8" font-family="Open Sans" font-size="14.00">documentation as nlohmann/json</text>
<text text-anchor="middle" x="216.5" y="-718.8" font-family="Open Sans" font-size="14.00">library is Trustable.</text>
</a>
</g>
</g>
<!-- TT&#45;RESULTS -->
<g id="node5" class="node">
<title>TT&#45;RESULTS</title>
<g id="a_node5"><a xlink:href="https://score-json.github.io/json/main/_images/custom_TT-RESULTS_graph.svg" xlink:title="TT&#45;RESULTS: Evidence\nis provided to demonstrate\nthat nlohmann/json library\ndoes what it is supposed\nto do, and does not do\nwhat it must not do.\n">
<polygon fill="none" stroke="black" points="318.5,-567 114.5,-567 114.5,-469 318.5,-469 318.5,-567"/>
<text text-anchor="middle" x="216.5" y="-551.8" font-family="Open Sans" font-size="14.00">TT&#45;RESULTS: Evidence</text>
<text text-anchor="middle" x="216.5" y="-536.8" font-family="Open Sans" font-size="14.00">is provided to demonstrate</text>
<text text-anchor="middle" x="216.5" y="-521.8" font-family="Open Sans" font-size="14.00">that nlohmann/json library</text>
<text text-anchor="middle" x="216.5" y="-506.8" font-family="Open Sans" font-size="14.00">does what it is supposed</text>
<text text-anchor="middle" x="216.5" y="-491.8" font-family="Open Sans" font-size="14.00">to do, and does not do</text>
<text text-anchor="middle" x="216.5" y="-476.8" font-family="Open Sans" font-size="14.00">what it must not do.</text>
</a>
</g>
</g>
<!-- TRUSTABLE&#45;SOFTWARE&#45;&gt;TT&#45;RESULTS -->
<g id="edge1" class="edge">
<title>TRUSTABLE&#45;SOFTWARE&#45;&gt;TT&#45;RESULTS</title>
<path fill="none" stroke="black" d="M216.5,-710.74C216.5,-673.88 216.5,-619.18 216.5,-577.63"/>
<polygon fill="black" stroke="black" points="220,-577.37 216.5,-567.37 213,-577.37 220,-577.37"/>
</g>
<!-- AOU&#45;18 -->
<g id="node2" class="node">
<title>AOU&#45;18</title>
<g id="a_node2"><a xlink:href="https://score-json.github.io/json/main/generated/AOU.html#aou-18" xlink:title="AOU&#45;18: The integrator\nensures monitoring data\nfrom deployed software\nis accurately captured,\nsecurely stored, and\nwell&#45;documented for analysis.\n">
<polygon fill="none" stroke="black" points="225,-98 0,-98 0,0 225,0 225,-98"/>
<text text-anchor="middle" x="112.5" y="-82.8" font-family="Open Sans" font-size="14.00">AOU&#45;18: The integrator</text>
<text text-anchor="middle" x="112.5" y="-67.8" font-family="Open Sans" font-size="14.00">ensures monitoring data</text>
<text text-anchor="middle" x="112.5" y="-52.8" font-family="Open Sans" font-size="14.00">from deployed software</text>
<text text-anchor="middle" x="112.5" y="-37.8" font-family="Open Sans" font-size="14.00">is accurately captured,</text>
<text text-anchor="middle" x="112.5" y="-22.8" font-family="Open Sans" font-size="14.00">securely stored, and</text>
<text text-anchor="middle" x="112.5" y="-7.8" font-family="Open Sans" font-size="14.00">well&#45;documented for analysis.</text>
</a>
</g>
</g>
<!-- JLS&#45;18 -->
<g id="node3" class="node">
<title>JLS&#45;18</title>
<g id="a_node3"><a xlink:href="https://score-json.github.io/json/main/generated/JLS.html#jls-18" xlink:title="JLS&#45;18: Results from\ntests are accurately\ncaptured. (TODO) ">
<polygon fill="none" stroke="black" points="400,-75.5 243,-75.5 243,-22.5 400,-22.5 400,-75.5"/>
<text text-anchor="middle" x="321.5" y="-60.3" font-family="Open Sans" font-size="14.00">JLS&#45;18: Results from</text>
<text text-anchor="middle" x="321.5" y="-45.3" font-family="Open Sans" font-size="14.00">tests are accurately</text>
<text text-anchor="middle" x="321.5" y="-30.3" font-family="Open Sans" font-size="14.00">captured. (TODO) </text>
</a>
</g>
</g>
<!-- TA&#45;DATA -->
<g id="node4" class="node">
<title>TA&#45;DATA</title>
<g id="a_node4"><a xlink:href="https://score-json.github.io/json/main/_images/custom_TA-DATA_graph.svg" xlink:title="TA&#45;DATA: Data is collected\nfrom tests, and from\nmonitoring of deployed\nsoftware, according to\nspecified objectives.\n">
<polygon fill="none" stroke="black" points="315,-325 118,-325 118,-242 315,-242 315,-325"/>
<text text-anchor="middle" x="216.5" y="-309.8" font-family="Open Sans" font-size="14.00">TA&#45;DATA: Data is collected</text>
<text text-anchor="middle" x="216.5" y="-294.8" font-family="Open Sans" font-size="14.00">from tests, and from</text>
<text text-anchor="middle" x="216.5" y="-279.8" font-family="Open Sans" font-size="14.00">monitoring of deployed</text>
<text text-anchor="middle" x="216.5" y="-264.8" font-family="Open Sans" font-size="14.00">software, according to</text>
<text text-anchor="middle" x="216.5" y="-249.8" font-family="Open Sans" font-size="14.00">specified objectives.</text>
</a>
</g>
</g>
<!-- TA&#45;DATA&#45;&gt;AOU&#45;18 -->
<g id="edge3" class="edge">
<title>TA&#45;DATA&#45;&gt;AOU&#45;18</title>
<path fill="none" stroke="black" d="M198.27,-241.74C181.64,-204.56 156.9,-149.25 138.26,-107.58"/>
<polygon fill="black" stroke="black" points="141.41,-106.07 134.14,-98.37 135.02,-108.93 141.41,-106.07"/>
</g>
<!-- TA&#45;DATA&#45;&gt;JLS&#45;18 -->
<g id="edge2" class="edge">
<title>TA&#45;DATA&#45;&gt;JLS&#45;18</title>
<path fill="none" stroke="black" d="M234.91,-241.74C254.99,-197.27 286.79,-126.85 305.75,-84.86"/>
<polygon fill="black" stroke="black" points="309.01,-86.15 309.94,-75.6 302.64,-83.27 309.01,-86.15"/>
</g>
<!-- TT&#45;RESULTS&#45;&gt;TA&#45;DATA -->
<g id="edge4" class="edge">
<title>TT&#45;RESULTS&#45;&gt;TA&#45;DATA</title>
<path fill="none" stroke="black" d="M216.5,-468.83C216.5,-429.79 216.5,-374.95 216.5,-335.25"/>
<polygon fill="black" stroke="black" points="220,-335.24 216.5,-325.24 213,-335.24 220,-335.24"/>
</g>
</g>
</svg>
