<?xml version="1.0" encoding="UTF-8" standalone="no"?>
<!DOCTYPE svg PUBLIC "-//W3C//DTD SVG 1.1//EN"
 "http://www.w3.org/Graphics/SVG/1.1/DTD/svg11.dtd">
<!-- Generated by graphviz version 2.43.0 (0)
 -->
<!-- Title: G Pages: 1 -->
<svg width="3169pt" height="817pt"
 viewBox="0.00 0.00 3169.00 817.00" xmlns="http://www.w3.org/2000/svg" xmlns:xlink="http://www.w3.org/1999/xlink">
<g id="graph0" class="graph" transform="scale(1 1) rotate(0) translate(4 813)">
<title>G</title>
<polygon fill="white" stroke="transparent" points="-4,4 -4,-813 3165,-813 3165,4 -4,4"/>
<!-- TRUSTABLE&#45;SOFTWARE -->
<g id="node1" class="node">
<title>TRUSTABLE&#45;SOFTWARE</title>
<g id="a_node1"><a xlink:href="https://score-json.github.io/json/main/_images/custom_TRUSTABLE-SOFTWARE_graph.svg" xlink:title="TRUSTABLE&#45;SOFTWARE: This\nrelease of JSON&#45;Library\nalso reffered in the\ndocumentation as nlohmann/json\nlibrary is Trustable.\n" target="_top">
<polygon fill="none" stroke="black" points="1047,-809 799,-809 799,-726 1047,-726 1047,-809"/>
<text text-anchor="middle" x="923" y="-793.8" font-family="Open Sans" font-size="14.00">TRUSTABLE&#45;SOFTWARE: This</text>
<text text-anchor="middle" x="923" y="-778.8" font-family="Open Sans" font-size="14.00">release of JSON&#45;Library</text>
<text text-anchor="middle" x="923" y="-763.8" font-family="Open Sans" font-size="14.00">also reffered in the</text>
<text text-anchor="middle" x="923" y="-748.8" font-family="Open Sans" font-size="14.00">documentation as nlohmann/json</text>
<text text-anchor="middle" x="923" y="-733.8" font-family="Open Sans" font-size="14.00">library is Trustable.</text>
</a>
</g>
</g>
<!-- TT&#45;EXPECTATIONS -->
<g id="node9" class="node">
<title>TT&#45;EXPECTATIONS</title>
<g id="a_node9"><a xlink:href="https://score-json.github.io/json/main/_images/custom_TT-EXPECTATIONS_graph.svg" xlink:title="TT&#45;EXPECTATIONS: Documentation\nis provided, specifying\nwhat nlohmann/json library\nis expected to do, and\nwhat it must not do,\nand how this is verified.\n" target="_top">
<polygon fill="none" stroke="black" points="1051.5,-582 794.5,-582 794.5,-484 1051.5,-484 1051.5,-582"/>
<text text-anchor="middle" x="923" y="-566.8" font-family="Open Sans" font-size="14.00">TT&#45;EXPECTATIONS: Documentation</text>
<text text-anchor="middle" x="923" y="-551.8" font-family="Open Sans" font-size="14.00">is provided, specifying</text>
<text text-anchor="middle" x="923" y="-536.8" font-family="Open Sans" font-size="14.00">what nlohmann/json library</text>
<text text-anchor="middle" x="923" y="-521.8" font-family="Open Sans" font-size="14.00">is expected to do, and</text>
<text text-anchor="middle" x="923" y="-506.8" font-family="Open Sans" font-size="14.00">what it must not do,</text>
<text text-anchor="middle" x="923" y="-491.8" font-family="Open Sans" font-size="14.00">and how this is verified.</text>
</a>
</g>
</g>
<!-- TRUSTABLE&#45;SOFTWARE&#45;&gt;TT&#45;EXPECTATIONS -->
<g id="edge1" class="edge">
<title>TRUSTABLE&#45;SOFTWARE&#45;&gt;TT&#45;EXPECTATIONS</title>
<path fill="none" stroke="black" d="M923,-725.74C923,-688.88 923,-634.18 923,-592.63"/>
<polygon fill="black" stroke="black" points="926.5,-592.37 923,-582.37 919.5,-592.37 926.5,-592.37"/>
</g>
<!-- AOU&#45;23 -->
<g id="node2" class="node">
<title>AOU&#45;23</title>
<g id="a_node2"><a xlink:href="https://score-json.github.io/json/main/generated/AOU.html#aou-23" xlink:title="AOU&#45;23: The integrator\nshall ensure that data\nare complete and error&#45;free,\nwhenever they are transmitted\nto nlohmann/json. " target="_top">
<polygon fill="none" stroke="black" points="232,-90.5 0,-90.5 0,-7.5 232,-7.5 232,-90.5"/>
<text text-anchor="middle" x="116" y="-75.3" font-family="Open Sans" font-size="14.00">AOU&#45;23: The integrator</text>
<text text-anchor="middle" x="116" y="-60.3" font-family="Open Sans" font-size="14.00">shall ensure that data</text>
<text text-anchor="middle" x="116" y="-45.3" font-family="Open Sans" font-size="14.00">are complete and error&#45;free,</text>
<text text-anchor="middle" x="116" y="-30.3" font-family="Open Sans" font-size="14.00">whenever they are transmitted</text>
<text text-anchor="middle" x="116" y="-15.3" font-family="Open Sans" font-size="14.00">to nlohmann/json. </text>
</a>
</g>
</g>
<!-- AOU&#45;24 -->
<g id="node3" class="node">
<title>AOU&#45;24</title>
<g id="a_node3"><a xlink:href="https://score-json.github.io/json/main/generated/AOU.html#aou-24" xlink:title="AOU&#45;24: The integrator\nshall ensure that the\ndata do not change during\nreading, whenever transmitted\nto nlohmann/json. " target="_top">
<polygon fill="none" stroke="black" points="482,-90.5 250,-90.5 250,-7.5 482,-7.5 482,-90.5"/>
<text text-anchor="middle" x="366" y="-75.3" font-family="Open Sans" font-size="14.00">AOU&#45;24: The integrator</text>
<text text-anchor="middle" x="366" y="-60.3" font-family="Open Sans" font-size="14.00">shall ensure that the</text>
<text text-anchor="middle" x="366" y="-45.3" font-family="Open Sans" font-size="14.00">data do not change during</text>
<text text-anchor="middle" x="366" y="-30.3" font-family="Open Sans" font-size="14.00">reading, whenever transmitted</text>
<text text-anchor="middle" x="366" y="-15.3" font-family="Open Sans" font-size="14.00">to nlohmann/json. </text>
</a>
</g>
</g>
<!-- AOU&#45;25 -->
<g id="node4" class="node">
<title>AOU&#45;25</title>
<g id="a_node4"><a xlink:href="https://score-json.github.io/json/main/generated/AOU.html#aou-25" xlink:title="AOU&#45;25: The integrator\nshall convince himself\nthat the behaviour of\nthe C++ standard library\nis known, verified and\nvalidated. " target="_top">
<polygon fill="none" stroke="black" points="693.5,-98 500.5,-98 500.5,0 693.5,0 693.5,-98"/>
<text text-anchor="middle" x="597" y="-82.8" font-family="Open Sans" font-size="14.00">AOU&#45;25: The integrator</text>
<text text-anchor="middle" x="597" y="-67.8" font-family="Open Sans" font-size="14.00">shall convince himself</text>
<text text-anchor="middle" x="597" y="-52.8" font-family="Open Sans" font-size="14.00">that the behaviour of</text>
<text text-anchor="middle" x="597" y="-37.8" font-family="Open Sans" font-size="14.00">the C++ standard library</text>
<text text-anchor="middle" x="597" y="-22.8" font-family="Open Sans" font-size="14.00">is known, verified and</text>
<text text-anchor="middle" x="597" y="-7.8" font-family="Open Sans" font-size="14.00">validated. </text>
</a>
</g>
</g>
<!-- JLEX&#45;01 -->
<g id="node5" class="node">
<title>JLEX&#45;01</title>
<g id="a_node5"><a xlink:href="https://score-json.github.io/json/main/_images/custom_JLEX-01_graph.svg" xlink:title="JLEX&#45;01: The requirement\nregarding [JSON Validation](https://eclipse&#45;score.github.io/score/main/modules/baselibs/json/docs/requirements/index.html#comp_req__json__validation)\nis fulfilled. " target="_top">
<polygon fill="none" stroke="black" points="1786.5,-75.5 711.5,-75.5 711.5,-22.5 1786.5,-22.5 1786.5,-75.5"/>
<text text-anchor="middle" x="1249" y="-60.3" font-family="Open Sans" font-size="14.00">JLEX&#45;01: The requirement</text>
<text text-anchor="middle" x="1249" y="-45.3" font-family="Open Sans" font-size="14.00">regarding [JSON Validation](https://eclipse&#45;score.github.io/score/main/modules/baselibs/json/docs/requirements/index.html#comp_req__json__validation)</text>
<text text-anchor="middle" x="1249" y="-30.3" font-family="Open Sans" font-size="14.00">is fulfilled. </text>
</a>
</g>
</g>
<!-- JLEX&#45;02 -->
<g id="node6" class="node">
<title>JLEX&#45;02</title>
<g id="a_node6"><a xlink:href="https://score-json.github.io/json/main/_images/custom_JLEX-02_graph.svg" xlink:title="JLEX&#45;02: The requirement\nregarding [JSON Deserialization](https://eclipse&#45;score.github.io/score/main/modules/baselibs/json/docs/requirements/index.html#comp_req__json__deserialization)\nis fulfilled. " target="_top">
<polygon fill="none" stroke="black" points="2947,-75.5 1805,-75.5 1805,-22.5 2947,-22.5 2947,-75.5"/>
<text text-anchor="middle" x="2376" y="-60.3" font-family="Open Sans" font-size="14.00">JLEX&#45;02: The requirement</text>
<text text-anchor="middle" x="2376" y="-45.3" font-family="Open Sans" font-size="14.00">regarding [JSON Deserialization](https://eclipse&#45;score.github.io/score/main/modules/baselibs/json/docs/requirements/index.html#comp_req__json__deserialization)</text>
<text text-anchor="middle" x="2376" y="-30.3" font-family="Open Sans" font-size="14.00">is fulfilled. </text>
</a>
</g>
</g>
<!-- JLS&#45;03 -->
<g id="node7" class="node">
<title>JLS&#45;03</title>
<g id="a_node7"><a xlink:href="https://score-json.github.io/json/main/generated/JLS.html#jls-03" xlink:title="JLS&#45;03: Automated tests\nare reviewed by a Subject\nMatter Expert to verify\nthey test the properties\nthey claim to. " target="_top">
<polygon fill="none" stroke="black" points="3161,-90.5 2965,-90.5 2965,-7.5 3161,-7.5 3161,-90.5"/>
<text text-anchor="middle" x="3063" y="-75.3" font-family="Open Sans" font-size="14.00">JLS&#45;03: Automated tests</text>
<text text-anchor="middle" x="3063" y="-60.3" font-family="Open Sans" font-size="14.00">are reviewed by a Subject</text>
<text text-anchor="middle" x="3063" y="-45.3" font-family="Open Sans" font-size="14.00">Matter Expert to verify</text>
<text text-anchor="middle" x="3063" y="-30.3" font-family="Open Sans" font-size="14.00">they test the properties</text>
<text text-anchor="middle" x="3063" y="-15.3" font-family="Open Sans" font-size="14.00">they claim to. </text>
</a>
</g>
</g>
<!-- TA&#45;BEHAVIOURS -->
<g id="node8" class="node">
<title>TA&#45;BEHAVIOURS</title>
<g id="a_node8"><a xlink:href="https://score-json.github.io/json/main/_images/custom_TA-BEHAVIOURS_graph.svg" xlink:title="TA&#45;BEHAVIOURS: Expected\nor required behaviours\nfor nlohmann/json library\nare identified, specified,\nverified and validated\nbased on analysis. " target="_top">
<polygon fill="none" stroke="black" points="1025,-340 821,-340 821,-242 1025,-242 1025,-340"/>
<text text-anchor="middle" x="923" y="-324.8" font-family="Open Sans" font-size="14.00">TA&#45;BEHAVIOURS: Expected</text>
<text text-anchor="middle" x="923" y="-309.8" font-family="Open Sans" font-size="14.00">or required behaviours</text>
<text text-anchor="middle" x="923" y="-294.8" font-family="Open Sans" font-size="14.00">for nlohmann/json library</text>
<text text-anchor="middle" x="923" y="-279.8" font-family="Open Sans" font-size="14.00">are identified, specified,</text>
<text text-anchor="middle" x="923" y="-264.8" font-family="Open Sans" font-size="14.00">verified and validated</text>
<text text-anchor="middle" x="923" y="-249.8" font-family="Open Sans" font-size="14.00">based on analysis. </text>
</a>
</g>
</g>
<!-- TA&#45;BEHAVIOURS&#45;&gt;AOU&#45;23 -->
<g id="edge5" class="edge">
<title>TA&#45;BEHAVIOURS&#45;&gt;AOU&#45;23</title>
<path fill="none" stroke="black" d="M820.72,-264.35C686.54,-229.99 444.27,-165.48 241,-98 237.03,-96.68 233,-95.31 228.94,-93.9"/>
<polygon fill="black" stroke="black" points="230.01,-90.57 219.41,-90.55 227.69,-97.17 230.01,-90.57"/>
</g>
<!-- TA&#45;BEHAVIOURS&#45;&gt;AOU&#45;24 -->
<g id="edge6" class="edge">
<title>TA&#45;BEHAVIOURS&#45;&gt;AOU&#45;24</title>
<path fill="none" stroke="black" d="M820.84,-245.98C720.94,-202.94 569.63,-137.74 469.33,-94.52"/>
<polygon fill="black" stroke="black" points="470.66,-91.29 460.09,-90.54 467.89,-97.71 470.66,-91.29"/>
</g>
<!-- TA&#45;BEHAVIOURS&#45;&gt;AOU&#45;25 -->
<g id="edge7" class="edge">
<title>TA&#45;BEHAVIOURS&#45;&gt;AOU&#45;25</title>
<path fill="none" stroke="black" d="M857.42,-241.72C803.37,-201.93 726.74,-145.52 670.6,-104.19"/>
<polygon fill="black" stroke="black" points="672.6,-101.31 662.47,-98.2 668.45,-106.95 672.6,-101.31"/>
</g>
<!-- TA&#45;BEHAVIOURS&#45;&gt;JLEX&#45;01 -->
<g id="edge2" class="edge">
<title>TA&#45;BEHAVIOURS&#45;&gt;JLEX&#45;01</title>
<path fill="none" stroke="black" d="M988.58,-241.72C1053.31,-194.07 1150.41,-122.58 1205.94,-81.7"/>
<polygon fill="black" stroke="black" points="1208.17,-84.4 1214.15,-75.66 1204.02,-78.77 1208.17,-84.4"/>
</g>
<!-- TA&#45;BEHAVIOURS&#45;&gt;JLEX&#45;02 -->
<g id="edge3" class="edge">
<title>TA&#45;BEHAVIOURS&#45;&gt;JLEX&#45;02</title>
<path fill="none" stroke="black" d="M1025.17,-273.12C1273.15,-232.16 1908.67,-127.19 2211.18,-77.22"/>
<polygon fill="black" stroke="black" points="2212.06,-80.63 2221.36,-75.54 2210.92,-73.72 2212.06,-80.63"/>
</g>
<!-- TA&#45;BEHAVIOURS&#45;&gt;JLS&#45;03 -->
<g id="edge4" class="edge">
<title>TA&#45;BEHAVIOURS&#45;&gt;JLS&#45;03</title>
<path fill="none" stroke="black" d="M1025.21,-284.77C1384,-265.73 2584.39,-196.03 2956,-98 2960.62,-96.78 2965.29,-95.38 2969.96,-93.85"/>
<polygon fill="black" stroke="black" points="2971.24,-97.11 2979.54,-90.52 2968.95,-90.5 2971.24,-97.11"/>
</g>
<!-- TT&#45;EXPECTATIONS&#45;&gt;TA&#45;BEHAVIOURS -->
<g id="edge8" class="edge">
<title>TT&#45;EXPECTATIONS&#45;&gt;TA&#45;BEHAVIOURS</title>
<path fill="none" stroke="black" d="M923,-483.72C923,-445.23 923,-391.2 923,-350.3"/>
<polygon fill="black" stroke="black" points="926.5,-350.2 923,-340.2 919.5,-350.2 926.5,-350.2"/>
</g>
</g>
</svg>
