<?xml version="1.0" encoding="UTF-8" standalone="no"?>
<!DOCTYPE svg PUBLIC "-//W3C//DTD SVG 1.1//EN"
 "http://www.w3.org/Graphics/SVG/1.1/DTD/svg11.dtd">
<!-- Generated by graphviz version 2.43.0 (0)
 -->
<!-- Title: G Pages: 1 -->
<svg width="256pt" height="757pt"
 viewBox="0.00 0.00 256.00 757.00" xmlns="http://www.w3.org/2000/svg" xmlns:xlink="http://www.w3.org/1999/xlink">
<g id="graph0" class="graph" transform="scale(1 1) rotate(0) translate(4 753)">
<title>G</title>
<polygon fill="white" stroke="transparent" points="-4,4 -4,-753 252,-753 252,4 -4,4"/>
<!-- TRUSTABLE&#45;SOFTWARE -->
<g id="node1" class="node">
<title>TRUSTABLE&#45;SOFTWARE</title>
<g id="a_node1"><a xlink:href="https://score-json.github.io/json/main/_images/custom_TRUSTABLE-SOFTWARE_graph.svg" xlink:title="TRUSTABLE&#45;SOFTWARE: This\nrelease of JSON&#45;Library\nalso referred in the\ndocumentation as nlohmann/json\nlibrary is Trustable.\n" target="_top">
<polygon fill="none" stroke="black" points="248,-749 0,-749 0,-666 248,-666 248,-749"/>
<text text-anchor="middle" x="124" y="-733.8" font-family="Open Sans" font-size="14.00">TRUSTABLE&#45;SOFTWARE: This</text>
<text text-anchor="middle" x="124" y="-718.8" font-family="Open Sans" font-size="14.00">release of JSON&#45;Library</text>
<text text-anchor="middle" x="124" y="-703.8" font-family="Open Sans" font-size="14.00">also referred in the</text>
<text text-anchor="middle" x="124" y="-688.8" font-family="Open Sans" font-size="14.00">documentation as nlohmann/json</text>
<text text-anchor="middle" x="124" y="-673.8" font-family="Open Sans" font-size="14.00">library is Trustable.</text>
</a>
</g>
</g>
<!-- TT&#45;PROVENANCE -->
<g id="node4" class="node">
<title>TT&#45;PROVENANCE</title>
<g id="a_node4"><a xlink:href="https://score-json.github.io/json/main/_images/custom_TT-PROVENANCE_graph.svg" xlink:title="TT&#45;PROVENANCE: All inputs\n(and attestations for\nclaims) for the nlohmann/json\nlibrary are provided\nwith known provenance.\n" target="_top">
<polygon fill="none" stroke="black" points="236,-522 12,-522 12,-439 236,-439 236,-522"/>
<text text-anchor="middle" x="124" y="-506.8" font-family="Open Sans" font-size="14.00">TT&#45;PROVENANCE: All inputs</text>
<text text-anchor="middle" x="124" y="-491.8" font-family="Open Sans" font-size="14.00">(and attestations for</text>
<text text-anchor="middle" x="124" y="-476.8" font-family="Open Sans" font-size="14.00">claims) for the nlohmann/json</text>
<text text-anchor="middle" x="124" y="-461.8" font-family="Open Sans" font-size="14.00">library are provided</text>
<text text-anchor="middle" x="124" y="-446.8" font-family="Open Sans" font-size="14.00">with known provenance.</text>
</a>
</g>
</g>
<!-- TRUSTABLE&#45;SOFTWARE&#45;&gt;TT&#45;PROVENANCE -->
<g id="edge1" class="edge">
<title>TRUSTABLE&#45;SOFTWARE&#45;&gt;TT&#45;PROVENANCE</title>
<path fill="none" stroke="black" d="M124,-665.75C124,-628.36 124,-572.81 124,-532.48"/>
<polygon fill="black" stroke="black" points="127.5,-532.32 124,-522.32 120.5,-532.32 127.5,-532.32"/>
</g>
<!-- JLS&#45;23 -->
<g id="node2" class="node">
<title>JLS&#45;23</title>
<g id="a_node2"><a xlink:href="https://score-json.github.io/json/main/generated/JLS.html#jls-23" xlink:title="JLS&#45;23: The Eclipse S&#45;CORE\norganization mirrors\nthe nlohmann/json project\nin a github fork. " target="_top">
<polygon fill="none" stroke="black" points="227.5,-68 20.5,-68 20.5,0 227.5,0 227.5,-68"/>
<text text-anchor="middle" x="124" y="-52.8" font-family="Open Sans" font-size="14.00">JLS&#45;23: The Eclipse S&#45;CORE</text>
<text text-anchor="middle" x="124" y="-37.8" font-family="Open Sans" font-size="14.00">organization mirrors</text>
<text text-anchor="middle" x="124" y="-22.8" font-family="Open Sans" font-size="14.00">the nlohmann/json project</text>
<text text-anchor="middle" x="124" y="-7.8" font-family="Open Sans" font-size="14.00">in a github fork. </text>
</a>
</g>
</g>
<!-- TA&#45;SUPPLY_CHAIN -->
<g id="node3" class="node">
<title>TA&#45;SUPPLY_CHAIN</title>
<g id="a_node3"><a xlink:href="https://score-json.github.io/json/main/_images/custom_TA-SUPPLY_CHAIN_graph.svg" xlink:title="TA&#45;SUPPLY_CHAIN: All\nsources and tools for\nthe nlohmann/json library\nare mirrored in our controlled\nenvironment. " target="_top">
<polygon fill="none" stroke="black" points="233.5,-295 14.5,-295 14.5,-212 233.5,-212 233.5,-295"/>
<text text-anchor="middle" x="124" y="-279.8" font-family="Open Sans" font-size="14.00">TA&#45;SUPPLY_CHAIN: All</text>
<text text-anchor="middle" x="124" y="-264.8" font-family="Open Sans" font-size="14.00">sources and tools for</text>
<text text-anchor="middle" x="124" y="-249.8" font-family="Open Sans" font-size="14.00">the nlohmann/json library</text>
<text text-anchor="middle" x="124" y="-234.8" font-family="Open Sans" font-size="14.00">are mirrored in our controlled</text>
<text text-anchor="middle" x="124" y="-219.8" font-family="Open Sans" font-size="14.00">environment. </text>
</a>
</g>
</g>
<!-- TA&#45;SUPPLY_CHAIN&#45;&gt;JLS&#45;23 -->
<g id="edge2" class="edge">
<title>TA&#45;SUPPLY_CHAIN&#45;&gt;JLS&#45;23</title>
<path fill="none" stroke="black" d="M124,-211.85C124,-173.97 124,-117.66 124,-78.8"/>
<polygon fill="black" stroke="black" points="127.5,-78.33 124,-68.33 120.5,-78.33 127.5,-78.33"/>
</g>
<!-- TT&#45;PROVENANCE&#45;&gt;TA&#45;SUPPLY_CHAIN -->
<g id="edge3" class="edge">
<title>TT&#45;PROVENANCE&#45;&gt;TA&#45;SUPPLY_CHAIN</title>
<path fill="none" stroke="black" d="M124,-438.75C124,-401.36 124,-345.81 124,-305.48"/>
<polygon fill="black" stroke="black" points="127.5,-305.32 124,-295.32 120.5,-305.32 127.5,-305.32"/>
</g>
</g>
</svg>
