<?xml version="1.0" encoding="UTF-8" standalone="no"?>
<!DOCTYPE svg PUBLIC "-//W3C//DTD SVG 1.1//EN"
 "http://www.w3.org/Graphics/SVG/1.1/DTD/svg11.dtd">
<!-- Generated by graphviz version 2.43.0 (0)
 -->
<!-- Title: G Pages: 1 -->
<svg width="1250pt" height="832pt"
 viewBox="0.00 0.00 1249.50 832.00" xmlns="http://www.w3.org/2000/svg" xmlns:xlink="http://www.w3.org/1999/xlink">
<g id="graph0" class="graph" transform="scale(1 1) rotate(0) translate(4 828)">
<title>G</title>
<polygon fill="white" stroke="transparent" points="-4,4 -4,-828 1245.5,-828 1245.5,4 -4,4"/>
<!-- TRUSTABLE&#45;SOFTWARE -->
<g id="node1" class="node">
<title>TRUSTABLE&#45;SOFTWARE</title>
<g id="a_node1"><a xlink:href="https://score-json.github.io/json/main/_images/custom_TRUSTABLE-SOFTWARE_graph.svg" xlink:title="TRUSTABLE&#45;SOFTWARE: This\nrelease of JSON&#45;Library\nalso reffered in the\ndocumentation as nlohmann/json\nlibrary is Trustable.\n">
<polygon fill="none" stroke="black" points="740,-824 492,-824 492,-741 740,-741 740,-824"/>
<text text-anchor="middle" x="616" y="-808.8" font-family="Open Sans" font-size="14.00">TRUSTABLE&#45;SOFTWARE: This</text>
<text text-anchor="middle" x="616" y="-793.8" font-family="Open Sans" font-size="14.00">release of JSON&#45;Library</text>
<text text-anchor="middle" x="616" y="-778.8" font-family="Open Sans" font-size="14.00">also reffered in the</text>
<text text-anchor="middle" x="616" y="-763.8" font-family="Open Sans" font-size="14.00">documentation as nlohmann/json</text>
<text text-anchor="middle" x="616" y="-748.8" font-family="Open Sans" font-size="14.00">library is Trustable.</text>
</a>
</g>
</g>
<!-- TT&#45;CHANGES -->
<g id="node8" class="node">
<title>TT&#45;CHANGES</title>
<g id="a_node8"><a xlink:href="https://score-json.github.io/json/main/_images/custom_TT-CHANGES_graph.svg" xlink:title="TT&#45;CHANGES: nlohmann/json\nlibrary is actively maintained,\nwith regular updates\nto dependencies, and\nchanges are verified\nto prevent regressions.\n">
<polygon fill="none" stroke="black" points="727,-597 505,-597 505,-499 727,-499 727,-597"/>
<text text-anchor="middle" x="616" y="-581.8" font-family="Open Sans" font-size="14.00">TT&#45;CHANGES: nlohmann/json</text>
<text text-anchor="middle" x="616" y="-566.8" font-family="Open Sans" font-size="14.00">library is actively maintained,</text>
<text text-anchor="middle" x="616" y="-551.8" font-family="Open Sans" font-size="14.00">with regular updates</text>
<text text-anchor="middle" x="616" y="-536.8" font-family="Open Sans" font-size="14.00">to dependencies, and</text>
<text text-anchor="middle" x="616" y="-521.8" font-family="Open Sans" font-size="14.00">changes are verified</text>
<text text-anchor="middle" x="616" y="-506.8" font-family="Open Sans" font-size="14.00">to prevent regressions.</text>
</a>
</g>
</g>
<!-- TRUSTABLE&#45;SOFTWARE&#45;&gt;TT&#45;CHANGES -->
<g id="edge1" class="edge">
<title>TRUSTABLE&#45;SOFTWARE&#45;&gt;TT&#45;CHANGES</title>
<path fill="none" stroke="black" d="M616,-740.74C616,-703.88 616,-649.18 616,-607.63"/>
<polygon fill="black" stroke="black" points="619.5,-607.37 616,-597.37 612.5,-607.37 619.5,-607.37"/>
</g>
<!-- AOU&#45;01 -->
<g id="node2" class="node">
<title>AOU&#45;01</title>
<g id="a_node2"><a xlink:href="https://score-json.github.io/json/main/generated/AOU.html#aou-01" xlink:title="AOU&#45;01: Problems with\nnlohmann/json&#39;s implementation\nidentified during testing\nare reported to the upstream\nnlohmann/json project.\n">
<polygon fill="none" stroke="black" points="244,-98 0,-98 0,-15 244,-15 244,-98"/>
<text text-anchor="middle" x="122" y="-82.8" font-family="Open Sans" font-size="14.00">AOU&#45;01: Problems with</text>
<text text-anchor="middle" x="122" y="-67.8" font-family="Open Sans" font-size="14.00">nlohmann/json&#39;s implementation</text>
<text text-anchor="middle" x="122" y="-52.8" font-family="Open Sans" font-size="14.00">identified during testing</text>
<text text-anchor="middle" x="122" y="-37.8" font-family="Open Sans" font-size="14.00">are reported to the upstream</text>
<text text-anchor="middle" x="122" y="-22.8" font-family="Open Sans" font-size="14.00">nlohmann/json project.</text>
</a>
</g>
</g>
<!-- AOU&#45;10 -->
<g id="node3" class="node">
<title>AOU&#45;10</title>
<g id="a_node3"><a xlink:href="https://score-json.github.io/json/main/generated/AOU.html#aou-10" xlink:title="AOU&#45;10: The integrator\nis required to evaluate\nthe provided evidence\nfor TA&#45;FIXES and supplement\nit where necessary. ">
<polygon fill="none" stroke="black" points="483.5,-98 262.5,-98 262.5,-15 483.5,-15 483.5,-98"/>
<text text-anchor="middle" x="373" y="-82.8" font-family="Open Sans" font-size="14.00">AOU&#45;10: The integrator</text>
<text text-anchor="middle" x="373" y="-67.8" font-family="Open Sans" font-size="14.00">is required to evaluate</text>
<text text-anchor="middle" x="373" y="-52.8" font-family="Open Sans" font-size="14.00">the provided evidence</text>
<text text-anchor="middle" x="373" y="-37.8" font-family="Open Sans" font-size="14.00">for TA&#45;FIXES and supplement</text>
<text text-anchor="middle" x="373" y="-22.8" font-family="Open Sans" font-size="14.00">it where necessary. </text>
</a>
</g>
</g>
<!-- JLS&#45;04 -->
<g id="node4" class="node">
<title>JLS&#45;04</title>
<g id="a_node4"><a xlink:href="https://score-json.github.io/json/main/generated/JLS.html#jls-04" xlink:title="JLS&#45;04: External dependencies\nare checked for potential\nsecurity vulnerabilities\nwith each pull request\nto main. Merging is blocked\nuntil all warnings are\nresolved. ">
<polygon fill="none" stroke="black" points="730,-113 502,-113 502,0 730,0 730,-113"/>
<text text-anchor="middle" x="616" y="-97.8" font-family="Open Sans" font-size="14.00">JLS&#45;04: External dependencies</text>
<text text-anchor="middle" x="616" y="-82.8" font-family="Open Sans" font-size="14.00">are checked for potential</text>
<text text-anchor="middle" x="616" y="-67.8" font-family="Open Sans" font-size="14.00">security vulnerabilities</text>
<text text-anchor="middle" x="616" y="-52.8" font-family="Open Sans" font-size="14.00">with each pull request</text>
<text text-anchor="middle" x="616" y="-37.8" font-family="Open Sans" font-size="14.00">to main. Merging is blocked</text>
<text text-anchor="middle" x="616" y="-22.8" font-family="Open Sans" font-size="14.00">until all warnings are</text>
<text text-anchor="middle" x="616" y="-7.8" font-family="Open Sans" font-size="14.00">resolved. </text>
</a>
</g>
</g>
<!-- JLS&#45;05 -->
<g id="node5" class="node">
<title>JLS&#45;05</title>
<g id="a_node5"><a xlink:href="https://score-json.github.io/json/main/generated/JLS.html#jls-05" xlink:title="JLS&#45;05: The OSS nlohmann/json\nis widely used, actively\nmaintained and uses github\nissues to track bugs\nand misbehaviours. ">
<polygon fill="none" stroke="black" points="984,-98 748,-98 748,-15 984,-15 984,-98"/>
<text text-anchor="middle" x="866" y="-82.8" font-family="Open Sans" font-size="14.00">JLS&#45;05: The OSS nlohmann/json</text>
<text text-anchor="middle" x="866" y="-67.8" font-family="Open Sans" font-size="14.00">is widely used, actively</text>
<text text-anchor="middle" x="866" y="-52.8" font-family="Open Sans" font-size="14.00">maintained and uses github</text>
<text text-anchor="middle" x="866" y="-37.8" font-family="Open Sans" font-size="14.00">issues to track bugs</text>
<text text-anchor="middle" x="866" y="-22.8" font-family="Open Sans" font-size="14.00">and misbehaviours. </text>
</a>
</g>
</g>
<!-- JLS&#45;11 -->
<g id="node6" class="node">
<title>JLS&#45;11</title>
<g id="a_node6"><a xlink:href="https://score-json.github.io/json/main/generated/JLS.html#jls-11" xlink:title="JLS&#45;11: A score based\non outstanding, fixed\nand mitigated faults\nis calculated based on\ngithub issues in nlohmann/json.\n(TODO) ">
<polygon fill="none" stroke="black" points="1241.5,-105.5 1002.5,-105.5 1002.5,-7.5 1241.5,-7.5 1241.5,-105.5"/>
<text text-anchor="middle" x="1122" y="-90.3" font-family="Open Sans" font-size="14.00">JLS&#45;11: A score based</text>
<text text-anchor="middle" x="1122" y="-75.3" font-family="Open Sans" font-size="14.00">on outstanding, fixed</text>
<text text-anchor="middle" x="1122" y="-60.3" font-family="Open Sans" font-size="14.00">and mitigated faults</text>
<text text-anchor="middle" x="1122" y="-45.3" font-family="Open Sans" font-size="14.00">is calculated based on</text>
<text text-anchor="middle" x="1122" y="-30.3" font-family="Open Sans" font-size="14.00">github issues in nlohmann/json.</text>
<text text-anchor="middle" x="1122" y="-15.3" font-family="Open Sans" font-size="14.00">(TODO) </text>
</a>
</g>
</g>
<!-- TA&#45;FIXES -->
<g id="node7" class="node">
<title>TA&#45;FIXES</title>
<g id="a_node7"><a xlink:href="https://score-json.github.io/json/main/_images/custom_TA-FIXES_graph.svg" xlink:title="TA&#45;FIXES: Known bugs\nor misbehaviours are\nanalysed and triaged,\nand critical fixes or\nmitigations are implemented\nor applied. ">
<polygon fill="none" stroke="black" points="724,-355 508,-355 508,-257 724,-257 724,-355"/>
<text text-anchor="middle" x="616" y="-339.8" font-family="Open Sans" font-size="14.00">TA&#45;FIXES: Known bugs</text>
<text text-anchor="middle" x="616" y="-324.8" font-family="Open Sans" font-size="14.00">or misbehaviours are</text>
<text text-anchor="middle" x="616" y="-309.8" font-family="Open Sans" font-size="14.00">analysed and triaged,</text>
<text text-anchor="middle" x="616" y="-294.8" font-family="Open Sans" font-size="14.00">and critical fixes or</text>
<text text-anchor="middle" x="616" y="-279.8" font-family="Open Sans" font-size="14.00">mitigations are implemented</text>
<text text-anchor="middle" x="616" y="-264.8" font-family="Open Sans" font-size="14.00">or applied. </text>
</a>
</g>
</g>
<!-- TA&#45;FIXES&#45;&gt;AOU&#45;01 -->
<g id="edge3" class="edge">
<title>TA&#45;FIXES&#45;&gt;AOU&#45;01</title>
<path fill="none" stroke="black" d="M520.17,-256.99C431.01,-212.32 299.16,-146.26 211.95,-102.56"/>
<polygon fill="black" stroke="black" points="213.37,-99.36 202.86,-98.01 210.23,-105.62 213.37,-99.36"/>
</g>
<!-- TA&#45;FIXES&#45;&gt;AOU&#45;10 -->
<g id="edge6" class="edge">
<title>TA&#45;FIXES&#45;&gt;AOU&#45;10</title>
<path fill="none" stroke="black" d="M568.86,-256.99C525.93,-213.27 462.89,-149.05 420.01,-105.38"/>
<polygon fill="black" stroke="black" points="422.28,-102.69 412.77,-98.01 417.28,-107.6 422.28,-102.69"/>
</g>
<!-- TA&#45;FIXES&#45;&gt;JLS&#45;04 -->
<g id="edge4" class="edge">
<title>TA&#45;FIXES&#45;&gt;JLS&#45;04</title>
<path fill="none" stroke="black" d="M616,-256.99C616,-218.93 616,-165.36 616,-123.31"/>
<polygon fill="black" stroke="black" points="619.5,-123.16 616,-113.16 612.5,-123.16 619.5,-123.16"/>
</g>
<!-- TA&#45;FIXES&#45;&gt;JLS&#45;05 -->
<g id="edge2" class="edge">
<title>TA&#45;FIXES&#45;&gt;JLS&#45;05</title>
<path fill="none" stroke="black" d="M664.5,-256.99C708.75,-213.18 773.79,-148.79 817.91,-105.11"/>
<polygon fill="black" stroke="black" points="820.44,-107.53 825.08,-98.01 815.51,-102.56 820.44,-107.53"/>
</g>
<!-- TA&#45;FIXES&#45;&gt;JLS&#45;11 -->
<g id="edge5" class="edge">
<title>TA&#45;FIXES&#45;&gt;JLS&#45;11</title>
<path fill="none" stroke="black" d="M714.16,-256.99C800.44,-214.79 925.74,-153.5 1014.65,-110.01"/>
<polygon fill="black" stroke="black" points="1016.24,-113.13 1023.68,-105.59 1013.16,-106.84 1016.24,-113.13"/>
</g>
<!-- TT&#45;CHANGES&#45;&gt;TA&#45;FIXES -->
<g id="edge7" class="edge">
<title>TT&#45;CHANGES&#45;&gt;TA&#45;FIXES</title>
<path fill="none" stroke="black" d="M616,-498.72C616,-460.23 616,-406.2 616,-365.3"/>
<polygon fill="black" stroke="black" points="619.5,-365.2 616,-355.2 612.5,-365.2 619.5,-365.2"/>
</g>
</g>
</svg>
