<?xml version="1.0" encoding="UTF-8" standalone="no"?>
<!DOCTYPE svg PUBLIC "-//W3C//DTD SVG 1.1//EN"
 "http://www.w3.org/Graphics/SVG/1.1/DTD/svg11.dtd">
<!-- Generated by graphviz version 2.43.0 (0)
 -->
<!-- Title: G Pages: 1 -->
<svg width="2049pt" height="1241pt"
 viewBox="0.00 0.00 2049.00 1241.00" xmlns="http://www.w3.org/2000/svg" xmlns:xlink="http://www.w3.org/1999/xlink">
<g id="graph0" class="graph" transform="scale(1 1) rotate(0) translate(4 1237)">
<title>G</title>
<polygon fill="white" stroke="transparent" points="-4,4 -4,-1237 2045,-1237 2045,4 -4,4"/>
<!-- TRUSTABLE&#45;SOFTWARE -->
<g id="node1" class="node">
<title>TRUSTABLE&#45;SOFTWARE</title>
<g id="a_node1"><a xlink:href="https://score-json.github.io/json/main/_images/custom_TRUSTABLE-SOFTWARE_graph.svg" xlink:title="TRUSTABLE&#45;SOFTWARE: This\nrelease of JSON&#45;Library\nalso reffered in the\ndocumentation as nlohmann/json\nlibrary is Trustable.\n">
<polygon fill="none" stroke="black" points="1119,-1233 871,-1233 871,-1150 1119,-1150 1119,-1233"/>
<text text-anchor="middle" x="995" y="-1217.8" font-family="Open Sans" font-size="14.00">TRUSTABLE&#45;SOFTWARE: This</text>
<text text-anchor="middle" x="995" y="-1202.8" font-family="Open Sans" font-size="14.00">release of JSON&#45;Library</text>
<text text-anchor="middle" x="995" y="-1187.8" font-family="Open Sans" font-size="14.00">also reffered in the</text>
<text text-anchor="middle" x="995" y="-1172.8" font-family="Open Sans" font-size="14.00">documentation as nlohmann/json</text>
<text text-anchor="middle" x="995" y="-1157.8" font-family="Open Sans" font-size="14.00">library is Trustable.</text>
</a>
</g>
</g>
<!-- TT&#45;EXPECTATIONS -->
<g id="node14" class="node">
<title>TT&#45;EXPECTATIONS</title>
<g id="a_node14"><a xlink:href="https://score-json.github.io/json/main/_images/custom_TT-EXPECTATIONS_graph.svg" xlink:title="TT&#45;EXPECTATIONS: Documentation\nis provided, specifying\nwhat nlohmann/json library\nis expected to do, and\nwhat it must not do,\nand how this is verified.\n">
<polygon fill="none" stroke="black" points="1123.5,-1006 866.5,-1006 866.5,-908 1123.5,-908 1123.5,-1006"/>
<text text-anchor="middle" x="995" y="-990.8" font-family="Open Sans" font-size="14.00">TT&#45;EXPECTATIONS: Documentation</text>
<text text-anchor="middle" x="995" y="-975.8" font-family="Open Sans" font-size="14.00">is provided, specifying</text>
<text text-anchor="middle" x="995" y="-960.8" font-family="Open Sans" font-size="14.00">what nlohmann/json library</text>
<text text-anchor="middle" x="995" y="-945.8" font-family="Open Sans" font-size="14.00">is expected to do, and</text>
<text text-anchor="middle" x="995" y="-930.8" font-family="Open Sans" font-size="14.00">what it must not do,</text>
<text text-anchor="middle" x="995" y="-915.8" font-family="Open Sans" font-size="14.00">and how this is verified.</text>
</a>
</g>
</g>
<!-- TRUSTABLE&#45;SOFTWARE&#45;&gt;TT&#45;EXPECTATIONS -->
<g id="edge1" class="edge">
<title>TRUSTABLE&#45;SOFTWARE&#45;&gt;TT&#45;EXPECTATIONS</title>
<path fill="none" stroke="black" d="M995,-1149.74C995,-1112.88 995,-1058.18 995,-1016.63"/>
<polygon fill="black" stroke="black" points="998.5,-1016.37 995,-1006.37 991.5,-1016.37 998.5,-1016.37"/>
</g>
<!-- AOU&#45;05 -->
<g id="node2" class="node">
<title>AOU&#45;05</title>
<g id="a_node2"><a xlink:href="https://score-json.github.io/json/main/generated/AOU.html#aou-05" xlink:title="AOU&#45;05: Input is encoded\nas UTF&#45;8 (as required\nby RFC8259) and in case\nother string formats\nare used, it is expected\nthat the parse or dump\nfunction may throw an\nexception. ">
<polygon fill="none" stroke="black" points="196,-128 0,-128 0,0 196,0 196,-128"/>
<text text-anchor="middle" x="98" y="-112.8" font-family="Open Sans" font-size="14.00">AOU&#45;05: Input is encoded</text>
<text text-anchor="middle" x="98" y="-97.8" font-family="Open Sans" font-size="14.00">as UTF&#45;8 (as required</text>
<text text-anchor="middle" x="98" y="-82.8" font-family="Open Sans" font-size="14.00">by RFC8259) and in case</text>
<text text-anchor="middle" x="98" y="-67.8" font-family="Open Sans" font-size="14.00">other string formats</text>
<text text-anchor="middle" x="98" y="-52.8" font-family="Open Sans" font-size="14.00">are used, it is expected</text>
<text text-anchor="middle" x="98" y="-37.8" font-family="Open Sans" font-size="14.00">that the parse or dump</text>
<text text-anchor="middle" x="98" y="-22.8" font-family="Open Sans" font-size="14.00">function may throw an</text>
<text text-anchor="middle" x="98" y="-7.8" font-family="Open Sans" font-size="14.00">exception. </text>
</a>
</g>
</g>
<!-- AOU&#45;21 -->
<g id="node3" class="node">
<title>AOU&#45;21</title>
<g id="a_node3"><a xlink:href="https://score-json.github.io/json/main/generated/AOU.html#aou-21" xlink:title="AOU&#45;21: Strings containing\nan escaped unpaired utf&#45;16\nsurrogate character are\ninvalid. ">
<polygon fill="none" stroke="black" points="423.5,-98 214.5,-98 214.5,-30 423.5,-30 423.5,-98"/>
<text text-anchor="middle" x="319" y="-82.8" font-family="Open Sans" font-size="14.00">AOU&#45;21: Strings containing</text>
<text text-anchor="middle" x="319" y="-67.8" font-family="Open Sans" font-size="14.00">an escaped unpaired utf&#45;16</text>
<text text-anchor="middle" x="319" y="-52.8" font-family="Open Sans" font-size="14.00">surrogate character are</text>
<text text-anchor="middle" x="319" y="-37.8" font-family="Open Sans" font-size="14.00">invalid. </text>
</a>
</g>
</g>
<!-- JLEX&#45;02 -->
<g id="node4" class="node">
<title>JLEX&#45;02</title>
<g id="a_node4"><a xlink:href="https://score-json.github.io/json/main/_images/custom_JLEX-02_graph.svg" xlink:title="JLEX&#45;02: The requirement\nregarding [JSON Deserialization](https://eclipse&#45;score.github.io/score/main/modules/baselibs/json/docs/requirements/index.html#comp_req__json__deserialization)\nis fulfilled. ">
<polygon fill="none" stroke="black" points="1566,-522 424,-522 424,-469 1566,-469 1566,-522"/>
<text text-anchor="middle" x="995" y="-506.8" font-family="Open Sans" font-size="14.00">JLEX&#45;02: The requirement</text>
<text text-anchor="middle" x="995" y="-491.8" font-family="Open Sans" font-size="14.00">regarding [JSON Deserialization](https://eclipse&#45;score.github.io/score/main/modules/baselibs/json/docs/requirements/index.html#comp_req__json__deserialization)</text>
<text text-anchor="middle" x="995" y="-476.8" font-family="Open Sans" font-size="14.00">is fulfilled. </text>
</a>
</g>
</g>
<!-- PJD&#45;03 -->
<g id="node12" class="node">
<title>PJD&#45;03</title>
<g id="a_node12"><a xlink:href="https://score-json.github.io/json/main/_images/custom_PJD-03_graph.svg" xlink:title="PJD&#45;03: The service parses\nall texts that conform\nto the JSON grammar.\n">
<polygon fill="none" stroke="black" points="1096.5,-325 893.5,-325 893.5,-272 1096.5,-272 1096.5,-325"/>
<text text-anchor="middle" x="995" y="-309.8" font-family="Open Sans" font-size="14.00">PJD&#45;03: The service parses</text>
<text text-anchor="middle" x="995" y="-294.8" font-family="Open Sans" font-size="14.00">all texts that conform</text>
<text text-anchor="middle" x="995" y="-279.8" font-family="Open Sans" font-size="14.00">to the JSON grammar.</text>
</a>
</g>
</g>
<!-- JLEX&#45;02&#45;&gt;PJD&#45;03 -->
<g id="edge2" class="edge">
<title>JLEX&#45;02&#45;&gt;PJD&#45;03</title>
<path fill="none" stroke="black" d="M995,-468.61C995,-434.42 995,-374.06 995,-335.46"/>
<polygon fill="black" stroke="black" points="998.5,-335.19 995,-325.19 991.5,-335.19 998.5,-335.19"/>
</g>
<!-- NPF&#45;02 -->
<g id="node5" class="node">
<title>NPF&#45;02</title>
<g id="a_node5"><a xlink:href="https://score-json.github.io/json/main/_images/custom_NPF-02_graph.svg" xlink:title="NPF&#45;02: The service parses\nnumbers according to\nRFC8259. ">
<polygon fill="none" stroke="black" points="648,-90.5 442,-90.5 442,-37.5 648,-37.5 648,-90.5"/>
<text text-anchor="middle" x="545" y="-75.3" font-family="Open Sans" font-size="14.00">NPF&#45;02: The service parses</text>
<text text-anchor="middle" x="545" y="-60.3" font-family="Open Sans" font-size="14.00">numbers according to</text>
<text text-anchor="middle" x="545" y="-45.3" font-family="Open Sans" font-size="14.00">RFC8259. </text>
</a>
</g>
</g>
<!-- NPF&#45;03 -->
<g id="node6" class="node">
<title>NPF&#45;03</title>
<g id="a_node6"><a xlink:href="https://score-json.github.io/json/main/_images/custom_NPF-03_graph.svg" xlink:title="NPF&#45;03: The service parses\nstrings according to\nRFC8259. ">
<polygon fill="none" stroke="black" points="872,-90.5 666,-90.5 666,-37.5 872,-37.5 872,-90.5"/>
<text text-anchor="middle" x="769" y="-75.3" font-family="Open Sans" font-size="14.00">NPF&#45;03: The service parses</text>
<text text-anchor="middle" x="769" y="-60.3" font-family="Open Sans" font-size="14.00">strings according to</text>
<text text-anchor="middle" x="769" y="-45.3" font-family="Open Sans" font-size="14.00">RFC8259. </text>
</a>
</g>
</g>
<!-- NPF&#45;04 -->
<g id="node7" class="node">
<title>NPF&#45;04</title>
<g id="a_node7"><a xlink:href="https://score-json.github.io/json/main/_images/custom_NPF-04_graph.svg" xlink:title="NPF&#45;04: The service parses\nliteral names &quot;true&quot;,\n&quot;false&quot; and &quot;null&quot; according\nto RFC8259. ">
<polygon fill="none" stroke="black" points="1099.5,-98 890.5,-98 890.5,-30 1099.5,-30 1099.5,-98"/>
<text text-anchor="middle" x="995" y="-82.8" font-family="Open Sans" font-size="14.00">NPF&#45;04: The service parses</text>
<text text-anchor="middle" x="995" y="-67.8" font-family="Open Sans" font-size="14.00">literal names &quot;true&quot;,</text>
<text text-anchor="middle" x="995" y="-52.8" font-family="Open Sans" font-size="14.00">&quot;false&quot; and &quot;null&quot; according</text>
<text text-anchor="middle" x="995" y="-37.8" font-family="Open Sans" font-size="14.00">to RFC8259. </text>
</a>
</g>
</g>
<!-- NPF&#45;05 -->
<g id="node8" class="node">
<title>NPF&#45;05</title>
<g id="a_node8"><a xlink:href="https://score-json.github.io/json/main/_images/custom_NPF-05_graph.svg" xlink:title="NPF&#45;05: The service parses\narrays according to RFC8259.\n">
<polygon fill="none" stroke="black" points="1340.5,-83 1117.5,-83 1117.5,-45 1340.5,-45 1340.5,-83"/>
<text text-anchor="middle" x="1229" y="-67.8" font-family="Open Sans" font-size="14.00">NPF&#45;05: The service parses</text>
<text text-anchor="middle" x="1229" y="-52.8" font-family="Open Sans" font-size="14.00">arrays according to RFC8259.</text>
</a>
</g>
</g>
<!-- NPF&#45;06 -->
<g id="node9" class="node">
<title>NPF&#45;06</title>
<g id="a_node9"><a xlink:href="https://score-json.github.io/json/main/_images/custom_NPF-06_graph.svg" xlink:title="NPF&#45;06: The service parses\nobjects according to\nRFC8259. ">
<polygon fill="none" stroke="black" points="1565,-90.5 1359,-90.5 1359,-37.5 1565,-37.5 1565,-90.5"/>
<text text-anchor="middle" x="1462" y="-75.3" font-family="Open Sans" font-size="14.00">NPF&#45;06: The service parses</text>
<text text-anchor="middle" x="1462" y="-60.3" font-family="Open Sans" font-size="14.00">objects according to</text>
<text text-anchor="middle" x="1462" y="-45.3" font-family="Open Sans" font-size="14.00">RFC8259. </text>
</a>
</g>
</g>
<!-- NPF&#45;07 -->
<g id="node10" class="node">
<title>NPF&#45;07</title>
<g id="a_node10"><a xlink:href="https://score-json.github.io/json/main/_images/custom_NPF-07_graph.svg" xlink:title="NPF&#45;07: The service parses\nwell&#45;formed UTF&#45;8 encoded\ndata only. ">
<polygon fill="none" stroke="black" points="1791,-90.5 1583,-90.5 1583,-37.5 1791,-37.5 1791,-90.5"/>
<text text-anchor="middle" x="1687" y="-75.3" font-family="Open Sans" font-size="14.00">NPF&#45;07: The service parses</text>
<text text-anchor="middle" x="1687" y="-60.3" font-family="Open Sans" font-size="14.00">well&#45;formed UTF&#45;8 encoded</text>
<text text-anchor="middle" x="1687" y="-45.3" font-family="Open Sans" font-size="14.00">data only. </text>
</a>
</g>
</g>
<!-- PJD&#45;02 -->
<g id="node11" class="node">
<title>PJD&#45;02</title>
<g id="a_node11"><a xlink:href="https://score-json.github.io/json/main/generated/PJD.html#pjd-02" xlink:title="PJD&#45;02: The service transforms\na JSON text into a C++\nrepresentation using\nC++ containers (for arrays\nand objects) and primitive\ndatatypes (for strings,\nnumbers, boolean, null).\n">
<polygon fill="none" stroke="black" points="2041,-120.5 1809,-120.5 1809,-7.5 2041,-7.5 2041,-120.5"/>
<text text-anchor="middle" x="1925" y="-105.3" font-family="Open Sans" font-size="14.00">PJD&#45;02: The service transforms</text>
<text text-anchor="middle" x="1925" y="-90.3" font-family="Open Sans" font-size="14.00">a JSON text into a C++</text>
<text text-anchor="middle" x="1925" y="-75.3" font-family="Open Sans" font-size="14.00">representation using</text>
<text text-anchor="middle" x="1925" y="-60.3" font-family="Open Sans" font-size="14.00">C++ containers (for arrays</text>
<text text-anchor="middle" x="1925" y="-45.3" font-family="Open Sans" font-size="14.00">and objects) and primitive</text>
<text text-anchor="middle" x="1925" y="-30.3" font-family="Open Sans" font-size="14.00">datatypes (for strings,</text>
<text text-anchor="middle" x="1925" y="-15.3" font-family="Open Sans" font-size="14.00">numbers, boolean, null).</text>
</a>
</g>
</g>
<!-- PJD&#45;03&#45;&gt;AOU&#45;05 -->
<g id="edge4" class="edge">
<title>PJD&#45;03&#45;&gt;AOU&#45;05</title>
<path fill="none" stroke="black" d="M893.49,-286.29C742.11,-267.27 449.75,-221.66 205.63,-128.02"/>
<polygon fill="black" stroke="black" points="206.82,-124.73 196.23,-124.39 204.3,-131.26 206.82,-124.73"/>
</g>
<!-- PJD&#45;03&#45;&gt;AOU&#45;21 -->
<g id="edge3" class="edge">
<title>PJD&#45;03&#45;&gt;AOU&#45;21</title>
<path fill="none" stroke="black" d="M893.26,-273.74C778.91,-245.47 588.89,-193.71 433,-128 416.03,-120.85 398.33,-111.87 382.07,-102.96"/>
<polygon fill="black" stroke="black" points="383.64,-99.83 373.2,-98.02 380.24,-105.94 383.64,-99.83"/>
</g>
<!-- PJD&#45;03&#45;&gt;NPF&#45;02 -->
<g id="edge5" class="edge">
<title>PJD&#45;03&#45;&gt;NPF&#45;02</title>
<path fill="none" stroke="black" d="M942.2,-271.99C875.35,-239.47 756.84,-181.08 657,-128 637.7,-117.74 616.77,-106.11 598.28,-95.65"/>
<polygon fill="black" stroke="black" points="599.85,-92.52 589.42,-90.63 596.39,-98.61 599.85,-92.52"/>
</g>
<!-- PJD&#45;03&#45;&gt;NPF&#45;03 -->
<g id="edge10" class="edge">
<title>PJD&#45;03&#45;&gt;NPF&#45;03</title>
<path fill="none" stroke="black" d="M969.95,-271.73C928.69,-229.28 846.49,-144.72 801.05,-97.97"/>
<polygon fill="black" stroke="black" points="803.3,-95.26 793.82,-90.53 798.28,-100.14 803.3,-95.26"/>
</g>
<!-- PJD&#45;03&#45;&gt;NPF&#45;04 -->
<g id="edge6" class="edge">
<title>PJD&#45;03&#45;&gt;NPF&#45;04</title>
<path fill="none" stroke="black" d="M995,-271.73C995,-232.3 995,-156.51 995,-108.47"/>
<polygon fill="black" stroke="black" points="998.5,-108.37 995,-98.37 991.5,-108.37 998.5,-108.37"/>
</g>
<!-- PJD&#45;03&#45;&gt;NPF&#45;05 -->
<g id="edge7" class="edge">
<title>PJD&#45;03&#45;&gt;NPF&#45;05</title>
<path fill="none" stroke="black" d="M1020.94,-271.73C1066.04,-226.91 1158.41,-135.14 1203.33,-90.51"/>
<polygon fill="black" stroke="black" points="1206,-92.78 1210.63,-83.25 1201.07,-87.82 1206,-92.78"/>
</g>
<!-- PJD&#45;03&#45;&gt;NPF&#45;06 -->
<g id="edge8" class="edge">
<title>PJD&#45;03&#45;&gt;NPF&#45;06</title>
<path fill="none" stroke="black" d="M1051.52,-271.93C1122.05,-239.7 1246.05,-181.98 1350,-128 1369.57,-117.84 1390.72,-106.14 1409.31,-95.59"/>
<polygon fill="black" stroke="black" points="1411.26,-98.51 1418.22,-90.52 1407.8,-92.43 1411.26,-98.51"/>
</g>
<!-- PJD&#45;03&#45;&gt;NPF&#45;07 -->
<g id="edge9" class="edge">
<title>PJD&#45;03&#45;&gt;NPF&#45;07</title>
<path fill="none" stroke="black" d="M1096.73,-275.04C1214.25,-247.43 1412.19,-195.78 1574,-128 1595.56,-118.97 1618.26,-106.87 1637.62,-95.69"/>
<polygon fill="black" stroke="black" points="1639.4,-98.7 1646.26,-90.63 1635.86,-92.66 1639.4,-98.7"/>
</g>
<!-- PJD&#45;03&#45;&gt;PJD&#45;02 -->
<g id="edge11" class="edge">
<title>PJD&#45;03&#45;&gt;PJD&#45;02</title>
<path fill="none" stroke="black" d="M1096.73,-284.71C1251.73,-263.32 1554.87,-213.94 1800,-128 1803.31,-126.84 1806.65,-125.61 1809.99,-124.32"/>
<polygon fill="black" stroke="black" points="1811.45,-127.51 1819.44,-120.55 1808.85,-121.01 1811.45,-127.51"/>
</g>
<!-- TA&#45;BEHAVIOURS -->
<g id="node13" class="node">
<title>TA&#45;BEHAVIOURS</title>
<g id="a_node13"><a xlink:href="https://score-json.github.io/json/main/_images/custom_TA-BEHAVIOURS_graph.svg" xlink:title="TA&#45;BEHAVIOURS: Expected\nor required behaviours\nfor nlohmann/json library\nare identified, specified,\nverified and validated\nbased on analysis. ">
<polygon fill="none" stroke="black" points="1097,-764 893,-764 893,-666 1097,-666 1097,-764"/>
<text text-anchor="middle" x="995" y="-748.8" font-family="Open Sans" font-size="14.00">TA&#45;BEHAVIOURS: Expected</text>
<text text-anchor="middle" x="995" y="-733.8" font-family="Open Sans" font-size="14.00">or required behaviours</text>
<text text-anchor="middle" x="995" y="-718.8" font-family="Open Sans" font-size="14.00">for nlohmann/json library</text>
<text text-anchor="middle" x="995" y="-703.8" font-family="Open Sans" font-size="14.00">are identified, specified,</text>
<text text-anchor="middle" x="995" y="-688.8" font-family="Open Sans" font-size="14.00">verified and validated</text>
<text text-anchor="middle" x="995" y="-673.8" font-family="Open Sans" font-size="14.00">based on analysis. </text>
</a>
</g>
</g>
<!-- TA&#45;BEHAVIOURS&#45;&gt;JLEX&#45;02 -->
<g id="edge12" class="edge">
<title>TA&#45;BEHAVIOURS&#45;&gt;JLEX&#45;02</title>
<path fill="none" stroke="black" d="M995,-666C995,-625.58 995,-568.67 995,-532.18"/>
<polygon fill="black" stroke="black" points="998.5,-532.01 995,-522.01 991.5,-532.01 998.5,-532.01"/>
</g>
<!-- TT&#45;EXPECTATIONS&#45;&gt;TA&#45;BEHAVIOURS -->
<g id="edge13" class="edge">
<title>TT&#45;EXPECTATIONS&#45;&gt;TA&#45;BEHAVIOURS</title>
<path fill="none" stroke="black" d="M995,-907.72C995,-869.23 995,-815.2 995,-774.3"/>
<polygon fill="black" stroke="black" points="998.5,-774.2 995,-764.2 991.5,-774.2 998.5,-774.2"/>
</g>
</g>
</svg>
