<?xml version="1.0" encoding="UTF-8" standalone="no"?>
<!DOCTYPE svg PUBLIC "-//W3C//DTD SVG 1.1//EN"
 "http://www.w3.org/Graphics/SVG/1.1/DTD/svg11.dtd">
<!-- Generated by graphviz version 2.43.0 (0)
 -->
<!-- Title: G Pages: 1 -->
<svg width="1639pt" height="817pt"
 viewBox="0.00 0.00 1638.50 817.00" xmlns="http://www.w3.org/2000/svg" xmlns:xlink="http://www.w3.org/1999/xlink">
<g id="graph0" class="graph" transform="scale(1 1) rotate(0) translate(4 813)">
<title>G</title>
<polygon fill="white" stroke="transparent" points="-4,4 -4,-813 1634.5,-813 1634.5,4 -4,4"/>
<!-- TRUSTABLE&#45;SOFTWARE -->
<g id="node1" class="node">
<title>TRUSTABLE&#45;SOFTWARE</title>
<g id="a_node1"><a xlink:href="https://score-json.github.io/json/main/_images/custom_TRUSTABLE-SOFTWARE_graph.svg" xlink:title="TRUSTABLE&#45;SOFTWARE: This\nrelease of JSON&#45;Library\nalso reffered in the\ndocumentation as nlohmann/json\nlibrary is Trustable.\n">
<polygon fill="none" stroke="black" points="934,-809 686,-809 686,-726 934,-726 934,-809"/>
<text text-anchor="middle" x="810" y="-793.8" font-family="Open Sans" font-size="14.00">TRUSTABLE&#45;SOFTWARE: This</text>
<text text-anchor="middle" x="810" y="-778.8" font-family="Open Sans" font-size="14.00">release of JSON&#45;Library</text>
<text text-anchor="middle" x="810" y="-763.8" font-family="Open Sans" font-size="14.00">also reffered in the</text>
<text text-anchor="middle" x="810" y="-748.8" font-family="Open Sans" font-size="14.00">documentation as nlohmann/json</text>
<text text-anchor="middle" x="810" y="-733.8" font-family="Open Sans" font-size="14.00">library is Trustable.</text>
</a>
</g>
</g>
<!-- TT&#45;CHANGES -->
<g id="node8" class="node">
<title>TT&#45;CHANGES</title>
<g id="a_node8"><a xlink:href="https://score-json.github.io/json/main/_images/custom_TT-CHANGES_graph.svg" xlink:title="TT&#45;CHANGES: nlohmann/json\nlibrary is actively maintained,\nwith regular updates\nto dependencies, and\nchanges are verified\nto prevent regressions.\n">
<polygon fill="none" stroke="black" points="921,-582 699,-582 699,-484 921,-484 921,-582"/>
<text text-anchor="middle" x="810" y="-566.8" font-family="Open Sans" font-size="14.00">TT&#45;CHANGES: nlohmann/json</text>
<text text-anchor="middle" x="810" y="-551.8" font-family="Open Sans" font-size="14.00">library is actively maintained,</text>
<text text-anchor="middle" x="810" y="-536.8" font-family="Open Sans" font-size="14.00">with regular updates</text>
<text text-anchor="middle" x="810" y="-521.8" font-family="Open Sans" font-size="14.00">to dependencies, and</text>
<text text-anchor="middle" x="810" y="-506.8" font-family="Open Sans" font-size="14.00">changes are verified</text>
<text text-anchor="middle" x="810" y="-491.8" font-family="Open Sans" font-size="14.00">to prevent regressions.</text>
</a>
</g>
</g>
<!-- TRUSTABLE&#45;SOFTWARE&#45;&gt;TT&#45;CHANGES -->
<g id="edge1" class="edge">
<title>TRUSTABLE&#45;SOFTWARE&#45;&gt;TT&#45;CHANGES</title>
<path fill="none" stroke="black" d="M810,-725.74C810,-688.88 810,-634.18 810,-592.63"/>
<polygon fill="black" stroke="black" points="813.5,-592.37 810,-582.37 806.5,-592.37 813.5,-592.37"/>
</g>
<!-- AOU&#45;01 -->
<g id="node2" class="node">
<title>AOU&#45;01</title>
<g id="a_node2"><a xlink:href="https://score-json.github.io/json/main/generated/AOU.html#aou-01" xlink:title="AOU&#45;01: Problems with\nnlohmann/json&#39;s implementation\nidentified during testing\nare reported to the upstream\nnlohmann/json project.\n">
<polygon fill="none" stroke="black" points="244,-90.5 0,-90.5 0,-7.5 244,-7.5 244,-90.5"/>
<text text-anchor="middle" x="122" y="-75.3" font-family="Open Sans" font-size="14.00">AOU&#45;01: Problems with</text>
<text text-anchor="middle" x="122" y="-60.3" font-family="Open Sans" font-size="14.00">nlohmann/json&#39;s implementation</text>
<text text-anchor="middle" x="122" y="-45.3" font-family="Open Sans" font-size="14.00">identified during testing</text>
<text text-anchor="middle" x="122" y="-30.3" font-family="Open Sans" font-size="14.00">are reported to the upstream</text>
<text text-anchor="middle" x="122" y="-15.3" font-family="Open Sans" font-size="14.00">nlohmann/json project.</text>
</a>
</g>
</g>
<!-- AOU&#45;10 -->
<g id="node3" class="node">
<title>AOU&#45;10</title>
<g id="a_node3"><a xlink:href="https://score-json.github.io/json/main/generated/AOU.html#aou-10" xlink:title="AOU&#45;10: The integrator\nis required to evaluate\nthe provided evidence\nfor TA&#45;FIXES and supplement\nit where necessary. ">
<polygon fill="none" stroke="black" points="483.5,-90.5 262.5,-90.5 262.5,-7.5 483.5,-7.5 483.5,-90.5"/>
<text text-anchor="middle" x="373" y="-75.3" font-family="Open Sans" font-size="14.00">AOU&#45;10: The integrator</text>
<text text-anchor="middle" x="373" y="-60.3" font-family="Open Sans" font-size="14.00">is required to evaluate</text>
<text text-anchor="middle" x="373" y="-45.3" font-family="Open Sans" font-size="14.00">the provided evidence</text>
<text text-anchor="middle" x="373" y="-30.3" font-family="Open Sans" font-size="14.00">for TA&#45;FIXES and supplement</text>
<text text-anchor="middle" x="373" y="-15.3" font-family="Open Sans" font-size="14.00">it where necessary. </text>
</a>
</g>
</g>
<!-- JLS&#45;04 -->
<g id="node4" class="node">
<title>JLS&#45;04</title>
<g id="a_node4"><a xlink:href="https://score-json.github.io/json/main/generated/JLS.html#jls-04" xlink:title="JLS&#45;04: The project runs\ndependabot on all code\nentering the main branch,\nblocking merges until\nall warnings are resolved.\n(https://github.com/score&#45;json/json/blob/main/nlohmann_json/.github/dependabot.yml)\n">
<polygon fill="none" stroke="black" points="1119,-98 501,-98 501,0 1119,0 1119,-98"/>
<text text-anchor="middle" x="810" y="-82.8" font-family="Open Sans" font-size="14.00">JLS&#45;04: The project runs</text>
<text text-anchor="middle" x="810" y="-67.8" font-family="Open Sans" font-size="14.00">dependabot on all code</text>
<text text-anchor="middle" x="810" y="-52.8" font-family="Open Sans" font-size="14.00">entering the main branch,</text>
<text text-anchor="middle" x="810" y="-37.8" font-family="Open Sans" font-size="14.00">blocking merges until</text>
<text text-anchor="middle" x="810" y="-22.8" font-family="Open Sans" font-size="14.00">all warnings are resolved.</text>
<text text-anchor="middle" x="810" y="-7.8" font-family="Open Sans" font-size="14.00">(https://github.com/score&#45;json/json/blob/main/nlohmann_json/.github/dependabot.yml)</text>
</a>
</g>
</g>
<!-- JLS&#45;05 -->
<g id="node5" class="node">
<title>JLS&#45;05</title>
<g id="a_node5"><a xlink:href="https://score-json.github.io/json/main/generated/JLS.html#jls-05" xlink:title="JLS&#45;05: The OSS nlohmann/json\nis widely used, actively\nmaintained and uses github\nissues to track bugs\nand misbehaviours. ">
<polygon fill="none" stroke="black" points="1373,-90.5 1137,-90.5 1137,-7.5 1373,-7.5 1373,-90.5"/>
<text text-anchor="middle" x="1255" y="-75.3" font-family="Open Sans" font-size="14.00">JLS&#45;05: The OSS nlohmann/json</text>
<text text-anchor="middle" x="1255" y="-60.3" font-family="Open Sans" font-size="14.00">is widely used, actively</text>
<text text-anchor="middle" x="1255" y="-45.3" font-family="Open Sans" font-size="14.00">maintained and uses github</text>
<text text-anchor="middle" x="1255" y="-30.3" font-family="Open Sans" font-size="14.00">issues to track bugs</text>
<text text-anchor="middle" x="1255" y="-15.3" font-family="Open Sans" font-size="14.00">and misbehaviours. </text>
</a>
</g>
</g>
<!-- JLS&#45;11 -->
<g id="node6" class="node">
<title>JLS&#45;11</title>
<g id="a_node6"><a xlink:href="https://score-json.github.io/json/main/generated/JLS.html#jls-11" xlink:title="JLS&#45;11: A score based\non outstanding, fixed\nand mitigated faults\nis calculated based on\ngithub issues in nlohmann/json.\n(TODO) ">
<polygon fill="none" stroke="black" points="1630.5,-98 1391.5,-98 1391.5,0 1630.5,0 1630.5,-98"/>
<text text-anchor="middle" x="1511" y="-82.8" font-family="Open Sans" font-size="14.00">JLS&#45;11: A score based</text>
<text text-anchor="middle" x="1511" y="-67.8" font-family="Open Sans" font-size="14.00">on outstanding, fixed</text>
<text text-anchor="middle" x="1511" y="-52.8" font-family="Open Sans" font-size="14.00">and mitigated faults</text>
<text text-anchor="middle" x="1511" y="-37.8" font-family="Open Sans" font-size="14.00">is calculated based on</text>
<text text-anchor="middle" x="1511" y="-22.8" font-family="Open Sans" font-size="14.00">github issues in nlohmann/json.</text>
<text text-anchor="middle" x="1511" y="-7.8" font-family="Open Sans" font-size="14.00">(TODO) </text>
</a>
</g>
</g>
<!-- TA&#45;FIXES -->
<g id="node7" class="node">
<title>TA&#45;FIXES</title>
<g id="a_node7"><a xlink:href="https://score-json.github.io/json/main/_images/custom_TA-FIXES_graph.svg" xlink:title="TA&#45;FIXES: Known bugs\nor misbehaviours are\nanalysed and triaged,\nand critical fixes or\nmitigations are implemented\nor applied. ">
<polygon fill="none" stroke="black" points="918,-340 702,-340 702,-242 918,-242 918,-340"/>
<text text-anchor="middle" x="810" y="-324.8" font-family="Open Sans" font-size="14.00">TA&#45;FIXES: Known bugs</text>
<text text-anchor="middle" x="810" y="-309.8" font-family="Open Sans" font-size="14.00">or misbehaviours are</text>
<text text-anchor="middle" x="810" y="-294.8" font-family="Open Sans" font-size="14.00">analysed and triaged,</text>
<text text-anchor="middle" x="810" y="-279.8" font-family="Open Sans" font-size="14.00">and critical fixes or</text>
<text text-anchor="middle" x="810" y="-264.8" font-family="Open Sans" font-size="14.00">mitigations are implemented</text>
<text text-anchor="middle" x="810" y="-249.8" font-family="Open Sans" font-size="14.00">or applied. </text>
</a>
</g>
</g>
<!-- TA&#45;FIXES&#45;&gt;AOU&#45;01 -->
<g id="edge3" class="edge">
<title>TA&#45;FIXES&#45;&gt;AOU&#45;01</title>
<path fill="none" stroke="black" d="M701.96,-253.45C589.59,-215.27 408.65,-153.34 253,-98 249.32,-96.69 245.58,-95.36 241.81,-94"/>
<polygon fill="black" stroke="black" points="242.97,-90.7 232.37,-90.61 240.6,-97.29 242.97,-90.7"/>
</g>
<!-- TA&#45;FIXES&#45;&gt;AOU&#45;10 -->
<g id="edge6" class="edge">
<title>TA&#45;FIXES&#45;&gt;AOU&#45;10</title>
<path fill="none" stroke="black" d="M722.35,-241.87C644.78,-199.26 532.37,-137.52 456.17,-95.68"/>
<polygon fill="black" stroke="black" points="457.51,-92.42 447.06,-90.68 454.14,-98.56 457.51,-92.42"/>
</g>
<!-- TA&#45;FIXES&#45;&gt;JLS&#45;04 -->
<g id="edge4" class="edge">
<title>TA&#45;FIXES&#45;&gt;JLS&#45;04</title>
<path fill="none" stroke="black" d="M810,-241.72C810,-203.23 810,-149.2 810,-108.3"/>
<polygon fill="black" stroke="black" points="813.5,-108.2 810,-98.2 806.5,-108.2 813.5,-108.2"/>
</g>
<!-- TA&#45;FIXES&#45;&gt;JLS&#45;05 -->
<g id="edge2" class="edge">
<title>TA&#45;FIXES&#45;&gt;JLS&#45;05</title>
<path fill="none" stroke="black" d="M899.25,-241.87C978.4,-199.17 1093.18,-137.27 1170.78,-95.42"/>
<polygon fill="black" stroke="black" points="1172.44,-98.5 1179.58,-90.68 1169.12,-92.34 1172.44,-98.5"/>
</g>
<!-- TA&#45;FIXES&#45;&gt;JLS&#45;11 -->
<g id="edge5" class="edge">
<title>TA&#45;FIXES&#45;&gt;JLS&#45;11</title>
<path fill="none" stroke="black" d="M918.15,-254.85C1031.3,-217.82 1214.21,-157.2 1381.74,-98.07"/>
<polygon fill="black" stroke="black" points="1382.96,-101.35 1391.23,-94.72 1380.63,-94.75 1382.96,-101.35"/>
</g>
<!-- TT&#45;CHANGES&#45;&gt;TA&#45;FIXES -->
<g id="edge7" class="edge">
<title>TT&#45;CHANGES&#45;&gt;TA&#45;FIXES</title>
<path fill="none" stroke="black" d="M810,-483.72C810,-445.23 810,-391.2 810,-350.3"/>
<polygon fill="black" stroke="black" points="813.5,-350.2 810,-340.2 806.5,-350.2 813.5,-350.2"/>
</g>
</g>
</svg>
