<?xml version="1.0" encoding="UTF-8" standalone="no"?>
<!DOCTYPE svg PUBLIC "-//W3C//DTD SVG 1.1//EN"
 "http://www.w3.org/Graphics/SVG/1.1/DTD/svg11.dtd">
<!-- Generated by graphviz version 2.43.0 (0)
 -->
<!-- Title: G Pages: 1 -->
<svg width="2015pt" height="862pt"
 viewBox="0.00 0.00 2015.00 862.00" xmlns="http://www.w3.org/2000/svg" xmlns:xlink="http://www.w3.org/1999/xlink">
<g id="graph0" class="graph" transform="scale(1 1) rotate(0) translate(4 858)">
<title>G</title>
<polygon fill="white" stroke="transparent" points="-4,4 -4,-858 2011,-858 2011,4 -4,4"/>
<!-- TRUSTABLE&#45;SOFTWARE -->
<g id="node1" class="node">
<title>TRUSTABLE&#45;SOFTWARE</title>
<g id="a_node1"><a xlink:href="https://score-json.github.io/json/main/_images/custom_TRUSTABLE-SOFTWARE_graph.svg" xlink:title="TRUSTABLE&#45;SOFTWARE: This\nrelease of JSON&#45;Library\nalso referred in the\ndocumentation as nlohmann/json\nlibrary is Trustable.\n" target="_top">
<polygon fill="none" stroke="black" points="1074,-854 826,-854 826,-771 1074,-771 1074,-854"/>
<text text-anchor="middle" x="950" y="-838.8" font-family="Open Sans" font-size="14.00">TRUSTABLE&#45;SOFTWARE: This</text>
<text text-anchor="middle" x="950" y="-823.8" font-family="Open Sans" font-size="14.00">release of JSON&#45;Library</text>
<text text-anchor="middle" x="950" y="-808.8" font-family="Open Sans" font-size="14.00">also referred in the</text>
<text text-anchor="middle" x="950" y="-793.8" font-family="Open Sans" font-size="14.00">documentation as nlohmann/json</text>
<text text-anchor="middle" x="950" y="-778.8" font-family="Open Sans" font-size="14.00">library is Trustable.</text>
</a>
</g>
</g>
<!-- TT&#45;CHANGES -->
<g id="node10" class="node">
<title>TT&#45;CHANGES</title>
<g id="a_node10"><a xlink:href="https://score-json.github.io/json/main/_images/custom_TT-CHANGES_graph.svg" xlink:title="TT&#45;CHANGES: The nlohmann/json\nlibrary is actively maintained,\nwith regular updates\nto dependencies, and\nchanges are verified\nto prevent regressions.\n" target="_top">
<polygon fill="none" stroke="black" points="1074,-627 826,-627 826,-529 1074,-529 1074,-627"/>
<text text-anchor="middle" x="950" y="-611.8" font-family="Open Sans" font-size="14.00">TT&#45;CHANGES: The nlohmann/json</text>
<text text-anchor="middle" x="950" y="-596.8" font-family="Open Sans" font-size="14.00">library is actively maintained,</text>
<text text-anchor="middle" x="950" y="-581.8" font-family="Open Sans" font-size="14.00">with regular updates</text>
<text text-anchor="middle" x="950" y="-566.8" font-family="Open Sans" font-size="14.00">to dependencies, and</text>
<text text-anchor="middle" x="950" y="-551.8" font-family="Open Sans" font-size="14.00">changes are verified</text>
<text text-anchor="middle" x="950" y="-536.8" font-family="Open Sans" font-size="14.00">to prevent regressions.</text>
</a>
</g>
</g>
<!-- TRUSTABLE&#45;SOFTWARE&#45;&gt;TT&#45;CHANGES -->
<g id="edge1" class="edge">
<title>TRUSTABLE&#45;SOFTWARE&#45;&gt;TT&#45;CHANGES</title>
<path fill="none" stroke="black" d="M950,-770.74C950,-733.88 950,-679.18 950,-637.63"/>
<polygon fill="black" stroke="black" points="953.5,-637.37 950,-627.37 946.5,-637.37 953.5,-637.37"/>
</g>
<!-- JLS&#45;04 -->
<g id="node2" class="node">
<title>JLS&#45;04</title>
<g id="a_node2"><a xlink:href="https://score-json.github.io/json/main/generated/JLS.html#jls-04" xlink:title="JLS&#45;04: External dependencies\nwithin nlohmann/json\nare checked for potential\nsecurity vulnerabilities\nwith each pull request\nto main. Merging is blocked\nuntil all warnings are\nresolved. " target="_top">
<polygon fill="none" stroke="black" points="228,-128 0,-128 0,0 228,0 228,-128"/>
<text text-anchor="middle" x="114" y="-112.8" font-family="Open Sans" font-size="14.00">JLS&#45;04: External dependencies</text>
<text text-anchor="middle" x="114" y="-97.8" font-family="Open Sans" font-size="14.00">within nlohmann/json</text>
<text text-anchor="middle" x="114" y="-82.8" font-family="Open Sans" font-size="14.00">are checked for potential</text>
<text text-anchor="middle" x="114" y="-67.8" font-family="Open Sans" font-size="14.00">security vulnerabilities</text>
<text text-anchor="middle" x="114" y="-52.8" font-family="Open Sans" font-size="14.00">with each pull request</text>
<text text-anchor="middle" x="114" y="-37.8" font-family="Open Sans" font-size="14.00">to main. Merging is blocked</text>
<text text-anchor="middle" x="114" y="-22.8" font-family="Open Sans" font-size="14.00">until all warnings are</text>
<text text-anchor="middle" x="114" y="-7.8" font-family="Open Sans" font-size="14.00">resolved. </text>
</a>
</g>
</g>
<!-- JLS&#45;05 -->
<g id="node3" class="node">
<title>JLS&#45;05</title>
<g id="a_node3"><a xlink:href="https://score-json.github.io/json/main/generated/JLS.html#jls-05" xlink:title="JLS&#45;05: The nlohmann/json\nlibrary is widely used\nand actively maintained;\nbugs and misbehaviours\nare tracked publicly\nand transparently. " target="_top">
<polygon fill="none" stroke="black" points="449.5,-113 246.5,-113 246.5,-15 449.5,-15 449.5,-113"/>
<text text-anchor="middle" x="348" y="-97.8" font-family="Open Sans" font-size="14.00">JLS&#45;05: The nlohmann/json</text>
<text text-anchor="middle" x="348" y="-82.8" font-family="Open Sans" font-size="14.00">library is widely used</text>
<text text-anchor="middle" x="348" y="-67.8" font-family="Open Sans" font-size="14.00">and actively maintained;</text>
<text text-anchor="middle" x="348" y="-52.8" font-family="Open Sans" font-size="14.00">bugs and misbehaviours</text>
<text text-anchor="middle" x="348" y="-37.8" font-family="Open Sans" font-size="14.00">are tracked publicly</text>
<text text-anchor="middle" x="348" y="-22.8" font-family="Open Sans" font-size="14.00">and transparently. </text>
</a>
</g>
</g>
<!-- JLS&#45;11 -->
<g id="node4" class="node">
<title>JLS&#45;11</title>
<g id="a_node4"><a xlink:href="https://score-json.github.io/json/main/generated/JLS.html#jls-11" xlink:title="JLS&#45;11: Outstanding bugs\nor misbehaviours are\nanalyzed within eclipse&#45;score/inc_nlohmann_json\nto determine whether\nthey are relevant for\nS&#45;CORE&#39;s use cases of\nthe nlohmann/json library.\n" target="_top">
<polygon fill="none" stroke="black" points="823,-120.5 467,-120.5 467,-7.5 823,-7.5 823,-120.5"/>
<text text-anchor="middle" x="645" y="-105.3" font-family="Open Sans" font-size="14.00">JLS&#45;11: Outstanding bugs</text>
<text text-anchor="middle" x="645" y="-90.3" font-family="Open Sans" font-size="14.00">or misbehaviours are</text>
<text text-anchor="middle" x="645" y="-75.3" font-family="Open Sans" font-size="14.00">analyzed within eclipse&#45;score/inc_nlohmann_json</text>
<text text-anchor="middle" x="645" y="-60.3" font-family="Open Sans" font-size="14.00">to determine whether</text>
<text text-anchor="middle" x="645" y="-45.3" font-family="Open Sans" font-size="14.00">they are relevant for</text>
<text text-anchor="middle" x="645" y="-30.3" font-family="Open Sans" font-size="14.00">S&#45;CORE&#39;s use cases of</text>
<text text-anchor="middle" x="645" y="-15.3" font-family="Open Sans" font-size="14.00">the nlohmann/json library.</text>
</a>
</g>
</g>
<!-- JLS&#45;28 -->
<g id="node5" class="node">
<title>JLS&#45;28</title>
<g id="a_node5"><a xlink:href="https://score-json.github.io/json/main/generated/JLS.html#jls-28" xlink:title="JLS&#45;28: Outstanding bugs\nand misbehaviours are\ntriaged in the nlohmann/json\nrepository. " target="_top">
<polygon fill="none" stroke="black" points="1059,-98 841,-98 841,-30 1059,-30 1059,-98"/>
<text text-anchor="middle" x="950" y="-82.8" font-family="Open Sans" font-size="14.00">JLS&#45;28: Outstanding bugs</text>
<text text-anchor="middle" x="950" y="-67.8" font-family="Open Sans" font-size="14.00">and misbehaviours are</text>
<text text-anchor="middle" x="950" y="-52.8" font-family="Open Sans" font-size="14.00">triaged in the nlohmann/json</text>
<text text-anchor="middle" x="950" y="-37.8" font-family="Open Sans" font-size="14.00">repository. </text>
</a>
</g>
</g>
<!-- JLS&#45;29 -->
<g id="node6" class="node">
<title>JLS&#45;29</title>
<g id="a_node6"><a xlink:href="https://score-json.github.io/json/main/generated/JLS.html#jls-29" xlink:title="JLS&#45;29: Known bugs, misbehaviours\nand CVEs are analyzed\nand either fixed or mitigated\nin the nlohmann/json\nrepository. " target="_top">
<polygon fill="none" stroke="black" points="1343,-105.5 1077,-105.5 1077,-22.5 1343,-22.5 1343,-105.5"/>
<text text-anchor="middle" x="1210" y="-90.3" font-family="Open Sans" font-size="14.00">JLS&#45;29: Known bugs, misbehaviours</text>
<text text-anchor="middle" x="1210" y="-75.3" font-family="Open Sans" font-size="14.00">and CVEs are analyzed</text>
<text text-anchor="middle" x="1210" y="-60.3" font-family="Open Sans" font-size="14.00">and either fixed or mitigated</text>
<text text-anchor="middle" x="1210" y="-45.3" font-family="Open Sans" font-size="14.00">in the nlohmann/json</text>
<text text-anchor="middle" x="1210" y="-30.3" font-family="Open Sans" font-size="14.00">repository. </text>
</a>
</g>
</g>
<!-- JLS&#45;30 -->
<g id="node7" class="node">
<title>JLS&#45;30</title>
<g id="a_node7"><a xlink:href="https://score-json.github.io/json/main/generated/JLS.html#jls-30" xlink:title="JLS&#45;30: Outstanding CVEs\nare analyzed within eclipse&#45;score/inc_nlohmann_json\nto determine whether\nthey can be dismissed,\nand/or are relevant for\nS&#45;CORE&#39;s use cases of\nthe nlohmann/json library.\n" target="_top">
<polygon fill="none" stroke="black" points="1744.5,-120.5 1361.5,-120.5 1361.5,-7.5 1744.5,-7.5 1744.5,-120.5"/>
<text text-anchor="middle" x="1553" y="-105.3" font-family="Open Sans" font-size="14.00">JLS&#45;30: Outstanding CVEs</text>
<text text-anchor="middle" x="1553" y="-90.3" font-family="Open Sans" font-size="14.00">are analyzed within eclipse&#45;score/inc_nlohmann_json</text>
<text text-anchor="middle" x="1553" y="-75.3" font-family="Open Sans" font-size="14.00">to determine whether</text>
<text text-anchor="middle" x="1553" y="-60.3" font-family="Open Sans" font-size="14.00">they can be dismissed,</text>
<text text-anchor="middle" x="1553" y="-45.3" font-family="Open Sans" font-size="14.00">and/or are relevant for</text>
<text text-anchor="middle" x="1553" y="-30.3" font-family="Open Sans" font-size="14.00">S&#45;CORE&#39;s use cases of</text>
<text text-anchor="middle" x="1553" y="-15.3" font-family="Open Sans" font-size="14.00">the nlohmann/json library.</text>
</a>
</g>
</g>
<!-- JLS&#45;33 -->
<g id="node8" class="node">
<title>JLS&#45;33</title>
<g id="a_node8"><a xlink:href="https://score-json.github.io/json/main/generated/JLS.html#jls-33" xlink:title="JLS&#45;33: Outstanding CVEs\nare triaged in the nlohmann/json\nrepository. " target="_top">
<polygon fill="none" stroke="black" points="2007,-90.5 1763,-90.5 1763,-37.5 2007,-37.5 2007,-90.5"/>
<text text-anchor="middle" x="1885" y="-75.3" font-family="Open Sans" font-size="14.00">JLS&#45;33: Outstanding CVEs</text>
<text text-anchor="middle" x="1885" y="-60.3" font-family="Open Sans" font-size="14.00">are triaged in the nlohmann/json</text>
<text text-anchor="middle" x="1885" y="-45.3" font-family="Open Sans" font-size="14.00">repository. </text>
</a>
</g>
</g>
<!-- TA&#45;FIXES -->
<g id="node9" class="node">
<title>TA&#45;FIXES</title>
<g id="a_node9"><a xlink:href="https://score-json.github.io/json/main/_images/custom_TA-FIXES_graph.svg" xlink:title="TA&#45;FIXES: In the nlohmann/json\nrepository, known bugs\nor misbehaviours are\nanalysed and triaged,\nand critical fixes or\nmitigations are implemented\nor applied. " target="_top">
<polygon fill="none" stroke="black" points="1068,-385 832,-385 832,-272 1068,-272 1068,-385"/>
<text text-anchor="middle" x="950" y="-369.8" font-family="Open Sans" font-size="14.00">TA&#45;FIXES: In the nlohmann/json</text>
<text text-anchor="middle" x="950" y="-354.8" font-family="Open Sans" font-size="14.00">repository, known bugs</text>
<text text-anchor="middle" x="950" y="-339.8" font-family="Open Sans" font-size="14.00">or misbehaviours are</text>
<text text-anchor="middle" x="950" y="-324.8" font-family="Open Sans" font-size="14.00">analysed and triaged,</text>
<text text-anchor="middle" x="950" y="-309.8" font-family="Open Sans" font-size="14.00">and critical fixes or</text>
<text text-anchor="middle" x="950" y="-294.8" font-family="Open Sans" font-size="14.00">mitigations are implemented</text>
<text text-anchor="middle" x="950" y="-279.8" font-family="Open Sans" font-size="14.00">or applied. </text>
</a>
</g>
</g>
<!-- TA&#45;FIXES&#45;&gt;JLS&#45;04 -->
<g id="edge3" class="edge">
<title>TA&#45;FIXES&#45;&gt;JLS&#45;04</title>
<path fill="none" stroke="black" d="M831.88,-302.12C690.6,-270.06 447.87,-209.51 237.59,-128.1"/>
<polygon fill="black" stroke="black" points="238.82,-124.82 228.23,-124.46 236.28,-131.35 238.82,-124.82"/>
</g>
<!-- TA&#45;FIXES&#45;&gt;JLS&#45;05 -->
<g id="edge2" class="edge">
<title>TA&#45;FIXES&#45;&gt;JLS&#45;05</title>
<path fill="none" stroke="black" d="M831.75,-284.69C730.86,-246.96 582.75,-188.67 458,-128 451.47,-124.82 444.79,-121.42 438.12,-117.9"/>
<polygon fill="black" stroke="black" points="439.5,-114.67 429.03,-113.04 436.2,-120.84 439.5,-114.67"/>
</g>
<!-- TA&#45;FIXES&#45;&gt;JLS&#45;11 -->
<g id="edge4" class="edge">
<title>TA&#45;FIXES&#45;&gt;JLS&#45;11</title>
<path fill="none" stroke="black" d="M885.32,-271.83C836.09,-229.46 768.33,-171.14 717.31,-127.23"/>
<polygon fill="black" stroke="black" points="719.45,-124.46 709.59,-120.59 714.89,-129.77 719.45,-124.46"/>
</g>
<!-- TA&#45;FIXES&#45;&gt;JLS&#45;28 -->
<g id="edge7" class="edge">
<title>TA&#45;FIXES&#45;&gt;JLS&#45;28</title>
<path fill="none" stroke="black" d="M950,-271.83C950,-223.07 950,-153.19 950,-108.45"/>
<polygon fill="black" stroke="black" points="953.5,-108.2 950,-98.2 946.5,-108.2 953.5,-108.2"/>
</g>
<!-- TA&#45;FIXES&#45;&gt;JLS&#45;29 -->
<g id="edge6" class="edge">
<title>TA&#45;FIXES&#45;&gt;JLS&#45;29</title>
<path fill="none" stroke="black" d="M1005.14,-271.83C1051.88,-224.64 1118.2,-157.68 1162.59,-112.86"/>
<polygon fill="black" stroke="black" points="1165.24,-115.16 1169.79,-105.59 1160.27,-110.23 1165.24,-115.16"/>
</g>
<!-- TA&#45;FIXES&#45;&gt;JLS&#45;30 -->
<g id="edge5" class="edge">
<title>TA&#45;FIXES&#45;&gt;JLS&#45;30</title>
<path fill="none" stroke="black" d="M1068.05,-276.11C1167.9,-232.64 1311.05,-170.33 1415.94,-124.67"/>
<polygon fill="black" stroke="black" points="1417.56,-127.78 1425.33,-120.58 1414.76,-121.36 1417.56,-127.78"/>
</g>
<!-- TA&#45;FIXES&#45;&gt;JLS&#45;33 -->
<g id="edge8" class="edge">
<title>TA&#45;FIXES&#45;&gt;JLS&#45;33</title>
<path fill="none" stroke="black" d="M1068.06,-306.1C1226.8,-275.55 1516.54,-213.54 1754,-128 1779.15,-118.94 1805.91,-106.6 1828.64,-95.23"/>
<polygon fill="black" stroke="black" points="1830.45,-98.24 1837.8,-90.6 1827.29,-91.99 1830.45,-98.24"/>
</g>
<!-- TT&#45;CHANGES&#45;&gt;TA&#45;FIXES -->
<g id="edge9" class="edge">
<title>TT&#45;CHANGES&#45;&gt;TA&#45;FIXES</title>
<path fill="none" stroke="black" d="M950,-528.99C950,-490.93 950,-437.36 950,-395.31"/>
<polygon fill="black" stroke="black" points="953.5,-395.16 950,-385.16 946.5,-395.16 953.5,-395.16"/>
</g>
</g>
</svg>
