<?xml version="1.0" encoding="UTF-8" standalone="no"?>
<!DOCTYPE svg PUBLIC "-//W3C//DTD SVG 1.1//EN"
 "http://www.w3.org/Graphics/SVG/1.1/DTD/svg11.dtd">
<!-- Generated by graphviz version 2.43.0 (0)
 -->
<!-- Title: G Pages: 1 -->
<svg width="468pt" height="817pt"
 viewBox="0.00 0.00 468.00 817.00" xmlns="http://www.w3.org/2000/svg" xmlns:xlink="http://www.w3.org/1999/xlink">
<g id="graph0" class="graph" transform="scale(1 1) rotate(0) translate(4 813)">
<title>G</title>
<polygon fill="white" stroke="transparent" points="-4,4 -4,-813 464,-813 464,4 -4,4"/>
<!-- TRUSTABLE&#45;SOFTWARE -->
<g id="node1" class="node">
<title>TRUSTABLE&#45;SOFTWARE</title>
<g id="a_node1"><a xlink:href="https://score-json.github.io/json/main/_images/TRUSTABLE-SOFTWARE.svg" xlink:title="TRUSTABLE&#45;SOFTWARE: This\nrelease of JSON&#45;Library\nalso reffered in the\ndocumentation as nlohmann/json\nlibrary is Trustable.\n">
<polygon fill="none" stroke="black" points="338,-809 90,-809 90,-726 338,-726 338,-809"/>
<text text-anchor="middle" x="214" y="-793.8" font-family="Open Sans" font-size="14.00">TRUSTABLE&#45;SOFTWARE: This</text>
<text text-anchor="middle" x="214" y="-778.8" font-family="Open Sans" font-size="14.00">release of JSON&#45;Library</text>
<text text-anchor="middle" x="214" y="-763.8" font-family="Open Sans" font-size="14.00">also reffered in the</text>
<text text-anchor="middle" x="214" y="-748.8" font-family="Open Sans" font-size="14.00">documentation as nlohmann/json</text>
<text text-anchor="middle" x="214" y="-733.8" font-family="Open Sans" font-size="14.00">library is Trustable.</text>
</a>
</g>
</g>
<!-- TT&#45;CONFIDENCE -->
<g id="node5" class="node">
<title>TT&#45;CONFIDENCE</title>
<g id="a_node5"><a xlink:href="https://score-json.github.io/json/main/_images/TT-CONFIDENCE.svg" xlink:title="TT&#45;CONFIDENCE: Confidence\nin nlohmann/json library\nis achieved by measuring\nand analysing behaviour\nand evidence over time.\n">
<polygon fill="none" stroke="black" points="323,-582 105,-582 105,-499 323,-499 323,-582"/>
<text text-anchor="middle" x="214" y="-566.8" font-family="Open Sans" font-size="14.00">TT&#45;CONFIDENCE: Confidence</text>
<text text-anchor="middle" x="214" y="-551.8" font-family="Open Sans" font-size="14.00">in nlohmann/json library</text>
<text text-anchor="middle" x="214" y="-536.8" font-family="Open Sans" font-size="14.00">is achieved by measuring</text>
<text text-anchor="middle" x="214" y="-521.8" font-family="Open Sans" font-size="14.00">and analysing behaviour</text>
<text text-anchor="middle" x="214" y="-506.8" font-family="Open Sans" font-size="14.00">and evidence over time.</text>
</a>
</g>
</g>
<!-- TRUSTABLE&#45;SOFTWARE&#45;&gt;TT&#45;CONFIDENCE -->
<g id="edge1" class="edge">
<title>TRUSTABLE&#45;SOFTWARE&#45;&gt;TT&#45;CONFIDENCE</title>
<path fill="none" stroke="black" d="M214,-725.75C214,-688.36 214,-632.81 214,-592.48"/>
<polygon fill="black" stroke="black" points="217.5,-592.32 214,-582.32 210.5,-592.32 217.5,-592.32"/>
</g>
<!-- AOU&#45;11 -->
<g id="node2" class="node">
<title>AOU&#45;11</title>
<g id="a_node2"><a xlink:href="https://score-json.github.io/json/main/generated/AOU.html#aou-11" xlink:title="AOU&#45;11: The integrator\nis required to evaluate\nthe provided evidence\nfor TA&#45;METHODOLOGIES\nand supplement it where\nnecessary. ">
<polygon fill="none" stroke="black" points="190,-98 0,-98 0,0 190,0 190,-98"/>
<text text-anchor="middle" x="95" y="-82.8" font-family="Open Sans" font-size="14.00">AOU&#45;11: The integrator</text>
<text text-anchor="middle" x="95" y="-67.8" font-family="Open Sans" font-size="14.00">is required to evaluate</text>
<text text-anchor="middle" x="95" y="-52.8" font-family="Open Sans" font-size="14.00">the provided evidence</text>
<text text-anchor="middle" x="95" y="-37.8" font-family="Open Sans" font-size="14.00">for TA&#45;METHODOLOGIES</text>
<text text-anchor="middle" x="95" y="-22.8" font-family="Open Sans" font-size="14.00">and supplement it where</text>
<text text-anchor="middle" x="95" y="-7.8" font-family="Open Sans" font-size="14.00">necessary. </text>
</a>
</g>
</g>
<!-- JLS&#45;13 -->
<g id="node3" class="node">
<title>JLS&#45;13</title>
<g id="a_node3"><a xlink:href="https://score-json.github.io/json/main/generated/JLS.html#jls-13" xlink:title="JLS&#45;13: The S&#45;Core methodologies\nare followed. ">
<polygon fill="none" stroke="black" points="460,-68 208,-68 208,-30 460,-30 460,-68"/>
<text text-anchor="middle" x="334" y="-52.8" font-family="Open Sans" font-size="14.00">JLS&#45;13: The S&#45;Core methodologies</text>
<text text-anchor="middle" x="334" y="-37.8" font-family="Open Sans" font-size="14.00">are followed. </text>
</a>
</g>
</g>
<!-- TA&#45;METHODOLOGIES -->
<g id="node4" class="node">
<title>TA&#45;METHODOLOGIES</title>
<g id="a_node4"><a xlink:href="https://score-json.github.io/json/main/_images/TA-METHODOLOGIES.svg" xlink:title="TA&#45;METHODOLOGIES: Manual\nmethodologies applied\nfor nlohmann/json library\nby contributors, and\ntheir results, are managed\naccording to specified\nobjectives. ">
<polygon fill="none" stroke="black" points="325,-355 103,-355 103,-242 325,-242 325,-355"/>
<text text-anchor="middle" x="214" y="-339.8" font-family="Open Sans" font-size="14.00">TA&#45;METHODOLOGIES: Manual</text>
<text text-anchor="middle" x="214" y="-324.8" font-family="Open Sans" font-size="14.00">methodologies applied</text>
<text text-anchor="middle" x="214" y="-309.8" font-family="Open Sans" font-size="14.00">for nlohmann/json library</text>
<text text-anchor="middle" x="214" y="-294.8" font-family="Open Sans" font-size="14.00">by contributors, and</text>
<text text-anchor="middle" x="214" y="-279.8" font-family="Open Sans" font-size="14.00">their results, are managed</text>
<text text-anchor="middle" x="214" y="-264.8" font-family="Open Sans" font-size="14.00">according to specified</text>
<text text-anchor="middle" x="214" y="-249.8" font-family="Open Sans" font-size="14.00">objectives. </text>
</a>
</g>
</g>
<!-- TA&#45;METHODOLOGIES&#45;&gt;AOU&#45;11 -->
<g id="edge2" class="edge">
<title>TA&#45;METHODOLOGIES&#45;&gt;AOU&#45;11</title>
<path fill="none" stroke="black" d="M187.29,-241.96C168.03,-201.89 142.1,-147.96 122.63,-107.46"/>
<polygon fill="black" stroke="black" points="125.69,-105.75 118.2,-98.26 119.38,-108.79 125.69,-105.75"/>
</g>
<!-- TA&#45;METHODOLOGIES&#45;&gt;JLS&#45;13 -->
<g id="edge3" class="edge">
<title>TA&#45;METHODOLOGIES&#45;&gt;JLS&#45;13</title>
<path fill="none" stroke="black" d="M240.93,-241.96C265.77,-190.72 301.62,-116.78 320.76,-77.3"/>
<polygon fill="black" stroke="black" points="324.04,-78.56 325.26,-68.03 317.74,-75.51 324.04,-78.56"/>
</g>
<!-- TT&#45;CONFIDENCE&#45;&gt;TA&#45;METHODOLOGIES -->
<g id="edge4" class="edge">
<title>TT&#45;CONFIDENCE&#45;&gt;TA&#45;METHODOLOGIES</title>
<path fill="none" stroke="black" d="M214,-498.79C214,-462.26 214,-408 214,-365.32"/>
<polygon fill="black" stroke="black" points="217.5,-365.29 214,-355.29 210.5,-365.29 217.5,-365.29"/>
</g>
</g>
</svg>
