<svg width="1280" height="720" xmlns="http://www.w3.org/2000/svg" xmlns:xlink="http://www.w3.org/1999/xlink" overflow="hidden"><g><rect x="0" y="0" width="1280" height="720" fill="#FFFFFF"/><path d="M526 360C526 297.04 577.04 246 640 246 702.96 246 754 297.04 754 360 754 422.96 702.96 474 640 474 577.04 474 526 422.96 526 360Z" stroke="#000000" stroke-width="2" stroke-miterlimit="8" fill="none" fill-rule="evenodd"/><text font-family="Aptos,Aptos_MSFontService,sans-serif" font-weight="400" font-size="16" transform="translate(610.94 356)">Mirror</text><text font-family="Aptos,Aptos_MSFontService,sans-serif" font-weight="400" font-size="16" transform="translate(655.387 356)">of</text><text font-family="Aptos,Aptos_MSFontService,sans-serif" font-weight="400" font-size="16" transform="translate(587.333 375)">nlohmann</text><text font-family="Aptos,Aptos_MSFontService,sans-serif" font-weight="400" font-size="16" transform="translate(657.833 375)">/</text><text font-family="Aptos,Aptos_MSFontService,sans-serif" font-weight="400" font-size="16" transform="translate(663.333 375)">json</text><rect x="81" y="194" width="273" height="420" stroke="#000000" stroke-width="2" stroke-miterlimit="8" fill="none"/><rect x="81" y="194" width="273" height="39" stroke="#000000" stroke-width="2" stroke-miterlimit="8" fill="none"/><text font-family="Aptos,Aptos_MSFontService,sans-serif" font-weight="400" font-size="16" transform="translate(183.912 219)">Integrator</text><rect x="102" y="269" width="230" height="39" stroke="#000000" stroke-width="2" stroke-miterlimit="8" fill="none"/><text font-family="Aptos,Aptos_MSFontService,sans-serif" font-weight="400" font-size="16" transform="translate(143.062 294)">Change management</text><rect x="102" y="345" width="230" height="39" stroke="#000000" stroke-width="2" stroke-miterlimit="8" fill="none"/><text font-family="Aptos,Aptos_MSFontService,sans-serif" font-weight="400" font-size="16" transform="translate(139.545 360)">Dependency</text><text font-family="Aptos,Aptos_MSFontService,sans-serif" font-weight="400" font-size="16" transform="translate(230.505 360)">and</text><text font-family="Aptos,Aptos_MSFontService,sans-serif" font-weight="400" font-size="16" transform="translate(260.172 360)">build</text><text font-family="Aptos,Aptos_MSFontService,sans-serif" font-weight="400" font-size="16" transform="translate(171.418 379)">management</text><rect x="102" y="421" width="230" height="39" stroke="#000000" stroke-width="2" stroke-miterlimit="8" fill="none"/><text font-family="Aptos,Aptos_MSFontService,sans-serif" font-weight="400" font-size="16" transform="translate(115.315 446)">Analysis</text><text font-family="Aptos,Aptos_MSFontService,sans-serif" font-weight="400" font-size="16" transform="translate(176.222 446)">of</text><text font-family="Aptos,Aptos_MSFontService,sans-serif" font-weight="400" font-size="16" transform="translate(193.222 446)">data management</text><rect x="488" y="102" width="304" height="39" stroke="#000000" stroke-width="2" stroke-miterlimit="8" fill="none"/><text font-family="Aptos,Aptos_MSFontService,sans-serif" font-weight="400" font-size="16" transform="translate(587.333 127)">nlohmann</text><text font-family="Aptos,Aptos_MSFontService,sans-serif" font-weight="400" font-size="16" transform="translate(657.833 127)">/</text><text font-family="Aptos,Aptos_MSFontService,sans-serif" font-weight="400" font-size="16" transform="translate(663.333 127)">json</text><rect x="895" y="194" width="304" height="420" stroke="#000000" stroke-width="2" stroke-miterlimit="8" fill="none"/><rect x="895" y="194" width="304" height="39" stroke="#000000" stroke-width="2" stroke-miterlimit="8" fill="none"/><text font-family="Aptos,Aptos_MSFontService,sans-serif" font-weight="400" font-size="16" transform="translate(938.632 219)">Software (</text><text font-family="Aptos,Aptos_MSFontService,sans-serif" font-weight="400" font-size="16" transform="translate(1011.45 219)">downstream</text><text font-family="Aptos,Aptos_MSFontService,sans-serif" font-weight="400" font-size="16" transform="translate(1101.49 219)">system)</text><rect x="929" y="269" width="230" height="39" stroke="#000000" stroke-width="2" stroke-miterlimit="8" fill="none"/><text font-family="Aptos,Aptos_MSFontService,sans-serif" font-weight="400" font-size="16" transform="translate(976.336 294)">Exception</text><text font-family="Aptos,Aptos_MSFontService,sans-serif" font-weight="400" font-size="16" transform="translate(1051.08 294)">handling</text><rect x="929" y="345" width="230" height="39" stroke="#000000" stroke-width="2" stroke-miterlimit="8" fill="none"/><text font-family="Aptos,Aptos_MSFontService,sans-serif" font-weight="400" font-size="16" transform="translate(1000.07 370)">Input source</text><rect x="929" y="421" width="230" height="39" stroke="#000000" stroke-width="2" stroke-miterlimit="8" fill="none"/><text font-family="Aptos,Aptos_MSFontService,sans-serif" font-weight="400" font-size="16" transform="translate(997.436 446)">Output</text><text font-family="Aptos,Aptos_MSFontService,sans-serif" font-weight="400" font-size="16" transform="translate(1049.77 446)">target</text><rect x="929" y="496" width="230" height="39" stroke="#000000" stroke-width="2" stroke-miterlimit="8" fill="none"/><text font-family="Aptos,Aptos_MSFontService,sans-serif" font-weight="400" font-size="16" transform="translate(962.523 512)">Warning</text><text font-family="Aptos,Aptos_MSFontService,sans-serif" font-weight="400" font-size="16" transform="translate(1026.02 512)">indicators</text><text font-family="Aptos,Aptos_MSFontService,sans-serif" font-weight="400" font-size="16" transform="translate(1098.39 512)">and</text><text font-family="Aptos,Aptos_MSFontService,sans-serif" font-weight="400" font-size="16" transform="translate(1005.09 531)">mitigations</text><path d="M216 194 216 121 480.824 121 480.824 123 217 123 218 122 218 194ZM479.491 118 487.491 122 479.491 126Z"/><text font-family="Aptos,Aptos_MSFontService,sans-serif" font-weight="400" font-size="13" transform="translate(318.176 114)">Error</text><text font-family="Aptos,Aptos_MSFontService,sans-serif" font-weight="400" font-size="13" transform="translate(349.009 114)">reporting</text><path d="M641 141 641 238.786 639 238.786 639 141ZM644 237.453 640 245.453 636 237.453Z"/><path d="M6.02198e-07-1 167.673-0.999899 167.673 1.0001-6.02198e-07 1ZM166.34-3.9999 174.34 0.000104987 166.34 4.0001Z" transform="matrix(-1 0 0 1 928.34 363)"/><path d="M332 299 535.456 299 535.456 301 332 301ZM534.123 296 542.123 300 534.123 304Z"/><text font-family="Aptos,Aptos_MSFontService,sans-serif" font-weight="400" font-size="13" transform="translate(792.233 359)">JSON input</text><text font-family="Aptos,Aptos_MSFontService,sans-serif" font-weight="400" font-size="13" transform="translate(361.911 355)">Compiler</text><text font-family="Aptos,Aptos_MSFontService,sans-serif" font-weight="400" font-size="13" transform="translate(418.077 355)">and</text><text font-family="Aptos,Aptos_MSFontService,sans-serif" font-weight="400" font-size="13" transform="translate(442.744 355)">tool</text><text font-family="Aptos,Aptos_MSFontService,sans-serif" font-weight="400" font-size="13" transform="translate(467.911 355)">versions</text><path d="M332 364 518.692 364 518.692 366 332 366ZM517.359 361 525.359 365 517.359 369Z"/><text font-family="Aptos,Aptos_MSFontService,sans-serif" font-weight="400" font-size="13" transform="translate(374.405 296)">Update</text><text font-family="Aptos,Aptos_MSFontService,sans-serif" font-weight="400" font-size="13" transform="translate(419.571 296)">ChangeLog.md</text><path d="M4.80769e-07-1 211.706-0.999898 211.706 1.0001-4.80769e-07 1ZM210.373-3.9999 218.373 0.000104987 210.373 4.0001Z" transform="matrix(-1 0 0 1 550.373 431)"/><text font-family="Aptos,Aptos_MSFontService,sans-serif" font-weight="400" font-size="13" transform="translate(390.521 422)">Monitoring</text><text font-family="Aptos,Aptos_MSFontService,sans-serif" font-weight="400" font-size="13" transform="translate(454.687 422)">data</text><path d="M730 288 922.437 288 922.437 290 730 290ZM921.104 285 929.104 289 921.104 293Z"/><text font-family="Aptos,Aptos_MSFontService,sans-serif" font-weight="400" font-size="13" transform="translate(776.017 285)">Exceptions</text><path d="M332 451 494.613 451 494.613 515.686 493.613 514.686 921.56 514.686 921.56 516.686 492.613 516.686 492.613 452 493.613 453 332 453ZM920.227 511.686 928.227 515.686 920.227 519.686Z"/><path d="M719 441 921.687 441 921.687 443 719 443ZM920.354 438 928.354 442 920.354 446Z"/><text font-family="Aptos,Aptos_MSFontService,sans-serif" font-weight="400" font-size="13" transform="translate(763.864 438)">Deserialized</text><text font-family="Aptos,Aptos_MSFontService,sans-serif" font-weight="400" font-size="13" transform="translate(838.031 438)">object</text><text font-family="Aptos,Aptos_MSFontService,sans-serif" font-weight="400" font-size="13" transform="translate(708.166 507)">Identified</text><text font-family="Aptos,Aptos_MSFontService,sans-serif" font-weight="400" font-size="13" transform="translate(765.333 507)">misbehaviours</text><path d="M0 0 53.9306 0 53.9306 1016.14" stroke="#000000" stroke-width="2" stroke-miterlimit="8" fill="none" fill-rule="evenodd" transform="matrix(1.83697e-16 1 1 -1.83697e-16 217 614)"/><path d="M0-1 304.322-1 304.322 67.099 302.322 67.099 302.322 0 303.322 1 0 1ZM307.322 65.7656 303.322 73.7656 299.322 65.7656Z" transform="matrix(-1.83697e-16 -1 -1 1.83697e-16 1232.77 668.322)"/><text font-family="Aptos,Aptos_MSFontService,sans-serif" font-weight="400" font-size="13" transform="translate(708.166 659)">Input</text><text font-family="Aptos,Aptos_MSFontService,sans-serif" font-weight="400" font-size="13" transform="translate(740.999 659)">constraints</text><path d="M4.62852e-07-1 220.159-0.999898 220.159 1.0001-4.62852e-07 1ZM218.826-3.9999 226.826 0.000104987 218.826 4.0001Z" transform="matrix(-1 0 0 1 558.826 279)"/><text font-family="Aptos,Aptos_MSFontService,sans-serif" font-weight="400" font-size="13" transform="translate(374.405 274)">Updates</text><text font-family="Aptos,Aptos_MSFontService,sans-serif" font-weight="400" font-size="13" transform="translate(426.071 274)">in</text><text font-family="Aptos,Aptos_MSFontService,sans-serif" font-weight="400" font-size="13" transform="translate(439.238 274)">mirror</text><text font-family="Aptos,Aptos_MSFontService,sans-serif" font-weight="400" font-size="13" transform="translate(649.667 195)">JSON Parsing</text><text font-family="Aptos,Aptos_MSFontService,sans-serif" font-weight="400" font-size="13" transform="translate(734.167 195)">functionality</text><text font-family="Aptos,Aptos_MSFontService,sans-serif" font-weight="400" font-size="13" transform="translate(649.667 211)">(</text><text font-family="Aptos,Aptos_MSFontService,sans-serif" font-weight="400" font-size="13" transform="translate(653.5 211)">Deserialization</text><text font-family="Aptos,Aptos_MSFontService,sans-serif" font-weight="400" font-size="13" transform="translate(742.5 211)">only</text><text font-family="Aptos,Aptos_MSFontService,sans-serif" font-weight="400" font-size="13" transform="translate(766.667 211)">)</text></g></svg>