<svg width="1280" height="720" xmlns="http://www.w3.org/2000/svg" xmlns:xlink="http://www.w3.org/1999/xlink" overflow="hidden"><g><rect x="0" y="0" width="1280" height="720" fill="#FFFFFF"/><path d="M508 341C508 278.04 559.04 227 622 227 684.96 227 736 278.04 736 341 736 403.96 684.96 455 622 455 559.04 455 508 403.96 508 341Z" stroke="#000000" stroke-width="2" stroke-miterlimit="8" fill="none" fill-rule="evenodd"/><text font-family="Aptos,Aptos_MSFontService,sans-serif" font-weight="400" font-size="16" transform="translate(592.827 337)">Mirror</text><text font-family="Aptos,Aptos_MSFontService,sans-serif" font-weight="400" font-size="16" transform="translate(637.274 337)">of</text><text font-family="Aptos,Aptos_MSFontService,sans-serif" font-weight="400" font-size="16" transform="translate(569.221 356)">nlohmann</text><text font-family="Aptos,Aptos_MSFontService,sans-serif" font-weight="400" font-size="16" transform="translate(639.721 356)">/</text><text font-family="Aptos,Aptos_MSFontService,sans-serif" font-weight="400" font-size="16" transform="translate(645.221 356)">json</text><rect x="62" y="175" width="274" height="420" stroke="#000000" stroke-width="2" stroke-miterlimit="8" fill="none"/><rect x="62" y="175" width="274" height="39" stroke="#000000" stroke-width="2" stroke-miterlimit="8" fill="none"/><text font-family="Aptos,Aptos_MSFontService,sans-serif" font-weight="400" font-size="16" transform="translate(165.799 200)">Integrator</text><rect x="84" y="250" width="230" height="39" stroke="#000000" stroke-width="2" stroke-miterlimit="8" fill="none"/><text font-family="Aptos,Aptos_MSFontService,sans-serif" font-weight="400" font-size="16" transform="translate(124.949 275)">Change management</text><rect x="84" y="326" width="230" height="39" stroke="#000000" stroke-width="2" stroke-miterlimit="8" fill="none"/><text font-family="Aptos,Aptos_MSFontService,sans-serif" font-weight="400" font-size="16" transform="translate(121.432 341)">Dependency</text><text font-family="Aptos,Aptos_MSFontService,sans-serif" font-weight="400" font-size="16" transform="translate(212.393 341)">and</text><text font-family="Aptos,Aptos_MSFontService,sans-serif" font-weight="400" font-size="16" transform="translate(242.059 341)">build</text><text font-family="Aptos,Aptos_MSFontService,sans-serif" font-weight="400" font-size="16" transform="translate(153.306 360)">management</text><rect x="84" y="402" width="230" height="39" stroke="#000000" stroke-width="2" stroke-miterlimit="8" fill="none"/><text font-family="Aptos,Aptos_MSFontService,sans-serif" font-weight="400" font-size="16" transform="translate(97.2025 427)">Analysis</text><text font-family="Aptos,Aptos_MSFontService,sans-serif" font-weight="400" font-size="16" transform="translate(158.109 427)">of</text><text font-family="Aptos,Aptos_MSFontService,sans-serif" font-weight="400" font-size="16" transform="translate(175.109 427)">data management</text><rect x="470" y="83" width="304" height="39" stroke="#000000" stroke-width="2" stroke-miterlimit="8" fill="none"/><text font-family="Aptos,Aptos_MSFontService,sans-serif" font-weight="400" font-size="16" transform="translate(569.221 108)">nlohmann</text><text font-family="Aptos,Aptos_MSFontService,sans-serif" font-weight="400" font-size="16" transform="translate(639.721 108)">/</text><text font-family="Aptos,Aptos_MSFontService,sans-serif" font-weight="400" font-size="16" transform="translate(645.221 108)">json</text><rect x="877" y="175" width="304" height="420" stroke="#000000" stroke-width="2" stroke-miterlimit="8" fill="none"/><rect x="877" y="175" width="304" height="39" stroke="#000000" stroke-width="2" stroke-miterlimit="8" fill="none"/><text font-family="Aptos,Aptos_MSFontService,sans-serif" font-weight="400" font-size="16" transform="translate(920.519 200)">Software (</text><text font-family="Aptos,Aptos_MSFontService,sans-serif" font-weight="400" font-size="16" transform="translate(993.339 200)">downstream</text><text font-family="Aptos,Aptos_MSFontService,sans-serif" font-weight="400" font-size="16" transform="translate(1083.37 200)">system)</text><rect x="910" y="250" width="231" height="39" stroke="#000000" stroke-width="2" stroke-miterlimit="8" fill="none"/><text font-family="Aptos,Aptos_MSFontService,sans-serif" font-weight="400" font-size="16" transform="translate(958.223 275)">Exception</text><text font-family="Aptos,Aptos_MSFontService,sans-serif" font-weight="400" font-size="16" transform="translate(1032.96 275)">handling</text><rect x="910" y="326" width="231" height="39" stroke="#000000" stroke-width="2" stroke-miterlimit="8" fill="none"/><text font-family="Aptos,Aptos_MSFontService,sans-serif" font-weight="400" font-size="16" transform="translate(981.953 351)">Input source</text><rect x="910" y="402" width="231" height="39" stroke="#000000" stroke-width="2" stroke-miterlimit="8" fill="none"/><text font-family="Aptos,Aptos_MSFontService,sans-serif" font-weight="400" font-size="16" transform="translate(979.323 427)">Output</text><text font-family="Aptos,Aptos_MSFontService,sans-serif" font-weight="400" font-size="16" transform="translate(1031.66 427)">target</text><rect x="910" y="477" width="231" height="39" stroke="#000000" stroke-width="2" stroke-miterlimit="8" fill="none"/><text font-family="Aptos,Aptos_MSFontService,sans-serif" font-weight="400" font-size="16" transform="translate(944.41 493)">Warning</text><text font-family="Aptos,Aptos_MSFontService,sans-serif" font-weight="400" font-size="16" transform="translate(1007.91 493)">indicators</text><text font-family="Aptos,Aptos_MSFontService,sans-serif" font-weight="400" font-size="16" transform="translate(1080.28 493)">and</text><text font-family="Aptos,Aptos_MSFontService,sans-serif" font-weight="400" font-size="16" transform="translate(986.977 512)">mitigations</text><path d="M198 175 198 102 462.824 102 462.824 104 199 104 200 103 200 175ZM461.491 99 469.491 103 461.491 107Z"/><text font-family="Aptos,Aptos_MSFontService,sans-serif" font-weight="400" font-size="13" transform="translate(300.063 95)">Error</text><text font-family="Aptos,Aptos_MSFontService,sans-serif" font-weight="400" font-size="13" transform="translate(330.896 95)">reporting</text><path d="M623 122 623 219.786 621 219.786 621 122ZM626 218.453 622 226.453 618 218.453Z"/><path d="M6.02198e-07-1 167.673-0.999899 167.673 1.0001-6.02198e-07 1ZM166.34-3.9999 174.34 0.000104987 166.34 4.0001Z" transform="matrix(-1 0 0 1 910.34 344)"/><path d="M314 280 517.456 280 517.456 282 314 282ZM516.123 277 524.123 281 516.123 285Z"/><text font-family="Aptos,Aptos_MSFontService,sans-serif" font-weight="400" font-size="13" transform="translate(774.12 340)">JSON input</text><text font-family="Aptos,Aptos_MSFontService,sans-serif" font-weight="400" font-size="13" transform="translate(343.798 336)">Compiler</text><text font-family="Aptos,Aptos_MSFontService,sans-serif" font-weight="400" font-size="13" transform="translate(399.965 336)">and</text><text font-family="Aptos,Aptos_MSFontService,sans-serif" font-weight="400" font-size="13" transform="translate(424.631 336)">tool</text><text font-family="Aptos,Aptos_MSFontService,sans-serif" font-weight="400" font-size="13" transform="translate(449.798 336)">versions</text><path d="M314 345 500.692 345 500.692 347 314 347ZM499.359 342 507.359 346 499.359 350Z"/><text font-family="Aptos,Aptos_MSFontService,sans-serif" font-weight="400" font-size="13" transform="translate(356.292 277)">Update</text><text font-family="Aptos,Aptos_MSFontService,sans-serif" font-weight="400" font-size="13" transform="translate(401.459 277)">ChangeLog.md</text><path d="M4.80769e-07-1 211.706-0.999898 211.706 1.0001-4.80769e-07 1ZM210.373-3.9999 218.373 0.000104987 210.373 4.0001Z" transform="matrix(-1 0 0 1 532.373 412)"/><text font-family="Aptos,Aptos_MSFontService,sans-serif" font-weight="400" font-size="13" transform="translate(372.408 403)">Monitoring</text><text font-family="Aptos,Aptos_MSFontService,sans-serif" font-weight="400" font-size="13" transform="translate(436.575 403)">data</text><path d="M711 269 903.437 269 903.437 271 711 271ZM902.104 266 910.104 270 902.104 274Z"/><text font-family="Aptos,Aptos_MSFontService,sans-serif" font-weight="400" font-size="13" transform="translate(757.904 266)">Exceptions</text><path d="M314 432 476.613 432 476.613 496.686 475.613 495.686 903.56 495.686 903.56 497.686 474.613 497.686 474.613 433 475.613 434 314 434ZM902.227 492.686 910.227 496.686 902.227 500.686Z"/><path d="M701 422 903.687 422 903.687 424 701 424ZM902.354 419 910.354 423 902.354 427Z"/><text font-family="Aptos,Aptos_MSFontService,sans-serif" font-weight="400" font-size="13" transform="translate(745.752 419)">Deserialized</text><text font-family="Aptos,Aptos_MSFontService,sans-serif" font-weight="400" font-size="13" transform="translate(819.918 419)">object</text><text font-family="Aptos,Aptos_MSFontService,sans-serif" font-weight="400" font-size="13" transform="translate(690.053 488)">Identified</text><text font-family="Aptos,Aptos_MSFontService,sans-serif" font-weight="400" font-size="13" transform="translate(747.22 488)">misbehaviours</text><path d="M0 0 53.8773 0 53.8773 1016.14" stroke="#000000" stroke-width="2" stroke-miterlimit="8" fill="none" fill-rule="evenodd" transform="matrix(1.83697e-16 1 1 -1.83697e-16 199 595)"/><path d="M0-1 304.322-1 304.322 67.0993 302.322 67.0993 302.322 0 303.322 1 0 1ZM307.322 65.766 303.322 73.766 299.322 65.766Z" transform="matrix(-1.83697e-16 -1 -1 1.83697e-16 1214.77 649.322)"/><text font-family="Aptos,Aptos_MSFontService,sans-serif" font-weight="400" font-size="13" transform="translate(690.053 640)">Input</text><text font-family="Aptos,Aptos_MSFontService,sans-serif" font-weight="400" font-size="13" transform="translate(722.887 640)">constraints</text><path d="M4.62852e-07-1 220.159-0.999898 220.159 1.0001-4.62852e-07 1ZM218.826-3.9999 226.826 0.000104987 218.826 4.0001Z" transform="matrix(-1 0 0 1 540.826 260)"/><text font-family="Aptos,Aptos_MSFontService,sans-serif" font-weight="400" font-size="13" transform="translate(356.292 255)">Updates</text><text font-family="Aptos,Aptos_MSFontService,sans-serif" font-weight="400" font-size="13" transform="translate(407.959 255)">in</text><text font-family="Aptos,Aptos_MSFontService,sans-serif" font-weight="400" font-size="13" transform="translate(421.125 255)">mirror</text><text font-family="Aptos,Aptos_MSFontService,sans-serif" font-weight="400" font-size="13" transform="translate(631.554 176)">JSON Parsing</text><text font-family="Aptos,Aptos_MSFontService,sans-serif" font-weight="400" font-size="13" transform="translate(716.054 176)">functionality</text><text font-family="Aptos,Aptos_MSFontService,sans-serif" font-weight="400" font-size="13" transform="translate(631.554 192)">(</text><text font-family="Aptos,Aptos_MSFontService,sans-serif" font-weight="400" font-size="13" transform="translate(635.388 192)">Deserialization</text><text font-family="Aptos,Aptos_MSFontService,sans-serif" font-weight="400" font-size="13" transform="translate(724.388 192)">only</text><text font-family="Aptos,Aptos_MSFontService,sans-serif" font-weight="400" font-size="13" transform="translate(748.554 192)">)</text></g></svg>